<?xml version="1.0" encoding="utf-8" standalone="no"?>
<!DOCTYPE svg PUBLIC "-//W3C//DTD SVG 1.1//EN"
  "http://www.w3.org/Graphics/SVG/1.1/DTD/svg11.dtd">
<svg xmlns:xlink="http://www.w3.org/1999/xlink" width="432pt" height="114.75pt" viewBox="0 0 432 114.75" xmlns="http://www.w3.org/2000/svg" version="1.1">
 <metadata>
  <rdf:RDF xmlns:dc="http://purl.org/dc/elements/1.1/" xmlns:cc="http://creativecommons.org/ns#" xmlns:rdf="http://www.w3.org/1999/02/22-rdf-syntax-ns#">
   <cc:Work>
    <dc:type rdf:resource="http://purl.org/dc/dcmitype/StillImage"/>
    <dc:date>2024-12-09T02:57:18.236322</dc:date>
    <dc:format>image/svg+xml</dc:format>
    <dc:creator>
     <cc:Agent>
      <dc:title>Matplotlib v3.8.4, https://matplotlib.org/</dc:title>
     </cc:Agent>
    </dc:creator>
   </cc:Work>
  </rdf:RDF>
 </metadata>
 <defs>
  <style type="text/css">*{stroke-linejoin: round; stroke-linecap: butt}</style>
 </defs>
 <g id="figure_1">
  <g id="patch_1">
   <path d="M 0 114.75 
L 432 114.75 
L 432 0 
L 0 0 
z
" style="fill: #ffffff"/>
  </g>
  <g id="axes_1">
   <g id="patch_2">
    <path d="M 76.5875 62.3725 
L 146.632575 62.3725 
L 146.632575 14.04 
L 76.5875 14.04 
z
" style="fill: #ffffff"/>
   </g>
   <g id="PathCollection_1">
    <defs>
     <path id="m0a9a5df0fd" d="M 0 0.447214 
C 0.118602 0.447214 0.232363 0.400092 0.316228 0.316228 
C 0.400092 0.232363 0.447214 0.118602 0.447214 0 
C 0.447214 -0.118602 0.400092 -0.232363 0.316228 -0.316228 
C 0.232363 -0.400092 0.118602 -0.447214 0 -0.447214 
C -0.118602 -0.447214 -0.232363 -0.400092 -0.316228 -0.316228 
C -0.400092 -0.232363 -0.447214 -0.118602 -0.447214 0 
C -0.447214 0.118602 -0.400092 0.232363 -0.316228 0.316228 
C -0.232363 0.400092 -0.118602 0.447214 0 0.447214 
z
" style="stroke: #ff0000; stroke-opacity: 0.8"/>
    </defs>
    <g clip-path="url(#pa702ee2433)">
     <use xlink:href="#m0a9a5df0fd" x="79.771367" y="60.175568" style="fill: #ff0000; fill-opacity: 0.8; stroke: #ff0000; stroke-opacity: 0.8"/>
     <use xlink:href="#m0a9a5df0fd" x="81.328407" y="60.070561" style="fill: #ff0000; fill-opacity: 0.8; stroke: #ff0000; stroke-opacity: 0.8"/>
     <use xlink:href="#m0a9a5df0fd" x="81.966438" y="60.092149" style="fill: #ff0000; fill-opacity: 0.8; stroke: #ff0000; stroke-opacity: 0.8"/>
     <use xlink:href="#m0a9a5df0fd" x="82.838034" y="60.076158" style="fill: #ff0000; fill-opacity: 0.8; stroke: #ff0000; stroke-opacity: 0.8"/>
     <use xlink:href="#m0a9a5df0fd" x="83.669753" y="60.08895" style="fill: #ff0000; fill-opacity: 0.8; stroke: #ff0000; stroke-opacity: 0.8"/>
     <use xlink:href="#m0a9a5df0fd" x="84.421718" y="60.08895" style="fill: #ff0000; fill-opacity: 0.8; stroke: #ff0000; stroke-opacity: 0.8"/>
     <use xlink:href="#m0a9a5df0fd" x="85.309265" y="60.062565" style="fill: #ff0000; fill-opacity: 0.8; stroke: #ff0000; stroke-opacity: 0.8"/>
     <use xlink:href="#m0a9a5df0fd" x="86.134148" y="60.085752" style="fill: #ff0000; fill-opacity: 0.8; stroke: #ff0000; stroke-opacity: 0.8"/>
     <use xlink:href="#m0a9a5df0fd" x="86.954474" y="60.084953" style="fill: #ff0000; fill-opacity: 0.8; stroke: #ff0000; stroke-opacity: 0.8"/>
     <use xlink:href="#m0a9a5df0fd" x="87.774799" y="60.086552" style="fill: #ff0000; fill-opacity: 0.8; stroke: #ff0000; stroke-opacity: 0.8"/>
     <use xlink:href="#m0a9a5df0fd" x="88.537018" y="60.12573" style="fill: #ff0000; fill-opacity: 0.8; stroke: #ff0000; stroke-opacity: 0.8"/>
     <use xlink:href="#m0a9a5df0fd" x="89.372156" y="60.092948" style="fill: #ff0000; fill-opacity: 0.8; stroke: #ff0000; stroke-opacity: 0.8"/>
     <use xlink:href="#m0a9a5df0fd" x="90.198178" y="59.904255" style="fill: #ff0000; fill-opacity: 0.8; stroke: #ff0000; stroke-opacity: 0.8"/>
     <use xlink:href="#m0a9a5df0fd" x="91.062938" y="59.332178" style="fill: #ff0000; fill-opacity: 0.8; stroke: #ff0000; stroke-opacity: 0.8"/>
     <use xlink:href="#m0a9a5df0fd" x="91.83769" y="58.017321" style="fill: #ff0000; fill-opacity: 0.8; stroke: #ff0000; stroke-opacity: 0.8"/>
     <use xlink:href="#m0a9a5df0fd" x="92.696753" y="57.380081" style="fill: #ff0000; fill-opacity: 0.8; stroke: #ff0000; stroke-opacity: 0.8"/>
     <use xlink:href="#m0a9a5df0fd" x="93.519358" y="56.19675" style="fill: #ff0000; fill-opacity: 0.8; stroke: #ff0000; stroke-opacity: 0.8"/>
     <use xlink:href="#m0a9a5df0fd" x="94.284995" y="55.55951" style="fill: #ff0000; fill-opacity: 0.8; stroke: #ff0000; stroke-opacity: 0.8"/>
     <use xlink:href="#m0a9a5df0fd" x="95.070001" y="54.101134" style="fill: #ff0000; fill-opacity: 0.8; stroke: #ff0000; stroke-opacity: 0.8"/>
     <use xlink:href="#m0a9a5df0fd" x="96.976119" y="49.89631" style="fill: #ff0000; fill-opacity: 0.8; stroke: #ff0000; stroke-opacity: 0.8"/>
     <use xlink:href="#m0a9a5df0fd" x="98.640696" y="48.621031" style="fill: #ff0000; fill-opacity: 0.8; stroke: #ff0000; stroke-opacity: 0.8"/>
     <use xlink:href="#m0a9a5df0fd" x="100.246028" y="44.210723" style="fill: #ff0000; fill-opacity: 0.8; stroke: #ff0000; stroke-opacity: 0.8"/>
     <use xlink:href="#m0a9a5df0fd" x="101.836549" y="42.983417" style="fill: #ff0000; fill-opacity: 0.8; stroke: #ff0000; stroke-opacity: 0.8"/>
     <use xlink:href="#m0a9a5df0fd" x="113.225403" y="30.280995" style="fill: #ff0000; fill-opacity: 0.8; stroke: #ff0000; stroke-opacity: 0.8"/>
     <use xlink:href="#m0a9a5df0fd" x="114.835292" y="29.61737" style="fill: #ff0000; fill-opacity: 0.8; stroke: #ff0000; stroke-opacity: 0.8"/>
     <use xlink:href="#m0a9a5df0fd" x="116.576206" y="29.870028" style="fill: #ff0000; fill-opacity: 0.8; stroke: #ff0000; stroke-opacity: 0.8"/>
     <use xlink:href="#m0a9a5df0fd" x="118.252177" y="27.814389" style="fill: #ff0000; fill-opacity: 0.8; stroke: #ff0000; stroke-opacity: 0.8"/>
     <use xlink:href="#m0a9a5df0fd" x="120.758727" y="27.602509" style="fill: #ff0000; fill-opacity: 0.8; stroke: #ff0000; stroke-opacity: 0.8"/>
     <use xlink:href="#m0a9a5df0fd" x="121.469676" y="28.777845" style="fill: #ff0000; fill-opacity: 0.8; stroke: #ff0000; stroke-opacity: 0.8"/>
     <use xlink:href="#m0a9a5df0fd" x="122.394821" y="27.852368" style="fill: #ff0000; fill-opacity: 0.8; stroke: #ff0000; stroke-opacity: 0.8"/>
     <use xlink:href="#m0a9a5df0fd" x="123.248188" y="26.806359" style="fill: #ff0000; fill-opacity: 0.8; stroke: #ff0000; stroke-opacity: 0.8"/>
     <use xlink:href="#m0a9a5df0fd" x="124.041169" y="27.716445" style="fill: #ff0000; fill-opacity: 0.8; stroke: #ff0000; stroke-opacity: 0.8"/>
     <use xlink:href="#m0a9a5df0fd" x="124.823897" y="27.436603" style="fill: #ff0000; fill-opacity: 0.8; stroke: #ff0000; stroke-opacity: 0.8"/>
     <use xlink:href="#m0a9a5df0fd" x="125.602067" y="25.944646" style="fill: #ff0000; fill-opacity: 0.8; stroke: #ff0000; stroke-opacity: 0.8"/>
     <use xlink:href="#m0a9a5df0fd" x="126.400745" y="26.087365" style="fill: #ff0000; fill-opacity: 0.8; stroke: #ff0000; stroke-opacity: 0.8"/>
     <use xlink:href="#m0a9a5df0fd" x="127.41248" y="24.012538" style="fill: #ff0000; fill-opacity: 0.8; stroke: #ff0000; stroke-opacity: 0.8"/>
     <use xlink:href="#m0a9a5df0fd" x="128.240781" y="24.650177" style="fill: #ff0000; fill-opacity: 0.8; stroke: #ff0000; stroke-opacity: 0.8"/>
     <use xlink:href="#m0a9a5df0fd" x="129.053132" y="25.793531" style="fill: #ff0000; fill-opacity: 0.8; stroke: #ff0000; stroke-opacity: 0.8"/>
     <use xlink:href="#m0a9a5df0fd" x="129.727622" y="25.819517" style="fill: #ff0000; fill-opacity: 0.8; stroke: #ff0000; stroke-opacity: 0.8"/>
     <use xlink:href="#m0a9a5df0fd" x="131.363715" y="22.473408" style="fill: #ff0000; fill-opacity: 0.8; stroke: #ff0000; stroke-opacity: 0.8"/>
     <use xlink:href="#m0a9a5df0fd" x="132.029091" y="25.099923" style="fill: #ff0000; fill-opacity: 0.8; stroke: #ff0000; stroke-opacity: 0.8"/>
     <use xlink:href="#m0a9a5df0fd" x="133.145645" y="23.674729" style="fill: #ff0000; fill-opacity: 0.8; stroke: #ff0000; stroke-opacity: 0.8"/>
     <use xlink:href="#m0a9a5df0fd" x="133.88052" y="22.417439" style="fill: #ff0000; fill-opacity: 0.8; stroke: #ff0000; stroke-opacity: 0.8"/>
     <use xlink:href="#m0a9a5df0fd" x="134.666666" y="22.409444" style="fill: #ff0000; fill-opacity: 0.8; stroke: #ff0000; stroke-opacity: 0.8"/>
     <use xlink:href="#m0a9a5df0fd" x="135.35027" y="22.16758" style="fill: #ff0000; fill-opacity: 0.8; stroke: #ff0000; stroke-opacity: 0.8"/>
     <use xlink:href="#m0a9a5df0fd" x="136.755078" y="22.157586" style="fill: #ff0000; fill-opacity: 0.8; stroke: #ff0000; stroke-opacity: 0.8"/>
     <use xlink:href="#m0a9a5df0fd" x="138.673729" y="22.453419" style="fill: #ff0000; fill-opacity: 0.8; stroke: #ff0000; stroke-opacity: 0.8"/>
     <use xlink:href="#m0a9a5df0fd" x="140.061446" y="23.061075" style="fill: #ff0000; fill-opacity: 0.8; stroke: #ff0000; stroke-opacity: 0.8"/>
     <use xlink:href="#m0a9a5df0fd" x="141.761343" y="20.218682" style="fill: #ff0000; fill-opacity: 0.8; stroke: #ff0000; stroke-opacity: 0.8"/>
     <use xlink:href="#m0a9a5df0fd" x="143.448708" y="21.066203" style="fill: #ff0000; fill-opacity: 0.8; stroke: #ff0000; stroke-opacity: 0.8"/>
    </g>
   </g>
   <g id="matplotlib.axis_1">
    <g id="xtick_1">
     <g id="line2d_1">
      <defs>
       <path id="mfcd8eb0de2" d="M 0 0 
L 0 3.5 
" style="stroke: #000000; stroke-width: 0.8"/>
      </defs>
      <g>
       <use xlink:href="#mfcd8eb0de2" x="79.771367" y="62.3725" style="stroke: #000000; stroke-width: 0.8"/>
      </g>
     </g>
     <g id="text_1">
      <!-- 0 -->
      <g transform="translate(76.521367 78.395312) scale(0.13 -0.13)">
       <defs>
        <path id="LMRoman10-Regular-30" d="M 2944 2048 
C 2944 2560 2912 3072 2688 3546 
C 2394 4160 1869 4262 1600 4262 
C 1216 4262 749 4096 486 3501 
C 282 3059 250 2560 250 2048 
C 250 1568 275 992 538 506 
C 813 -13 1280 -141 1594 -141 
C 1939 -141 2426 -6 2707 602 
C 2912 1043 2944 1542 2944 2048 
z
M 2413 2125 
C 2413 1645 2413 1210 2342 800 
C 2246 192 1882 0 1594 0 
C 1344 0 966 160 851 774 
C 781 1158 781 1747 781 2125 
C 781 2534 781 2957 832 3302 
C 954 4064 1434 4122 1594 4122 
C 1805 4122 2227 4006 2349 3373 
C 2413 3014 2413 2528 2413 2125 
z
" transform="scale(0.015625)"/>
       </defs>
       <use xlink:href="#LMRoman10-Regular-30"/>
      </g>
     </g>
    </g>
    <g id="xtick_2">
     <g id="line2d_2">
      <g>
       <use xlink:href="#mfcd8eb0de2" x="112.584394" y="62.3725" style="stroke: #000000; stroke-width: 0.8"/>
      </g>
     </g>
     <g id="text_2">
      <!-- 20 -->
      <g transform="translate(106.084394 78.395312) scale(0.13 -0.13)">
       <defs>
        <path id="LMRoman10-Regular-32" d="M 2874 1114 
L 2714 1114 
C 2682 922 2637 640 2573 544 
C 2528 493 2106 493 1965 493 
L 813 493 
L 1491 1152 
C 2490 2035 2874 2381 2874 3021 
C 2874 3750 2298 4262 1517 4262 
C 794 4262 320 3674 320 3104 
C 320 2746 640 2746 659 2746 
C 768 2746 992 2822 992 3085 
C 992 3251 877 3418 653 3418 
C 602 3418 589 3418 570 3411 
C 717 3827 1062 4064 1434 4064 
C 2016 4064 2291 3546 2291 3021 
C 2291 2509 1971 2003 1619 1606 
L 390 237 
C 320 166 320 154 320 0 
L 2694 0 
L 2874 1114 
z
" transform="scale(0.015625)"/>
       </defs>
       <use xlink:href="#LMRoman10-Regular-32"/>
       <use xlink:href="#LMRoman10-Regular-30" x="49.999985"/>
      </g>
     </g>
    </g>
    <g id="xtick_3">
     <g id="line2d_3">
      <g>
       <use xlink:href="#mfcd8eb0de2" x="145.397421" y="62.3725" style="stroke: #000000; stroke-width: 0.8"/>
      </g>
     </g>
     <g id="text_3">
      <!-- 40 -->
      <g transform="translate(138.897421 78.395312) scale(0.13 -0.13)">
       <defs>
        <path id="LMRoman10-Regular-34" d="M 3014 1056 
L 3014 1254 
L 2374 1254 
L 2374 4166 
C 2374 4294 2374 4333 2272 4333 
C 2214 4333 2195 4333 2144 4256 
L 179 1254 
L 179 1056 
L 1882 1056 
L 1882 499 
C 1882 269 1869 198 1395 198 
L 1261 198 
L 1261 0 
C 1523 19 1856 19 2125 19 
C 2394 19 2733 19 2995 0 
L 2995 198 
L 2861 198 
C 2387 198 2374 269 2374 499 
L 2374 1056 
L 3014 1056 
z
M 1920 1254 
L 358 1254 
L 1920 3642 
L 1920 1254 
z
" transform="scale(0.015625)"/>
       </defs>
       <use xlink:href="#LMRoman10-Regular-34"/>
       <use xlink:href="#LMRoman10-Regular-30" x="49.999985"/>
      </g>
     </g>
    </g>
    <g id="text_4">
     <!-- $t$ [$\text{days}$] -->
     <g transform="translate(87.885037 94.798125) scale(0.13 -0.13)">
      <defs>
       <path id="DejaVuSans-Oblique-74" d="M 2706 3500 
L 2619 3053 
L 1472 3053 
L 1100 1153 
Q 1081 1047 1072 975 
Q 1063 903 1063 863 
Q 1063 663 1183 572 
Q 1303 481 1569 481 
L 2150 481 
L 2053 0 
L 1503 0 
Q 991 0 739 200 
Q 488 400 488 806 
Q 488 878 497 964 
Q 506 1050 525 1153 
L 897 3053 
L 409 3053 
L 500 3500 
L 978 3500 
L 1172 4494 
L 1747 4494 
L 1556 3500 
L 2706 3500 
z
" transform="scale(0.015625)"/>
       <path id="LMRoman10-Regular-20" transform="scale(0.015625)"/>
       <path id="LMRoman10-Regular-5b" d="M 1632 -1600 
L 1632 -1344 
L 1011 -1344 
L 1011 4544 
L 1632 4544 
L 1632 4800 
L 755 4800 
L 755 -1600 
L 1632 -1600 
z
" transform="scale(0.015625)"/>
       <path id="DejaVuSans-64" d="M 2906 2969 
L 2906 4863 
L 3481 4863 
L 3481 0 
L 2906 0 
L 2906 525 
Q 2725 213 2448 61 
Q 2172 -91 1784 -91 
Q 1150 -91 751 415 
Q 353 922 353 1747 
Q 353 2572 751 3078 
Q 1150 3584 1784 3584 
Q 2172 3584 2448 3432 
Q 2725 3281 2906 2969 
z
M 947 1747 
Q 947 1113 1208 752 
Q 1469 391 1925 391 
Q 2381 391 2643 752 
Q 2906 1113 2906 1747 
Q 2906 2381 2643 2742 
Q 2381 3103 1925 3103 
Q 1469 3103 1208 2742 
Q 947 2381 947 1747 
z
" transform="scale(0.015625)"/>
       <path id="DejaVuSans-61" d="M 2194 1759 
Q 1497 1759 1228 1600 
Q 959 1441 959 1056 
Q 959 750 1161 570 
Q 1363 391 1709 391 
Q 2188 391 2477 730 
Q 2766 1069 2766 1631 
L 2766 1759 
L 2194 1759 
z
M 3341 1997 
L 3341 0 
L 2766 0 
L 2766 531 
Q 2569 213 2275 61 
Q 1981 -91 1556 -91 
Q 1019 -91 701 211 
Q 384 513 384 1019 
Q 384 1609 779 1909 
Q 1175 2209 1959 2209 
L 2766 2209 
L 2766 2266 
Q 2766 2663 2505 2880 
Q 2244 3097 1772 3097 
Q 1472 3097 1187 3025 
Q 903 2953 641 2809 
L 641 3341 
Q 956 3463 1253 3523 
Q 1550 3584 1831 3584 
Q 2591 3584 2966 3190 
Q 3341 2797 3341 1997 
z
" transform="scale(0.015625)"/>
       <path id="DejaVuSans-79" d="M 2059 -325 
Q 1816 -950 1584 -1140 
Q 1353 -1331 966 -1331 
L 506 -1331 
L 506 -850 
L 844 -850 
Q 1081 -850 1212 -737 
Q 1344 -625 1503 -206 
L 1606 56 
L 191 3500 
L 800 3500 
L 1894 763 
L 2988 3500 
L 3597 3500 
L 2059 -325 
z
" transform="scale(0.015625)"/>
       <path id="DejaVuSans-73" d="M 2834 3397 
L 2834 2853 
Q 2591 2978 2328 3040 
Q 2066 3103 1784 3103 
Q 1356 3103 1142 2972 
Q 928 2841 928 2578 
Q 928 2378 1081 2264 
Q 1234 2150 1697 2047 
L 1894 2003 
Q 2506 1872 2764 1633 
Q 3022 1394 3022 966 
Q 3022 478 2636 193 
Q 2250 -91 1575 -91 
Q 1294 -91 989 -36 
Q 684 19 347 128 
L 347 722 
Q 666 556 975 473 
Q 1284 391 1588 391 
Q 1994 391 2212 530 
Q 2431 669 2431 922 
Q 2431 1156 2273 1281 
Q 2116 1406 1581 1522 
L 1381 1569 
Q 847 1681 609 1914 
Q 372 2147 372 2553 
Q 372 3047 722 3315 
Q 1072 3584 1716 3584 
Q 2034 3584 2315 3537 
Q 2597 3491 2834 3397 
z
" transform="scale(0.015625)"/>
       <path id="LMRoman10-Regular-5d" d="M 1018 -1600 
L 1018 4800 
L 141 4800 
L 141 4544 
L 762 4544 
L 762 -1344 
L 141 -1344 
L 141 -1600 
L 1018 -1600 
z
" transform="scale(0.015625)"/>
      </defs>
      <use xlink:href="#DejaVuSans-Oblique-74" transform="translate(0 0.015625)"/>
      <use xlink:href="#LMRoman10-Regular-20" transform="translate(39.208984 0.015625)"/>
      <use xlink:href="#LMRoman10-Regular-5b" transform="translate(72.508972 0.015625)"/>
      <use xlink:href="#DejaVuSans-64" transform="translate(100.30896 0.015625)"/>
      <use xlink:href="#DejaVuSans-61" transform="translate(163.785522 0.015625)"/>
      <use xlink:href="#DejaVuSans-79" transform="translate(225.064819 0.015625)"/>
      <use xlink:href="#DejaVuSans-73" transform="translate(284.244507 0.015625)"/>
      <use xlink:href="#LMRoman10-Regular-5d" transform="translate(336.344116 0.015625)"/>
     </g>
    </g>
   </g>
   <g id="matplotlib.axis_2">
    <g id="ytick_1">
     <g id="line2d_4">
      <defs>
       <path id="ma98fbb1e0a" d="M 0 0 
L -3.5 0 
" style="stroke: #000000; stroke-width: 0.8"/>
      </defs>
      <g>
       <use xlink:href="#ma98fbb1e0a" x="76.5875" y="60.175568" style="stroke: #000000; stroke-width: 0.8"/>
      </g>
     </g>
     <g id="text_5">
      <!-- 0.0000 -->
      <g transform="translate(33.473906 64.686974) scale(0.13 -0.13)">
       <defs>
        <path id="LMRoman10-Regular-2e" d="M 1229 339 
C 1229 525 1075 678 890 678 
C 704 678 550 525 550 339 
C 550 154 704 0 890 0 
C 1075 0 1229 154 1229 339 
z
" transform="scale(0.015625)"/>
       </defs>
       <use xlink:href="#LMRoman10-Regular-30"/>
       <use xlink:href="#LMRoman10-Regular-2e" x="49.999985"/>
       <use xlink:href="#LMRoman10-Regular-30" x="77.799973"/>
       <use xlink:href="#LMRoman10-Regular-30" x="127.799957"/>
       <use xlink:href="#LMRoman10-Regular-30" x="177.799942"/>
       <use xlink:href="#LMRoman10-Regular-30" x="227.799927"/>
      </g>
     </g>
    </g>
    <g id="ytick_2">
     <g id="line2d_5">
      <g>
       <use xlink:href="#ma98fbb1e0a" x="76.5875" y="40.186864" style="stroke: #000000; stroke-width: 0.8"/>
      </g>
     </g>
     <g id="text_6">
      <!-- 0.0025 -->
      <g transform="translate(33.473906 44.69827) scale(0.13 -0.13)">
       <defs>
        <path id="LMRoman10-Regular-35" d="M 2874 1286 
C 2874 2048 2349 2688 1658 2688 
C 1350 2688 1075 2586 845 2362 
L 845 3610 
C 973 3571 1184 3526 1389 3526 
C 2176 3526 2624 4109 2624 4192 
C 2624 4230 2605 4262 2560 4262 
C 2560 4262 2541 4262 2509 4243 
C 2381 4186 2067 4058 1638 4058 
C 1382 4058 1088 4102 787 4237 
C 736 4256 710 4256 710 4256 
C 646 4256 646 4205 646 4102 
L 646 2208 
C 646 2093 646 2042 736 2042 
C 781 2042 794 2061 819 2099 
C 890 2202 1126 2547 1645 2547 
C 1978 2547 2138 2253 2189 2138 
C 2291 1901 2304 1651 2304 1331 
C 2304 1107 2304 723 2150 454 
C 1997 205 1760 38 1466 38 
C 998 38 634 378 525 755 
C 544 749 563 742 634 742 
C 845 742 954 902 954 1056 
C 954 1210 845 1370 634 1370 
C 544 1370 320 1325 320 1030 
C 320 480 762 -141 1478 -141 
C 2221 -141 2874 474 2874 1286 
z
" transform="scale(0.015625)"/>
       </defs>
       <use xlink:href="#LMRoman10-Regular-30"/>
       <use xlink:href="#LMRoman10-Regular-2e" x="49.999985"/>
       <use xlink:href="#LMRoman10-Regular-30" x="77.799973"/>
       <use xlink:href="#LMRoman10-Regular-30" x="127.799957"/>
       <use xlink:href="#LMRoman10-Regular-32" x="177.799942"/>
       <use xlink:href="#LMRoman10-Regular-35" x="227.799927"/>
      </g>
     </g>
    </g>
    <g id="ytick_3">
     <g id="line2d_6">
      <g>
       <use xlink:href="#ma98fbb1e0a" x="76.5875" y="20.19816" style="stroke: #000000; stroke-width: 0.8"/>
      </g>
     </g>
     <g id="text_7">
      <!-- 0.0050 -->
      <g transform="translate(33.473906 24.709566) scale(0.13 -0.13)">
       <use xlink:href="#LMRoman10-Regular-30"/>
       <use xlink:href="#LMRoman10-Regular-2e" x="49.999985"/>
       <use xlink:href="#LMRoman10-Regular-30" x="77.799973"/>
       <use xlink:href="#LMRoman10-Regular-30" x="127.799957"/>
       <use xlink:href="#LMRoman10-Regular-35" x="177.799942"/>
       <use xlink:href="#LMRoman10-Regular-30" x="227.799927"/>
      </g>
     </g>
    </g>
    <g id="text_8">
     <!-- $c$ [$mg/L$] -->
     <g transform="translate(26.223906 63.88125) rotate(-90) scale(0.13 -0.13)">
      <defs>
       <path id="DejaVuSans-Oblique-63" d="M 3431 3366 
L 3316 2797 
Q 3109 2947 2876 3022 
Q 2644 3097 2394 3097 
Q 2119 3097 1870 3000 
Q 1622 2903 1453 2725 
Q 1184 2453 1037 2087 
Q 891 1722 891 1331 
Q 891 859 1127 628 
Q 1363 397 1844 397 
Q 2081 397 2348 469 
Q 2616 541 2906 684 
L 2797 116 
Q 2547 13 2283 -39 
Q 2019 -91 1741 -91 
Q 1044 -91 669 257 
Q 294 606 294 1253 
Q 294 1797 489 2255 
Q 684 2713 1069 3078 
Q 1331 3328 1684 3456 
Q 2038 3584 2456 3584 
Q 2700 3584 2940 3529 
Q 3181 3475 3431 3366 
z
" transform="scale(0.015625)"/>
       <path id="DejaVuSans-Oblique-6d" d="M 5747 2113 
L 5338 0 
L 4763 0 
L 5166 2094 
Q 5191 2228 5203 2325 
Q 5216 2422 5216 2491 
Q 5216 2772 5059 2928 
Q 4903 3084 4622 3084 
Q 4203 3084 3875 2770 
Q 3547 2456 3450 1953 
L 3066 0 
L 2491 0 
L 2900 2094 
Q 2925 2209 2937 2307 
Q 2950 2406 2950 2484 
Q 2950 2769 2794 2926 
Q 2638 3084 2363 3084 
Q 1938 3084 1609 2770 
Q 1281 2456 1184 1953 
L 800 0 
L 225 0 
L 909 3500 
L 1484 3500 
L 1375 2956 
Q 1609 3263 1923 3423 
Q 2238 3584 2597 3584 
Q 2978 3584 3223 3384 
Q 3469 3184 3519 2828 
Q 3781 3197 4126 3390 
Q 4472 3584 4856 3584 
Q 5306 3584 5551 3325 
Q 5797 3066 5797 2591 
Q 5797 2488 5784 2364 
Q 5772 2241 5747 2113 
z
" transform="scale(0.015625)"/>
       <path id="DejaVuSans-Oblique-67" d="M 3816 3500 
L 3219 434 
Q 3047 -456 2561 -893 
Q 2075 -1331 1253 -1331 
Q 950 -1331 690 -1286 
Q 431 -1241 206 -1147 
L 313 -588 
Q 525 -725 762 -790 
Q 1000 -856 1269 -856 
Q 1816 -856 2167 -557 
Q 2519 -259 2631 300 
L 2681 563 
Q 2441 288 2122 144 
Q 1803 0 1434 0 
Q 903 0 598 351 
Q 294 703 294 1319 
Q 294 1803 478 2267 
Q 663 2731 997 3091 
Q 1219 3328 1514 3456 
Q 1809 3584 2131 3584 
Q 2484 3584 2746 3420 
Q 3009 3256 3138 2956 
L 3238 3500 
L 3816 3500 
z
M 2950 2216 
Q 2950 2641 2750 2872 
Q 2550 3103 2181 3103 
Q 1953 3103 1747 3012 
Q 1541 2922 1394 2759 
Q 1156 2491 1023 2127 
Q 891 1763 891 1375 
Q 891 944 1092 712 
Q 1294 481 1672 481 
Q 2219 481 2584 976 
Q 2950 1472 2950 2216 
z
" transform="scale(0.015625)"/>
       <path id="DejaVuSans-2f" d="M 1625 4666 
L 2156 4666 
L 531 -594 
L 0 -594 
L 1625 4666 
z
" transform="scale(0.015625)"/>
       <path id="DejaVuSans-Oblique-4c" d="M 1075 4666 
L 1709 4666 
L 909 525 
L 3181 525 
L 3078 0 
L 172 0 
L 1075 4666 
z
" transform="scale(0.015625)"/>
      </defs>
      <use xlink:href="#DejaVuSans-Oblique-63"/>
      <use xlink:href="#LMRoman10-Regular-20" transform="translate(54.980469 0)"/>
      <use xlink:href="#LMRoman10-Regular-5b" transform="translate(88.280457 0)"/>
      <use xlink:href="#DejaVuSans-Oblique-6d" transform="translate(116.080444 0)"/>
      <use xlink:href="#DejaVuSans-Oblique-67" transform="translate(213.492554 0)"/>
      <use xlink:href="#DejaVuSans-2f" transform="translate(276.969116 0)"/>
      <use xlink:href="#DejaVuSans-Oblique-4c" transform="translate(310.660522 0)"/>
      <use xlink:href="#LMRoman10-Regular-5d" transform="translate(366.373413 0)"/>
     </g>
    </g>
   </g>
   <g id="patch_3">
    <path d="M 76.5875 62.3725 
L 76.5875 14.04 
" style="fill: none; stroke: #000000; stroke-width: 0.8; stroke-linejoin: miter; stroke-linecap: square"/>
   </g>
   <g id="patch_4">
    <path d="M 146.632575 62.3725 
L 146.632575 14.04 
" style="fill: none; stroke: #000000; stroke-width: 0.8; stroke-linejoin: miter; stroke-linecap: square"/>
   </g>
   <g id="patch_5">
    <path d="M 76.5875 62.3725 
L 146.632575 62.3725 
" style="fill: none; stroke: #000000; stroke-width: 0.8; stroke-linejoin: miter; stroke-linecap: square"/>
   </g>
   <g id="patch_6">
    <path d="M 76.5875 14.04 
L 146.632575 14.04 
" style="fill: none; stroke: #000000; stroke-width: 0.8; stroke-linejoin: miter; stroke-linecap: square"/>
   </g>
  </g>
  <g id="axes_2">
   <g id="patch_7">
    <path d="M 208.855955 62.3725 
L 278.90103 62.3725 
L 278.90103 14.04 
L 208.855955 14.04 
z
" style="fill: #ffffff"/>
   </g>
   <g id="PathCollection_2">
    <g clip-path="url(#pc3c09270e8)">
     <use xlink:href="#m0a9a5df0fd" x="212.039822" y="60.175568" style="fill: #ff0000; fill-opacity: 0.8; stroke: #ff0000; stroke-opacity: 0.8"/>
     <use xlink:href="#m0a9a5df0fd" x="213.380269" y="59.406936" style="fill: #ff0000; fill-opacity: 0.8; stroke: #ff0000; stroke-opacity: 0.8"/>
     <use xlink:href="#m0a9a5df0fd" x="214.243036" y="59.68198" style="fill: #ff0000; fill-opacity: 0.8; stroke: #ff0000; stroke-opacity: 0.8"/>
     <use xlink:href="#m0a9a5df0fd" x="215.045843" y="59.688377" style="fill: #ff0000; fill-opacity: 0.8; stroke: #ff0000; stroke-opacity: 0.8"/>
     <use xlink:href="#m0a9a5df0fd" x="215.845319" y="59.757938" style="fill: #ff0000; fill-opacity: 0.8; stroke: #ff0000; stroke-opacity: 0.8"/>
     <use xlink:href="#m0a9a5df0fd" x="216.644795" y="59.570843" style="fill: #ff0000; fill-opacity: 0.8; stroke: #ff0000; stroke-opacity: 0.8"/>
     <use xlink:href="#m0a9a5df0fd" x="217.388751" y="59.887464" style="fill: #ff0000; fill-opacity: 0.8; stroke: #ff0000; stroke-opacity: 0.8"/>
     <use xlink:href="#m0a9a5df0fd" x="218.199331" y="59.853084" style="fill: #ff0000; fill-opacity: 0.8; stroke: #ff0000; stroke-opacity: 0.8"/>
     <use xlink:href="#m0a9a5df0fd" x="219.00991" y="59.889863" style="fill: #ff0000; fill-opacity: 0.8; stroke: #ff0000; stroke-opacity: 0.8"/>
     <use xlink:href="#m0a9a5df0fd" x="219.849359" y="59.888264" style="fill: #ff0000; fill-opacity: 0.8; stroke: #ff0000; stroke-opacity: 0.8"/>
     <use xlink:href="#m0a9a5df0fd" x="220.606641" y="59.901057" style="fill: #ff0000; fill-opacity: 0.8; stroke: #ff0000; stroke-opacity: 0.8"/>
     <use xlink:href="#m0a9a5df0fd" x="221.443869" y="59.923444" style="fill: #ff0000; fill-opacity: 0.8; stroke: #ff0000; stroke-opacity: 0.8"/>
     <use xlink:href="#m0a9a5df0fd" x="222.246676" y="59.899458" style="fill: #ff0000; fill-opacity: 0.8; stroke: #ff0000; stroke-opacity: 0.8"/>
     <use xlink:href="#m0a9a5df0fd" x="222.991743" y="59.942633" style="fill: #ff0000; fill-opacity: 0.8; stroke: #ff0000; stroke-opacity: 0.8"/>
     <use xlink:href="#m0a9a5df0fd" x="223.756797" y="59.641203" style="fill: #ff0000; fill-opacity: 0.8; stroke: #ff0000; stroke-opacity: 0.8"/>
     <use xlink:href="#m0a9a5df0fd" x="225.614467" y="58.343537" style="fill: #ff0000; fill-opacity: 0.8; stroke: #ff0000; stroke-opacity: 0.8"/>
     <use xlink:href="#m0a9a5df0fd" x="227.237847" y="54.935863" style="fill: #ff0000; fill-opacity: 0.8; stroke: #ff0000; stroke-opacity: 0.8"/>
     <use xlink:href="#m0a9a5df0fd" x="228.800156" y="53.301586" style="fill: #ff0000; fill-opacity: 0.8; stroke: #ff0000; stroke-opacity: 0.8"/>
     <use xlink:href="#m0a9a5df0fd" x="230.351361" y="52.921001" style="fill: #ff0000; fill-opacity: 0.8; stroke: #ff0000; stroke-opacity: 0.8"/>
     <use xlink:href="#m0a9a5df0fd" x="231.932546" y="49.291053" style="fill: #ff0000; fill-opacity: 0.8; stroke: #ff0000; stroke-opacity: 0.8"/>
     <use xlink:href="#m0a9a5df0fd" x="233.477088" y="46.832442" style="fill: #ff0000; fill-opacity: 0.8; stroke: #ff0000; stroke-opacity: 0.8"/>
     <use xlink:href="#m0a9a5df0fd" x="235.050501" y="42.355772" style="fill: #ff0000; fill-opacity: 0.8; stroke: #ff0000; stroke-opacity: 0.8"/>
     <use xlink:href="#m0a9a5df0fd" x="236.698309" y="41.541032" style="fill: #ff0000; fill-opacity: 0.8; stroke: #ff0000; stroke-opacity: 0.8"/>
     <use xlink:href="#m0a9a5df0fd" x="238.424954" y="38.084585" style="fill: #ff0000; fill-opacity: 0.8; stroke: #ff0000; stroke-opacity: 0.8"/>
     <use xlink:href="#m0a9a5df0fd" x="241.451858" y="35.683542" style="fill: #ff0000; fill-opacity: 0.8; stroke: #ff0000; stroke-opacity: 0.8"/>
     <use xlink:href="#m0a9a5df0fd" x="243.018608" y="33.161767" style="fill: #ff0000; fill-opacity: 0.8; stroke: #ff0000; stroke-opacity: 0.8"/>
     <use xlink:href="#m0a9a5df0fd" x="244.716384" y="32.989065" style="fill: #ff0000; fill-opacity: 0.8; stroke: #ff0000; stroke-opacity: 0.8"/>
     <use xlink:href="#m0a9a5df0fd" x="246.350867" y="30.713551" style="fill: #ff0000; fill-opacity: 0.8; stroke: #ff0000; stroke-opacity: 0.8"/>
     <use xlink:href="#m0a9a5df0fd" x="248.009779" y="29.961176" style="fill: #ff0000; fill-opacity: 0.8; stroke: #ff0000; stroke-opacity: 0.8"/>
     <use xlink:href="#m0a9a5df0fd" x="248.793709" y="30.261007" style="fill: #ff0000; fill-opacity: 0.8; stroke: #ff0000; stroke-opacity: 0.8"/>
     <use xlink:href="#m0a9a5df0fd" x="249.486588" y="30.392932" style="fill: #ff0000; fill-opacity: 0.8; stroke: #ff0000; stroke-opacity: 0.8"/>
     <use xlink:href="#m0a9a5df0fd" x="250.388219" y="26.799763" style="fill: #ff0000; fill-opacity: 0.8; stroke: #ff0000; stroke-opacity: 0.8"/>
     <use xlink:href="#m0a9a5df0fd" x="251.219896" y="27.306676" style="fill: #ff0000; fill-opacity: 0.8; stroke: #ff0000; stroke-opacity: 0.8"/>
     <use xlink:href="#m0a9a5df0fd" x="252.755555" y="28.106224" style="fill: #ff0000; fill-opacity: 0.8; stroke: #ff0000; stroke-opacity: 0.8"/>
     <use xlink:href="#m0a9a5df0fd" x="253.513947" y="24.62819" style="fill: #ff0000; fill-opacity: 0.8; stroke: #ff0000; stroke-opacity: 0.8"/>
     <use xlink:href="#m0a9a5df0fd" x="254.292325" y="26.834943" style="fill: #ff0000; fill-opacity: 0.8; stroke: #ff0000; stroke-opacity: 0.8"/>
     <use xlink:href="#m0a9a5df0fd" x="255.278345" y="25.031962" style="fill: #ff0000; fill-opacity: 0.8; stroke: #ff0000; stroke-opacity: 0.8"/>
     <use xlink:href="#m0a9a5df0fd" x="256.085594" y="25.931453" style="fill: #ff0000; fill-opacity: 0.8; stroke: #ff0000; stroke-opacity: 0.8"/>
     <use xlink:href="#m0a9a5df0fd" x="256.877297" y="24.824079" style="fill: #ff0000; fill-opacity: 0.8; stroke: #ff0000; stroke-opacity: 0.8"/>
     <use xlink:href="#m0a9a5df0fd" x="257.534643" y="24.232413" style="fill: #ff0000; fill-opacity: 0.8; stroke: #ff0000; stroke-opacity: 0.8"/>
     <use xlink:href="#m0a9a5df0fd" x="258.469586" y="23.488834" style="fill: #ff0000; fill-opacity: 0.8; stroke: #ff0000; stroke-opacity: 0.8"/>
     <use xlink:href="#m0a9a5df0fd" x="259.777617" y="23.284949" style="fill: #ff0000; fill-opacity: 0.8; stroke: #ff0000; stroke-opacity: 0.8"/>
     <use xlink:href="#m0a9a5df0fd" x="259.883751" y="22.577349" style="fill: #ff0000; fill-opacity: 0.8; stroke: #ff0000; stroke-opacity: 0.8"/>
     <use xlink:href="#m0a9a5df0fd" x="260.865792" y="22.1336" style="fill: #ff0000; fill-opacity: 0.8; stroke: #ff0000; stroke-opacity: 0.8"/>
     <use xlink:href="#m0a9a5df0fd" x="261.581989" y="21.170144" style="fill: #ff0000; fill-opacity: 0.8; stroke: #ff0000; stroke-opacity: 0.8"/>
     <use xlink:href="#m0a9a5df0fd" x="262.348153" y="21.302069" style="fill: #ff0000; fill-opacity: 0.8; stroke: #ff0000; stroke-opacity: 0.8"/>
     <use xlink:href="#m0a9a5df0fd" x="264.383485" y="19.331183" style="fill: #ff0000; fill-opacity: 0.8; stroke: #ff0000; stroke-opacity: 0.8"/>
     <use xlink:href="#m0a9a5df0fd" x="266.253369" y="21.557925" style="fill: #ff0000; fill-opacity: 0.8; stroke: #ff0000; stroke-opacity: 0.8"/>
     <use xlink:href="#m0a9a5df0fd" x="267.605816" y="18.883436" style="fill: #ff0000; fill-opacity: 0.8; stroke: #ff0000; stroke-opacity: 0.8"/>
     <use xlink:href="#m0a9a5df0fd" x="269.262507" y="16.976514" style="fill: #ff0000; fill-opacity: 0.8; stroke: #ff0000; stroke-opacity: 0.8"/>
     <use xlink:href="#m0a9a5df0fd" x="270.906984" y="18.187829" style="fill: #ff0000; fill-opacity: 0.8; stroke: #ff0000; stroke-opacity: 0.8"/>
     <use xlink:href="#m0a9a5df0fd" x="272.738005" y="19.047344" style="fill: #ff0000; fill-opacity: 0.8; stroke: #ff0000; stroke-opacity: 0.8"/>
     <use xlink:href="#m0a9a5df0fd" x="274.49019" y="16.236932" style="fill: #ff0000; fill-opacity: 0.8; stroke: #ff0000; stroke-opacity: 0.8"/>
     <use xlink:href="#m0a9a5df0fd" x="274.903252" y="16.600726" style="fill: #ff0000; fill-opacity: 0.8; stroke: #ff0000; stroke-opacity: 0.8"/>
     <use xlink:href="#m0a9a5df0fd" x="275.717163" y="16.244927" style="fill: #ff0000; fill-opacity: 0.8; stroke: #ff0000; stroke-opacity: 0.8"/>
    </g>
   </g>
   <g id="matplotlib.axis_3">
    <g id="xtick_4">
     <g id="line2d_7">
      <g>
       <use xlink:href="#mfcd8eb0de2" x="212.039822" y="62.3725" style="stroke: #000000; stroke-width: 0.8"/>
      </g>
     </g>
     <g id="text_9">
      <!-- 0 -->
      <g transform="translate(208.789822 78.395312) scale(0.13 -0.13)">
       <use xlink:href="#LMRoman10-Regular-30"/>
      </g>
     </g>
    </g>
    <g id="xtick_5">
     <g id="line2d_8">
      <g>
       <use xlink:href="#mfcd8eb0de2" x="244.018848" y="62.3725" style="stroke: #000000; stroke-width: 0.8"/>
      </g>
     </g>
     <g id="text_10">
      <!-- 20 -->
      <g transform="translate(237.518848 78.395312) scale(0.13 -0.13)">
       <use xlink:href="#LMRoman10-Regular-32"/>
       <use xlink:href="#LMRoman10-Regular-30" x="49.999985"/>
      </g>
     </g>
    </g>
    <g id="xtick_6">
     <g id="line2d_9">
      <g>
       <use xlink:href="#mfcd8eb0de2" x="275.997874" y="62.3725" style="stroke: #000000; stroke-width: 0.8"/>
      </g>
     </g>
     <g id="text_11">
      <!-- 40 -->
      <g transform="translate(269.497874 78.395312) scale(0.13 -0.13)">
       <use xlink:href="#LMRoman10-Regular-34"/>
       <use xlink:href="#LMRoman10-Regular-30" x="49.999985"/>
      </g>
     </g>
    </g>
    <g id="text_12">
     <!-- $t$ [$\text{days}$] -->
     <g transform="translate(220.153492 94.798125) scale(0.13 -0.13)">
      <use xlink:href="#DejaVuSans-Oblique-74" transform="translate(0 0.015625)"/>
      <use xlink:href="#LMRoman10-Regular-20" transform="translate(39.208984 0.015625)"/>
      <use xlink:href="#LMRoman10-Regular-5b" transform="translate(72.508972 0.015625)"/>
      <use xlink:href="#DejaVuSans-64" transform="translate(100.30896 0.015625)"/>
      <use xlink:href="#DejaVuSans-61" transform="translate(163.785522 0.015625)"/>
      <use xlink:href="#DejaVuSans-79" transform="translate(225.064819 0.015625)"/>
      <use xlink:href="#DejaVuSans-73" transform="translate(284.244507 0.015625)"/>
      <use xlink:href="#LMRoman10-Regular-5d" transform="translate(336.344116 0.015625)"/>
     </g>
    </g>
   </g>
   <g id="matplotlib.axis_4">
    <g id="ytick_4">
     <g id="line2d_10">
      <g>
       <use xlink:href="#ma98fbb1e0a" x="208.855955" y="60.175568" style="stroke: #000000; stroke-width: 0.8"/>
      </g>
     </g>
     <g id="text_13">
      <!-- 0.0000 -->
      <g transform="translate(165.742361 64.686974) scale(0.13 -0.13)">
       <use xlink:href="#LMRoman10-Regular-30"/>
       <use xlink:href="#LMRoman10-Regular-2e" x="49.999985"/>
       <use xlink:href="#LMRoman10-Regular-30" x="77.799973"/>
       <use xlink:href="#LMRoman10-Regular-30" x="127.799957"/>
       <use xlink:href="#LMRoman10-Regular-30" x="177.799942"/>
       <use xlink:href="#LMRoman10-Regular-30" x="227.799927"/>
      </g>
     </g>
    </g>
    <g id="ytick_5">
     <g id="line2d_11">
      <g>
       <use xlink:href="#ma98fbb1e0a" x="208.855955" y="40.186864" style="stroke: #000000; stroke-width: 0.8"/>
      </g>
     </g>
     <g id="text_14">
      <!-- 0.0025 -->
      <g transform="translate(165.742361 44.69827) scale(0.13 -0.13)">
       <use xlink:href="#LMRoman10-Regular-30"/>
       <use xlink:href="#LMRoman10-Regular-2e" x="49.999985"/>
       <use xlink:href="#LMRoman10-Regular-30" x="77.799973"/>
       <use xlink:href="#LMRoman10-Regular-30" x="127.799957"/>
       <use xlink:href="#LMRoman10-Regular-32" x="177.799942"/>
       <use xlink:href="#LMRoman10-Regular-35" x="227.799927"/>
      </g>
     </g>
    </g>
    <g id="ytick_6">
     <g id="line2d_12">
      <g>
       <use xlink:href="#ma98fbb1e0a" x="208.855955" y="20.19816" style="stroke: #000000; stroke-width: 0.8"/>
      </g>
     </g>
     <g id="text_15">
      <!-- 0.0050 -->
      <g transform="translate(165.742361 24.709566) scale(0.13 -0.13)">
       <use xlink:href="#LMRoman10-Regular-30"/>
       <use xlink:href="#LMRoman10-Regular-2e" x="49.999985"/>
       <use xlink:href="#LMRoman10-Regular-30" x="77.799973"/>
       <use xlink:href="#LMRoman10-Regular-30" x="127.799957"/>
       <use xlink:href="#LMRoman10-Regular-35" x="177.799942"/>
       <use xlink:href="#LMRoman10-Regular-30" x="227.799927"/>
      </g>
     </g>
    </g>
   </g>
   <g id="patch_8">
    <path d="M 208.855955 62.3725 
L 208.855955 14.04 
" style="fill: none; stroke: #000000; stroke-width: 0.8; stroke-linejoin: miter; stroke-linecap: square"/>
   </g>
   <g id="patch_9">
    <path d="M 278.90103 62.3725 
L 278.90103 14.04 
" style="fill: none; stroke: #000000; stroke-width: 0.8; stroke-linejoin: miter; stroke-linecap: square"/>
   </g>
   <g id="patch_10">
    <path d="M 208.855955 62.3725 
L 278.90103 62.3725 
" style="fill: none; stroke: #000000; stroke-width: 0.8; stroke-linejoin: miter; stroke-linecap: square"/>
   </g>
   <g id="patch_11">
    <path d="M 208.855955 14.04 
L 278.90103 14.04 
" style="fill: none; stroke: #000000; stroke-width: 0.8; stroke-linejoin: miter; stroke-linecap: square"/>
   </g>
  </g>
  <g id="axes_3">
   <g id="patch_12">
    <path d="M 341.12441 62.3725 
L 411.169484 62.3725 
L 411.169484 14.04 
L 341.12441 14.04 
z
" style="fill: #ffffff"/>
   </g>
   <g id="PathCollection_3">
    <g clip-path="url(#p0e78a80854)">
     <use xlink:href="#m0a9a5df0fd" x="344.308277" y="39.399909" style="fill: #ff0000; fill-opacity: 0.8; stroke: #ff0000; stroke-opacity: 0.8"/>
     <use xlink:href="#m0a9a5df0fd" x="347.920858" y="16.236932" style="fill: #ff0000; fill-opacity: 0.8; stroke: #ff0000; stroke-opacity: 0.8"/>
     <use xlink:href="#m0a9a5df0fd" x="351.638939" y="25.616282" style="fill: #ff0000; fill-opacity: 0.8; stroke: #ff0000; stroke-opacity: 0.8"/>
     <use xlink:href="#m0a9a5df0fd" x="354.823126" y="33.331678" style="fill: #ff0000; fill-opacity: 0.8; stroke: #ff0000; stroke-opacity: 0.8"/>
     <use xlink:href="#m0a9a5df0fd" x="357.761146" y="37.333968" style="fill: #ff0000; fill-opacity: 0.8; stroke: #ff0000; stroke-opacity: 0.8"/>
     <use xlink:href="#m0a9a5df0fd" x="361.031651" y="43.012559" style="fill: #ff0000; fill-opacity: 0.8; stroke: #ff0000; stroke-opacity: 0.8"/>
     <use xlink:href="#m0a9a5df0fd" x="364.084762" y="49.103298" style="fill: #ff0000; fill-opacity: 0.8; stroke: #ff0000; stroke-opacity: 0.8"/>
     <use xlink:href="#m0a9a5df0fd" x="367.300918" y="50.39333" style="fill: #ff0000; fill-opacity: 0.8; stroke: #ff0000; stroke-opacity: 0.8"/>
     <use xlink:href="#m0a9a5df0fd" x="370.456332" y="54.591369" style="fill: #ff0000; fill-opacity: 0.8; stroke: #ff0000; stroke-opacity: 0.8"/>
     <use xlink:href="#m0a9a5df0fd" x="373.797171" y="56.936667" style="fill: #ff0000; fill-opacity: 0.8; stroke: #ff0000; stroke-opacity: 0.8"/>
     <use xlink:href="#m0a9a5df0fd" x="377.320237" y="58.806778" style="fill: #ff0000; fill-opacity: 0.8; stroke: #ff0000; stroke-opacity: 0.8"/>
     <use xlink:href="#m0a9a5df0fd" x="380.15915" y="59.443015" style="fill: #ff0000; fill-opacity: 0.8; stroke: #ff0000; stroke-opacity: 0.8"/>
     <use xlink:href="#m0a9a5df0fd" x="382.978882" y="59.980871" style="fill: #ff0000; fill-opacity: 0.8; stroke: #ff0000; stroke-opacity: 0.8"/>
     <use xlink:href="#m0a9a5df0fd" x="385.776235" y="60.155171" style="fill: #ff0000; fill-opacity: 0.8; stroke: #ff0000; stroke-opacity: 0.8"/>
     <use xlink:href="#m0a9a5df0fd" x="388.384966" y="60.175568" style="fill: #ff0000; fill-opacity: 0.8; stroke: #ff0000; stroke-opacity: 0.8"/>
     <use xlink:href="#m0a9a5df0fd" x="391.140758" y="60.175568" style="fill: #ff0000; fill-opacity: 0.8; stroke: #ff0000; stroke-opacity: 0.8"/>
     <use xlink:href="#m0a9a5df0fd" x="394.270596" y="60.175568" style="fill: #ff0000; fill-opacity: 0.8; stroke: #ff0000; stroke-opacity: 0.8"/>
     <use xlink:href="#m0a9a5df0fd" x="397.886375" y="60.175568" style="fill: #ff0000; fill-opacity: 0.8; stroke: #ff0000; stroke-opacity: 0.8"/>
     <use xlink:href="#m0a9a5df0fd" x="401.201637" y="60.175568" style="fill: #ff0000; fill-opacity: 0.8; stroke: #ff0000; stroke-opacity: 0.8"/>
     <use xlink:href="#m0a9a5df0fd" x="404.539279" y="60.175568" style="fill: #ff0000; fill-opacity: 0.8; stroke: #ff0000; stroke-opacity: 0.8"/>
     <use xlink:href="#m0a9a5df0fd" x="407.985617" y="60.175568" style="fill: #ff0000; fill-opacity: 0.8; stroke: #ff0000; stroke-opacity: 0.8"/>
    </g>
   </g>
   <g id="matplotlib.axis_5">
    <g id="xtick_7">
     <g id="line2d_13">
      <g>
       <use xlink:href="#mfcd8eb0de2" x="342.562728" y="62.3725" style="stroke: #000000; stroke-width: 0.8"/>
      </g>
     </g>
     <g id="text_16">
      <!-- 0.00 -->
      <g transform="translate(331.005932 78.395312) scale(0.13 -0.13)">
       <use xlink:href="#LMRoman10-Regular-30"/>
       <use xlink:href="#LMRoman10-Regular-2e" x="49.999985"/>
       <use xlink:href="#LMRoman10-Regular-30" x="77.799973"/>
       <use xlink:href="#LMRoman10-Regular-30" x="127.799957"/>
      </g>
     </g>
    </g>
    <g id="xtick_8">
     <g id="line2d_14">
      <g>
       <use xlink:href="#mfcd8eb0de2" x="374.532475" y="62.3725" style="stroke: #000000; stroke-width: 0.8"/>
      </g>
     </g>
     <g id="text_17">
      <!-- 0.05 -->
      <g transform="translate(362.975678 78.395312) scale(0.13 -0.13)">
       <use xlink:href="#LMRoman10-Regular-30"/>
       <use xlink:href="#LMRoman10-Regular-2e" x="49.999985"/>
       <use xlink:href="#LMRoman10-Regular-30" x="77.799973"/>
       <use xlink:href="#LMRoman10-Regular-35" x="127.799957"/>
      </g>
     </g>
    </g>
    <g id="xtick_9">
     <g id="line2d_15">
      <g>
       <use xlink:href="#mfcd8eb0de2" x="406.502221" y="62.3725" style="stroke: #000000; stroke-width: 0.8"/>
      </g>
     </g>
     <g id="text_18">
      <!-- 0.10 -->
      <g transform="translate(394.945424 78.395312) scale(0.13 -0.13)">
       <defs>
        <path id="LMRoman10-Regular-31" d="M 2682 0 
L 2682 198 
L 2477 198 
C 1901 198 1882 269 1882 506 
L 1882 4096 
C 1882 4250 1882 4262 1734 4262 
C 1338 3853 774 3853 570 3853 
L 570 3654 
C 698 3654 1075 3654 1408 3821 
L 1408 506 
C 1408 275 1389 198 813 198 
L 608 198 
L 608 0 
C 832 19 1389 19 1645 19 
C 1901 19 2458 19 2682 0 
z
" transform="scale(0.015625)"/>
       </defs>
       <use xlink:href="#LMRoman10-Regular-30"/>
       <use xlink:href="#LMRoman10-Regular-2e" x="49.999985"/>
       <use xlink:href="#LMRoman10-Regular-31" x="77.799973"/>
       <use xlink:href="#LMRoman10-Regular-30" x="127.799957"/>
      </g>
     </g>
    </g>
    <g id="text_19">
     <!-- $x$ [$m$] -->
     <g transform="translate(360.156947 94.668125) scale(0.13 -0.13)">
      <defs>
       <path id="DejaVuSans-Oblique-78" d="M 3841 3500 
L 2234 1784 
L 3219 0 
L 2559 0 
L 1819 1388 
L 531 0 
L -166 0 
L 1556 1844 
L 641 3500 
L 1300 3500 
L 1972 2234 
L 3144 3500 
L 3841 3500 
z
" transform="scale(0.015625)"/>
      </defs>
      <use xlink:href="#DejaVuSans-Oblique-78"/>
      <use xlink:href="#LMRoman10-Regular-20" transform="translate(59.179688 0)"/>
      <use xlink:href="#LMRoman10-Regular-5b" transform="translate(92.479675 0)"/>
      <use xlink:href="#DejaVuSans-Oblique-6d" transform="translate(120.279663 0)"/>
      <use xlink:href="#LMRoman10-Regular-5d" transform="translate(217.691772 0)"/>
     </g>
    </g>
   </g>
   <g id="matplotlib.axis_6">
    <g id="ytick_7">
     <g id="line2d_16">
      <g>
       <use xlink:href="#ma98fbb1e0a" x="341.12441" y="60.175568" style="stroke: #000000; stroke-width: 0.8"/>
      </g>
     </g>
     <g id="text_20">
      <!-- 0.0 -->
      <g transform="translate(317.510816 64.686974) scale(0.13 -0.13)">
       <use xlink:href="#LMRoman10-Regular-30"/>
       <use xlink:href="#LMRoman10-Regular-2e" x="49.999985"/>
       <use xlink:href="#LMRoman10-Regular-30" x="77.799973"/>
      </g>
     </g>
    </g>
    <g id="ytick_8">
     <g id="line2d_17">
      <g>
       <use xlink:href="#ma98fbb1e0a" x="341.12441" y="31.487216" style="stroke: #000000; stroke-width: 0.8"/>
      </g>
     </g>
     <g id="text_21">
      <!-- 0.3 -->
      <g transform="translate(317.510816 35.998622) scale(0.13 -0.13)">
       <defs>
        <path id="LMRoman10-Regular-33" d="M 2925 1094 
C 2925 1619 2522 2118 1856 2253 
C 2381 2426 2752 2874 2752 3379 
C 2752 3904 2189 4262 1574 4262 
C 928 4262 442 3878 442 3392 
C 442 3181 582 3059 768 3059 
C 966 3059 1094 3200 1094 3386 
C 1094 3706 794 3706 698 3706 
C 896 4019 1318 4102 1549 4102 
C 1811 4102 2163 3962 2163 3386 
C 2163 3309 2150 2938 1984 2656 
C 1792 2349 1574 2330 1414 2323 
C 1363 2317 1210 2304 1165 2304 
C 1114 2298 1069 2291 1069 2227 
C 1069 2157 1114 2157 1222 2157 
L 1504 2157 
C 2029 2157 2266 1722 2266 1094 
C 2266 224 1824 38 1542 38 
C 1267 38 787 147 563 525 
C 787 493 986 634 986 877 
C 986 1107 813 1235 627 1235 
C 474 1235 269 1146 269 864 
C 269 282 864 -141 1562 -141 
C 2342 -141 2925 442 2925 1094 
z
" transform="scale(0.015625)"/>
       </defs>
       <use xlink:href="#LMRoman10-Regular-30"/>
       <use xlink:href="#LMRoman10-Regular-2e" x="49.999985"/>
       <use xlink:href="#LMRoman10-Regular-33" x="77.799973"/>
      </g>
     </g>
    </g>
    <g id="text_22">
     <!-- $c_t$ [$mg/L$] -->
     <g transform="translate(310.260816 65.83125) rotate(-90) scale(0.13 -0.13)">
      <use xlink:href="#DejaVuSans-Oblique-63"/>
      <use xlink:href="#DejaVuSans-Oblique-74" transform="translate(54.980469 -16.40625) scale(0.7)"/>
      <use xlink:href="#LMRoman10-Regular-20" transform="translate(85.161133 0)"/>
      <use xlink:href="#LMRoman10-Regular-5b" transform="translate(118.461121 0)"/>
      <use xlink:href="#DejaVuSans-Oblique-6d" transform="translate(146.261108 0)"/>
      <use xlink:href="#DejaVuSans-Oblique-67" transform="translate(243.673218 0)"/>
      <use xlink:href="#DejaVuSans-2f" transform="translate(307.14978 0)"/>
      <use xlink:href="#DejaVuSans-Oblique-4c" transform="translate(340.841187 0)"/>
      <use xlink:href="#LMRoman10-Regular-5d" transform="translate(396.554077 0)"/>
     </g>
    </g>
   </g>
   <g id="patch_13">
    <path d="M 341.12441 62.3725 
L 341.12441 14.04 
" style="fill: none; stroke: #000000; stroke-width: 0.8; stroke-linejoin: miter; stroke-linecap: square"/>
   </g>
   <g id="patch_14">
    <path d="M 411.169484 62.3725 
L 411.169484 14.04 
" style="fill: none; stroke: #000000; stroke-width: 0.8; stroke-linejoin: miter; stroke-linecap: square"/>
   </g>
   <g id="patch_15">
    <path d="M 341.12441 62.3725 
L 411.169484 62.3725 
" style="fill: none; stroke: #000000; stroke-width: 0.8; stroke-linejoin: miter; stroke-linecap: square"/>
   </g>
   <g id="patch_16">
    <path d="M 341.12441 14.04 
L 411.169484 14.04 
" style="fill: none; stroke: #000000; stroke-width: 0.8; stroke-linejoin: miter; stroke-linecap: square"/>
   </g>
  </g>
 </g>
 <defs>
  <clipPath id="pa702ee2433">
   <rect x="76.5875" y="14.04" width="70.045075" height="48.3325"/>
  </clipPath>
  <clipPath id="pc3c09270e8">
   <rect x="208.855955" y="14.04" width="70.045075" height="48.3325"/>
  </clipPath>
  <clipPath id="p0e78a80854">
   <rect x="341.12441" y="14.04" width="70.045075" height="48.3325"/>
  </clipPath>
 </defs>
</svg>
