<?xml version="1.0" encoding="utf-8" standalone="no"?>
<!DOCTYPE svg PUBLIC "-//W3C//DTD SVG 1.1//EN"
  "http://www.w3.org/Graphics/SVG/1.1/DTD/svg11.dtd">
<svg xmlns:xlink="http://www.w3.org/1999/xlink" width="324pt" height="135pt" viewBox="0 0 324 135" xmlns="http://www.w3.org/2000/svg" version="1.1">
 <metadata>
  <rdf:RDF xmlns:dc="http://purl.org/dc/elements/1.1/" xmlns:cc="http://creativecommons.org/ns#" xmlns:rdf="http://www.w3.org/1999/02/22-rdf-syntax-ns#">
   <cc:Work>
    <dc:type rdf:resource="http://purl.org/dc/dcmitype/StillImage"/>
    <dc:date>2024-12-09T04:05:35.266479</dc:date>
    <dc:format>image/svg+xml</dc:format>
    <dc:creator>
     <cc:Agent>
      <dc:title>Matplotlib v3.8.4, https://matplotlib.org/</dc:title>
     </cc:Agent>
    </dc:creator>
   </cc:Work>
  </rdf:RDF>
 </metadata>
 <defs>
  <style type="text/css">*{stroke-linejoin: round; stroke-linecap: butt}</style>
 </defs>
 <g id="figure_1">
  <g id="patch_1">
   <path d="M 0 135 
L 324 135 
L 324 0 
L 0 0 
z
" style="fill: #ffffff"/>
  </g>
  <g id="axes_1">
   <g id="patch_2">
    <path d="M 57.2375 83.3425 
L 201.76 83.3425 
L 201.76 14.04 
L 57.2375 14.04 
z
" style="fill: #ffffff"/>
   </g>
   <g id="matplotlib.axis_1">
    <g id="xtick_1">
     <g id="line2d_1">
      <defs>
       <path id="ma1df299033" d="M 0 0 
L 0 3.5 
" style="stroke: #000000; stroke-width: 0.8"/>
      </defs>
      <g>
       <use xlink:href="#ma1df299033" x="63.806705" y="83.3425" style="stroke: #000000; stroke-width: 0.8"/>
      </g>
     </g>
     <g id="text_1">
      <!-- 0.0 -->
      <g transform="translate(55.499908 99.365312) scale(0.13 -0.13)">
       <defs>
        <path id="LMRoman10-Regular-30" d="M 2944 2048 
C 2944 2560 2912 3072 2688 3546 
C 2394 4160 1869 4262 1600 4262 
C 1216 4262 749 4096 486 3501 
C 282 3059 250 2560 250 2048 
C 250 1568 275 992 538 506 
C 813 -13 1280 -141 1594 -141 
C 1939 -141 2426 -6 2707 602 
C 2912 1043 2944 1542 2944 2048 
z
M 2413 2125 
C 2413 1645 2413 1210 2342 800 
C 2246 192 1882 0 1594 0 
C 1344 0 966 160 851 774 
C 781 1158 781 1747 781 2125 
C 781 2534 781 2957 832 3302 
C 954 4064 1434 4122 1594 4122 
C 1805 4122 2227 4006 2349 3373 
C 2413 3014 2413 2528 2413 2125 
z
" transform="scale(0.015625)"/>
        <path id="LMRoman10-Regular-2e" d="M 1229 339 
C 1229 525 1075 678 890 678 
C 704 678 550 525 550 339 
C 550 154 704 0 890 0 
C 1075 0 1229 154 1229 339 
z
" transform="scale(0.015625)"/>
       </defs>
       <use xlink:href="#LMRoman10-Regular-30"/>
       <use xlink:href="#LMRoman10-Regular-2e" x="49.999985"/>
       <use xlink:href="#LMRoman10-Regular-30" x="77.799973"/>
      </g>
     </g>
    </g>
    <g id="xtick_2">
     <g id="line2d_2">
      <g>
       <use xlink:href="#ma1df299033" x="129.49875" y="83.3425" style="stroke: #000000; stroke-width: 0.8"/>
      </g>
     </g>
     <g id="text_2">
      <!-- 0.5 -->
      <g transform="translate(121.191953 99.365312) scale(0.13 -0.13)">
       <defs>
        <path id="LMRoman10-Regular-35" d="M 2874 1286 
C 2874 2048 2349 2688 1658 2688 
C 1350 2688 1075 2586 845 2362 
L 845 3610 
C 973 3571 1184 3526 1389 3526 
C 2176 3526 2624 4109 2624 4192 
C 2624 4230 2605 4262 2560 4262 
C 2560 4262 2541 4262 2509 4243 
C 2381 4186 2067 4058 1638 4058 
C 1382 4058 1088 4102 787 4237 
C 736 4256 710 4256 710 4256 
C 646 4256 646 4205 646 4102 
L 646 2208 
C 646 2093 646 2042 736 2042 
C 781 2042 794 2061 819 2099 
C 890 2202 1126 2547 1645 2547 
C 1978 2547 2138 2253 2189 2138 
C 2291 1901 2304 1651 2304 1331 
C 2304 1107 2304 723 2150 454 
C 1997 205 1760 38 1466 38 
C 998 38 634 378 525 755 
C 544 749 563 742 634 742 
C 845 742 954 902 954 1056 
C 954 1210 845 1370 634 1370 
C 544 1370 320 1325 320 1030 
C 320 480 762 -141 1478 -141 
C 2221 -141 2874 474 2874 1286 
z
" transform="scale(0.015625)"/>
       </defs>
       <use xlink:href="#LMRoman10-Regular-30"/>
       <use xlink:href="#LMRoman10-Regular-2e" x="49.999985"/>
       <use xlink:href="#LMRoman10-Regular-35" x="77.799973"/>
      </g>
     </g>
    </g>
    <g id="xtick_3">
     <g id="line2d_3">
      <g>
       <use xlink:href="#ma1df299033" x="195.190795" y="83.3425" style="stroke: #000000; stroke-width: 0.8"/>
      </g>
     </g>
     <g id="text_3">
      <!-- 1.0 -->
      <g transform="translate(186.883999 99.365312) scale(0.13 -0.13)">
       <defs>
        <path id="LMRoman10-Regular-31" d="M 2682 0 
L 2682 198 
L 2477 198 
C 1901 198 1882 269 1882 506 
L 1882 4096 
C 1882 4250 1882 4262 1734 4262 
C 1338 3853 774 3853 570 3853 
L 570 3654 
C 698 3654 1075 3654 1408 3821 
L 1408 506 
C 1408 275 1389 198 813 198 
L 608 198 
L 608 0 
C 832 19 1389 19 1645 19 
C 1901 19 2458 19 2682 0 
z
" transform="scale(0.015625)"/>
       </defs>
       <use xlink:href="#LMRoman10-Regular-31"/>
       <use xlink:href="#LMRoman10-Regular-2e" x="49.999985"/>
       <use xlink:href="#LMRoman10-Regular-30" x="77.799973"/>
      </g>
     </g>
    </g>
    <g id="text_4">
     <!-- $c$ [$mg/L$] -->
     <g transform="translate(103.82375 115.638125) scale(0.13 -0.13)">
      <defs>
       <path id="DejaVuSans-Oblique-63" d="M 3431 3366 
L 3316 2797 
Q 3109 2947 2876 3022 
Q 2644 3097 2394 3097 
Q 2119 3097 1870 3000 
Q 1622 2903 1453 2725 
Q 1184 2453 1037 2087 
Q 891 1722 891 1331 
Q 891 859 1127 628 
Q 1363 397 1844 397 
Q 2081 397 2348 469 
Q 2616 541 2906 684 
L 2797 116 
Q 2547 13 2283 -39 
Q 2019 -91 1741 -91 
Q 1044 -91 669 257 
Q 294 606 294 1253 
Q 294 1797 489 2255 
Q 684 2713 1069 3078 
Q 1331 3328 1684 3456 
Q 2038 3584 2456 3584 
Q 2700 3584 2940 3529 
Q 3181 3475 3431 3366 
z
" transform="scale(0.015625)"/>
       <path id="LMRoman10-Regular-20" transform="scale(0.015625)"/>
       <path id="LMRoman10-Regular-5b" d="M 1632 -1600 
L 1632 -1344 
L 1011 -1344 
L 1011 4544 
L 1632 4544 
L 1632 4800 
L 755 4800 
L 755 -1600 
L 1632 -1600 
z
" transform="scale(0.015625)"/>
       <path id="DejaVuSans-Oblique-6d" d="M 5747 2113 
L 5338 0 
L 4763 0 
L 5166 2094 
Q 5191 2228 5203 2325 
Q 5216 2422 5216 2491 
Q 5216 2772 5059 2928 
Q 4903 3084 4622 3084 
Q 4203 3084 3875 2770 
Q 3547 2456 3450 1953 
L 3066 0 
L 2491 0 
L 2900 2094 
Q 2925 2209 2937 2307 
Q 2950 2406 2950 2484 
Q 2950 2769 2794 2926 
Q 2638 3084 2363 3084 
Q 1938 3084 1609 2770 
Q 1281 2456 1184 1953 
L 800 0 
L 225 0 
L 909 3500 
L 1484 3500 
L 1375 2956 
Q 1609 3263 1923 3423 
Q 2238 3584 2597 3584 
Q 2978 3584 3223 3384 
Q 3469 3184 3519 2828 
Q 3781 3197 4126 3390 
Q 4472 3584 4856 3584 
Q 5306 3584 5551 3325 
Q 5797 3066 5797 2591 
Q 5797 2488 5784 2364 
Q 5772 2241 5747 2113 
z
" transform="scale(0.015625)"/>
       <path id="DejaVuSans-Oblique-67" d="M 3816 3500 
L 3219 434 
Q 3047 -456 2561 -893 
Q 2075 -1331 1253 -1331 
Q 950 -1331 690 -1286 
Q 431 -1241 206 -1147 
L 313 -588 
Q 525 -725 762 -790 
Q 1000 -856 1269 -856 
Q 1816 -856 2167 -557 
Q 2519 -259 2631 300 
L 2681 563 
Q 2441 288 2122 144 
Q 1803 0 1434 0 
Q 903 0 598 351 
Q 294 703 294 1319 
Q 294 1803 478 2267 
Q 663 2731 997 3091 
Q 1219 3328 1514 3456 
Q 1809 3584 2131 3584 
Q 2484 3584 2746 3420 
Q 3009 3256 3138 2956 
L 3238 3500 
L 3816 3500 
z
M 2950 2216 
Q 2950 2641 2750 2872 
Q 2550 3103 2181 3103 
Q 1953 3103 1747 3012 
Q 1541 2922 1394 2759 
Q 1156 2491 1023 2127 
Q 891 1763 891 1375 
Q 891 944 1092 712 
Q 1294 481 1672 481 
Q 2219 481 2584 976 
Q 2950 1472 2950 2216 
z
" transform="scale(0.015625)"/>
       <path id="DejaVuSans-2f" d="M 1625 4666 
L 2156 4666 
L 531 -594 
L 0 -594 
L 1625 4666 
z
" transform="scale(0.015625)"/>
       <path id="DejaVuSans-Oblique-4c" d="M 1075 4666 
L 1709 4666 
L 909 525 
L 3181 525 
L 3078 0 
L 172 0 
L 1075 4666 
z
" transform="scale(0.015625)"/>
       <path id="LMRoman10-Regular-5d" d="M 1018 -1600 
L 1018 4800 
L 141 4800 
L 141 4544 
L 762 4544 
L 762 -1344 
L 141 -1344 
L 141 -1600 
L 1018 -1600 
z
" transform="scale(0.015625)"/>
      </defs>
      <use xlink:href="#DejaVuSans-Oblique-63"/>
      <use xlink:href="#LMRoman10-Regular-20" transform="translate(54.980469 0)"/>
      <use xlink:href="#LMRoman10-Regular-5b" transform="translate(88.280457 0)"/>
      <use xlink:href="#DejaVuSans-Oblique-6d" transform="translate(116.080444 0)"/>
      <use xlink:href="#DejaVuSans-Oblique-67" transform="translate(213.492554 0)"/>
      <use xlink:href="#DejaVuSans-2f" transform="translate(276.969116 0)"/>
      <use xlink:href="#DejaVuSans-Oblique-4c" transform="translate(310.660522 0)"/>
      <use xlink:href="#LMRoman10-Regular-5d" transform="translate(366.373413 0)"/>
     </g>
    </g>
   </g>
   <g id="matplotlib.axis_2">
    <g id="ytick_1">
     <g id="line2d_4">
      <defs>
       <path id="m7ae383753c" d="M 0 0 
L -3.5 0 
" style="stroke: #000000; stroke-width: 0.8"/>
      </defs>
      <g>
       <use xlink:href="#m7ae383753c" x="57.2375" y="57.935977" style="stroke: #000000; stroke-width: 0.8"/>
      </g>
     </g>
     <g id="text_5">
      <!-- 3.0 -->
      <g transform="translate(33.623906 62.447383) scale(0.13 -0.13)">
       <defs>
        <path id="LMRoman10-Regular-33" d="M 2925 1094 
C 2925 1619 2522 2118 1856 2253 
C 2381 2426 2752 2874 2752 3379 
C 2752 3904 2189 4262 1574 4262 
C 928 4262 442 3878 442 3392 
C 442 3181 582 3059 768 3059 
C 966 3059 1094 3200 1094 3386 
C 1094 3706 794 3706 698 3706 
C 896 4019 1318 4102 1549 4102 
C 1811 4102 2163 3962 2163 3386 
C 2163 3309 2150 2938 1984 2656 
C 1792 2349 1574 2330 1414 2323 
C 1363 2317 1210 2304 1165 2304 
C 1114 2298 1069 2291 1069 2227 
C 1069 2157 1114 2157 1222 2157 
L 1504 2157 
C 2029 2157 2266 1722 2266 1094 
C 2266 224 1824 38 1542 38 
C 1267 38 787 147 563 525 
C 787 493 986 634 986 877 
C 986 1107 813 1235 627 1235 
C 474 1235 269 1146 269 864 
C 269 282 864 -141 1562 -141 
C 2342 -141 2925 442 2925 1094 
z
" transform="scale(0.015625)"/>
       </defs>
       <use xlink:href="#LMRoman10-Regular-33"/>
       <use xlink:href="#LMRoman10-Regular-2e" x="49.999985"/>
       <use xlink:href="#LMRoman10-Regular-30" x="77.799973"/>
      </g>
     </g>
    </g>
    <g id="ytick_2">
     <g id="line2d_5">
      <g>
       <use xlink:href="#m7ae383753c" x="57.2375" y="29.477755" style="stroke: #000000; stroke-width: 0.8"/>
      </g>
     </g>
     <g id="text_6">
      <!-- 4.5 -->
      <g transform="translate(33.623906 33.989162) scale(0.13 -0.13)">
       <defs>
        <path id="LMRoman10-Regular-34" d="M 3014 1056 
L 3014 1254 
L 2374 1254 
L 2374 4166 
C 2374 4294 2374 4333 2272 4333 
C 2214 4333 2195 4333 2144 4256 
L 179 1254 
L 179 1056 
L 1882 1056 
L 1882 499 
C 1882 269 1869 198 1395 198 
L 1261 198 
L 1261 0 
C 1523 19 1856 19 2125 19 
C 2394 19 2733 19 2995 0 
L 2995 198 
L 2861 198 
C 2387 198 2374 269 2374 499 
L 2374 1056 
L 3014 1056 
z
M 1920 1254 
L 358 1254 
L 1920 3642 
L 1920 1254 
z
" transform="scale(0.015625)"/>
       </defs>
       <use xlink:href="#LMRoman10-Regular-34"/>
       <use xlink:href="#LMRoman10-Regular-2e" x="49.999985"/>
       <use xlink:href="#LMRoman10-Regular-35" x="77.799973"/>
      </g>
     </g>
    </g>
    <g id="text_7">
     <!-- $R$ [-] -->
     <g transform="translate(26.373906 61.17125) rotate(-90) scale(0.13 -0.13)">
      <defs>
       <path id="DejaVuSans-Oblique-52" d="M 1613 4147 
L 1294 2491 
L 2106 2491 
Q 2584 2491 2879 2755 
Q 3175 3019 3175 3444 
Q 3175 3784 2976 3965 
Q 2778 4147 2406 4147 
L 1613 4147 
z
M 2772 2241 
Q 2972 2194 3105 2009 
Q 3238 1825 3413 1275 
L 3809 0 
L 3144 0 
L 2778 1197 
Q 2638 1659 2453 1815 
Q 2269 1972 1888 1972 
L 1191 1972 
L 806 0 
L 172 0 
L 1081 4666 
L 2503 4666 
Q 3150 4666 3495 4373 
Q 3841 4081 3841 3531 
Q 3841 3044 3547 2687 
Q 3253 2331 2772 2241 
z
" transform="scale(0.015625)"/>
       <path id="LMRoman10-Regular-2d" d="M 1766 1197 
L 1766 1568 
L 70 1568 
L 70 1197 
L 1766 1197 
z
" transform="scale(0.015625)"/>
      </defs>
      <use xlink:href="#DejaVuSans-Oblique-52"/>
      <use xlink:href="#LMRoman10-Regular-20" transform="translate(69.482422 0)"/>
      <use xlink:href="#LMRoman10-Regular-5b" transform="translate(102.78241 0)"/>
      <use xlink:href="#LMRoman10-Regular-2d" transform="translate(130.582397 0)"/>
      <use xlink:href="#LMRoman10-Regular-5d" transform="translate(163.882385 0)"/>
     </g>
    </g>
   </g>
   <g id="line2d_6">
    <path d="M 63.806705 22.791178 
L 65.133817 23.650589 
L 66.460929 24.510742 
L 67.788041 25.371393 
L 69.115153 26.232233 
L 70.442265 27.093002 
L 71.769377 27.953426 
L 73.096489 28.813217 
L 74.423601 29.672104 
L 75.750713 30.529796 
L 77.077825 31.385996 
L 78.404937 32.24045 
L 79.732049 33.092823 
L 81.059161 33.942871 
L 82.386273 34.790286 
L 83.713385 35.634771 
L 85.040497 36.476053 
L 86.367609 37.313833 
L 87.694721 38.147851 
L 89.021833 38.977802 
L 90.348945 39.803428 
L 91.676057 40.624446 
L 93.003169 41.440587 
L 94.330281 42.251585 
L 95.657393 43.057169 
L 96.984505 43.857094 
L 98.311617 44.651117 
L 99.638729 45.438983 
L 100.965841 46.220453 
L 102.292953 46.995287 
L 103.620065 47.763291 
L 104.947177 48.524239 
L 106.274289 49.277904 
L 107.601402 50.024102 
L 108.928514 50.762632 
L 110.255626 51.493319 
L 111.582738 52.215995 
L 112.90985 52.930475 
L 114.236962 53.636623 
L 115.564074 54.334285 
L 116.891186 55.023339 
L 118.218298 55.703632 
L 119.54541 56.375068 
L 120.872522 57.037538 
L 122.199634 57.690944 
L 123.526746 58.335195 
L 124.853858 58.970214 
L 126.18097 59.595942 
L 127.508082 60.212316 
L 128.835194 60.81929 
L 130.162306 61.41682 
L 131.489418 62.004886 
L 132.81653 62.583463 
L 134.143642 63.152546 
L 135.470754 63.71212 
L 136.797866 64.262205 
L 138.124978 64.802808 
L 139.45209 65.333954 
L 140.779202 65.855673 
L 142.106314 66.36801 
L 143.433426 66.870994 
L 144.760538 67.364691 
L 146.08765 67.849151 
L 147.414762 68.324447 
L 148.741874 68.790651 
L 150.068986 69.247822 
L 151.396098 69.696065 
L 152.723211 70.135446 
L 154.050323 70.566065 
L 155.377435 70.988031 
L 156.704547 71.401421 
L 158.031659 71.806353 
L 159.358771 72.20293 
L 160.685883 72.591261 
L 162.012995 72.971463 
L 163.340107 73.343646 
L 164.667219 73.707935 
L 165.994331 74.06444 
L 167.321443 74.413292 
L 168.648555 74.754607 
L 169.975667 75.088509 
L 171.302779 75.415128 
L 172.629891 75.734596 
L 173.957003 76.047026 
L 175.284115 76.352549 
L 176.611227 76.6513 
L 177.938339 76.943397 
L 179.265451 77.228974 
L 180.592563 77.508151 
L 181.919675 77.781056 
L 183.246787 78.047818 
L 184.573899 78.308558 
L 185.901011 78.563401 
L 187.228123 78.812478 
L 188.555235 79.055895 
L 189.882347 79.293781 
L 191.209459 79.526261 
L 192.536571 79.75344 
L 193.863683 79.975448 
L 195.190795 80.192386 
" clip-path="url(#pe6705e6860)" style="fill: none; stroke: #1f77b4; stroke-opacity: 0.5; stroke-width: 1.5; stroke-linecap: square"/>
   </g>
   <g id="line2d_7">
    <path d="M 63.806705 17.190114 
L 65.133817 18.756039 
L 66.460929 20.275709 
L 67.788041 21.75087 
L 69.115153 23.183295 
L 70.442265 24.574584 
L 71.769377 25.926322 
L 73.096489 27.239991 
L 74.423601 28.516986 
L 75.750713 29.758689 
L 77.077825 30.96635 
L 78.404937 32.141245 
L 79.732049 33.284521 
L 81.059161 34.39731 
L 82.386273 35.480698 
L 83.713385 36.535679 
L 85.040497 37.563285 
L 86.367609 38.564412 
L 87.694721 39.539991 
L 89.021833 40.490854 
L 90.348945 41.417853 
L 91.676057 42.321787 
L 93.003169 43.20339 
L 94.330281 44.063398 
L 95.657393 44.902531 
L 96.984505 45.721432 
L 98.311617 46.520774 
L 99.638729 47.301144 
L 100.965841 48.063155 
L 102.292953 48.80738 
L 103.620065 49.534363 
L 104.947177 50.24464 
L 106.274289 50.938702 
L 107.601402 51.617063 
L 108.928514 52.280167 
L 110.255626 52.928489 
L 111.582738 53.562454 
L 112.90985 54.182482 
L 114.236962 54.788995 
L 115.564074 55.382359 
L 116.891186 55.962962 
L 118.218298 56.531176 
L 119.54541 57.087345 
L 120.872522 57.631798 
L 122.199634 58.164866 
L 123.526746 58.686878 
L 124.853858 59.198117 
L 126.18097 59.698893 
L 127.508082 60.189482 
L 128.835194 60.670156 
L 130.162306 61.141192 
L 131.489418 61.602836 
L 132.81653 62.055344 
L 134.143642 62.498941 
L 135.470754 62.933875 
L 136.797866 63.36036 
L 138.124978 63.778613 
L 139.45209 64.188855 
L 140.779202 64.591285 
L 142.106314 64.986093 
L 143.433426 65.373479 
L 144.760538 65.753622 
L 146.08765 66.12671 
L 147.414762 66.492899 
L 148.741874 66.852376 
L 150.068986 67.205294 
L 151.396098 67.551815 
L 152.723211 67.892095 
L 154.050323 68.226278 
L 155.377435 68.554516 
L 156.704547 68.876938 
L 158.031659 69.193687 
L 159.358771 69.5049 
L 160.685883 69.810699 
L 162.012995 70.11121 
L 163.340107 70.406555 
L 164.667219 70.696857 
L 165.994331 70.982214 
L 167.321443 71.26275 
L 168.648555 71.538582 
L 169.975667 71.80979 
L 171.302779 72.076499 
L 172.629891 72.338801 
L 173.957003 72.596783 
L 175.284115 72.850555 
L 176.611227 73.100197 
L 177.938339 73.345803 
L 179.265451 73.587457 
L 180.592563 73.825243 
L 181.919675 74.059252 
L 183.246787 74.289552 
L 184.573899 74.516224 
L 185.901011 74.739341 
L 187.228123 74.958993 
L 188.555235 75.175225 
L 189.882347 75.388129 
L 191.209459 75.597766 
L 192.536571 75.804201 
L 193.863683 76.007506 
L 195.190795 76.207735 
" clip-path="url(#pe6705e6860)" style="fill: none; stroke-dasharray: 3.7,1.6; stroke-dashoffset: 0; stroke: #000000"/>
   </g>
   <g id="line2d_8">
    <path d="M 63.806705 19.900428 
L 65.133817 21.06557 
L 66.460929 22.220191 
L 67.788041 23.363947 
L 69.115153 24.496494 
L 70.442265 25.617515 
L 71.769377 26.726659 
L 73.096489 27.823661 
L 74.423601 28.908189 
L 75.750713 29.980006 
L 77.077825 31.038814 
L 78.404937 32.084377 
L 79.732049 33.116462 
L 81.059161 34.134849 
L 82.386273 35.139341 
L 83.713385 36.129739 
L 85.040497 37.105888 
L 86.367609 38.067625 
L 87.694721 39.014798 
L 89.021833 39.947315 
L 90.348945 40.865054 
L 91.676057 41.767921 
L 93.003169 42.655847 
L 94.330281 43.52877 
L 95.657393 44.386657 
L 96.984505 45.229472 
L 98.311617 46.057211 
L 99.638729 46.869878 
L 100.965841 47.667488 
L 102.292953 48.450066 
L 103.620065 49.217658 
L 104.947177 49.970333 
L 106.274289 50.708153 
L 107.601402 51.431209 
L 108.928514 52.139592 
L 110.255626 52.833409 
L 111.582738 53.512779 
L 112.90985 54.177819 
L 114.236962 54.828674 
L 115.564074 55.465497 
L 116.891186 56.088434 
L 118.218298 56.697643 
L 119.54541 57.2933 
L 120.872522 57.875582 
L 122.199634 58.444664 
L 123.526746 59.000737 
L 124.853858 59.544001 
L 126.18097 60.07464 
L 127.508082 60.592871 
L 128.835194 61.09889 
L 130.162306 61.592903 
L 131.489418 62.075129 
L 132.81653 62.54578 
L 134.143642 63.005063 
L 135.470754 63.453197 
L 136.797866 63.890402 
L 138.124978 64.316887 
L 139.45209 64.732883 
L 140.779202 65.138606 
L 142.106314 65.53426 
L 143.433426 65.920067 
L 144.760538 66.296252 
L 146.08765 66.663003 
L 147.414762 67.020561 
L 148.741874 67.369119 
L 150.068986 67.708892 
L 151.396098 68.040071 
L 152.723211 68.362882 
L 154.050323 68.67751 
L 155.377435 68.984159 
L 156.704547 69.283018 
L 158.031659 69.574283 
L 159.358771 69.858148 
L 160.685883 70.134781 
L 162.012995 70.404393 
L 163.340107 70.667134 
L 164.667219 70.923203 
L 165.994331 71.172759 
L 167.321443 71.415973 
L 168.648555 71.653012 
L 169.975667 71.884036 
L 171.302779 72.109202 
L 172.629891 72.328673 
L 173.957003 72.54259 
L 175.284115 72.75111 
L 176.611227 72.954369 
L 177.938339 73.152518 
L 179.265451 73.345686 
L 180.592563 73.534009 
L 181.919675 73.717624 
L 183.246787 73.896648 
L 184.573899 74.071216 
L 185.901011 74.241446 
L 187.228123 74.407461 
L 188.555235 74.569359 
L 189.882347 74.727268 
L 191.209459 74.881296 
L 192.536571 75.031538 
L 193.863683 75.178111 
L 195.190795 75.321111 
" clip-path="url(#pe6705e6860)" style="fill: none; stroke: #1f77b4; stroke-opacity: 0.5; stroke-width: 1.5; stroke-linecap: square"/>
   </g>
   <g id="line2d_9">
    <path d="M 63.806705 17.190114 
L 65.133817 18.756039 
L 66.460929 20.275709 
L 67.788041 21.75087 
L 69.115153 23.183295 
L 70.442265 24.574584 
L 71.769377 25.926322 
L 73.096489 27.239991 
L 74.423601 28.516986 
L 75.750713 29.758689 
L 77.077825 30.96635 
L 78.404937 32.141245 
L 79.732049 33.284521 
L 81.059161 34.39731 
L 82.386273 35.480698 
L 83.713385 36.535679 
L 85.040497 37.563285 
L 86.367609 38.564412 
L 87.694721 39.539991 
L 89.021833 40.490854 
L 90.348945 41.417853 
L 91.676057 42.321787 
L 93.003169 43.20339 
L 94.330281 44.063398 
L 95.657393 44.902531 
L 96.984505 45.721432 
L 98.311617 46.520774 
L 99.638729 47.301144 
L 100.965841 48.063155 
L 102.292953 48.80738 
L 103.620065 49.534363 
L 104.947177 50.24464 
L 106.274289 50.938702 
L 107.601402 51.617063 
L 108.928514 52.280167 
L 110.255626 52.928489 
L 111.582738 53.562454 
L 112.90985 54.182482 
L 114.236962 54.788995 
L 115.564074 55.382359 
L 116.891186 55.962962 
L 118.218298 56.531176 
L 119.54541 57.087345 
L 120.872522 57.631798 
L 122.199634 58.164866 
L 123.526746 58.686878 
L 124.853858 59.198117 
L 126.18097 59.698893 
L 127.508082 60.189482 
L 128.835194 60.670156 
L 130.162306 61.141192 
L 131.489418 61.602836 
L 132.81653 62.055344 
L 134.143642 62.498941 
L 135.470754 62.933875 
L 136.797866 63.36036 
L 138.124978 63.778613 
L 139.45209 64.188855 
L 140.779202 64.591285 
L 142.106314 64.986093 
L 143.433426 65.373479 
L 144.760538 65.753622 
L 146.08765 66.12671 
L 147.414762 66.492899 
L 148.741874 66.852376 
L 150.068986 67.205294 
L 151.396098 67.551815 
L 152.723211 67.892095 
L 154.050323 68.226278 
L 155.377435 68.554516 
L 156.704547 68.876938 
L 158.031659 69.193687 
L 159.358771 69.5049 
L 160.685883 69.810699 
L 162.012995 70.11121 
L 163.340107 70.406555 
L 164.667219 70.696857 
L 165.994331 70.982214 
L 167.321443 71.26275 
L 168.648555 71.538582 
L 169.975667 71.80979 
L 171.302779 72.076499 
L 172.629891 72.338801 
L 173.957003 72.596783 
L 175.284115 72.850555 
L 176.611227 73.100197 
L 177.938339 73.345803 
L 179.265451 73.587457 
L 180.592563 73.825243 
L 181.919675 74.059252 
L 183.246787 74.289552 
L 184.573899 74.516224 
L 185.901011 74.739341 
L 187.228123 74.958993 
L 188.555235 75.175225 
L 189.882347 75.388129 
L 191.209459 75.597766 
L 192.536571 75.804201 
L 193.863683 76.007506 
L 195.190795 76.207735 
" clip-path="url(#pe6705e6860)" style="fill: none; stroke-dasharray: 3.7,1.6; stroke-dashoffset: 0; stroke: #000000"/>
   </g>
   <g id="line2d_10">
    <path d="M 63.806705 24.174506 
L 65.133817 25.000572 
L 66.460929 25.829405 
L 67.788041 26.6607 
L 69.115153 27.494129 
L 70.442265 28.329359 
L 71.769377 29.166045 
L 73.096489 30.003817 
L 74.423601 30.842303 
L 75.750713 31.681142 
L 77.077825 32.519936 
L 78.404937 33.358296 
L 79.732049 34.195833 
L 81.059161 35.032148 
L 82.386273 35.866799 
L 83.713385 36.699414 
L 85.040497 37.52955 
L 86.367609 38.356801 
L 87.694721 39.18074 
L 89.021833 40.000939 
L 90.348945 40.816985 
L 91.676057 41.628463 
L 93.003169 42.434938 
L 94.330281 43.236016 
L 95.657393 44.031278 
L 96.984505 44.82032 
L 98.311617 45.602749 
L 99.638729 46.378181 
L 100.965841 47.146235 
L 102.292953 47.90654 
L 103.620065 48.658749 
L 104.947177 49.402504 
L 106.274289 50.137488 
L 107.601402 50.863384 
L 108.928514 51.579881 
L 110.255626 52.286694 
L 111.582738 52.983569 
L 112.90985 53.670249 
L 114.236962 54.346498 
L 115.564074 55.012108 
L 116.891186 55.66688 
L 118.218298 56.310624 
L 119.54541 56.943214 
L 120.872522 57.564491 
L 122.199634 58.174342 
L 123.526746 58.772668 
L 124.853858 59.359395 
L 126.18097 59.934458 
L 127.508082 60.497823 
L 128.835194 61.04945 
L 130.162306 61.589343 
L 131.489418 62.11753 
L 132.81653 62.63402 
L 134.143642 63.138872 
L 135.470754 63.632135 
L 136.797866 64.113885 
L 138.124978 64.584224 
L 139.45209 65.043236 
L 140.779202 65.491058 
L 142.106314 65.927797 
L 143.433426 66.353595 
L 144.760538 66.768599 
L 146.08765 67.172965 
L 147.414762 67.56686 
L 148.741874 67.950446 
L 150.068986 68.323918 
L 151.396098 68.687434 
L 152.723211 69.041202 
L 154.050323 69.38539 
L 155.377435 69.720219 
L 156.704547 70.04587 
L 158.031659 70.362561 
L 159.358771 70.670472 
L 160.685883 70.96982 
L 162.012995 71.260796 
L 163.340107 71.543625 
L 164.667219 71.818489 
L 165.994331 72.085595 
L 167.321443 72.345147 
L 168.648555 72.597331 
L 169.975667 72.842359 
L 171.302779 73.080416 
L 172.629891 73.311702 
L 173.957003 73.536398 
L 175.284115 73.754688 
L 176.611227 73.966759 
L 177.938339 74.172782 
L 179.265451 74.372944 
L 180.592563 74.567414 
L 181.919675 74.756349 
L 183.246787 74.939932 
L 184.573899 75.118304 
L 185.901011 75.291633 
L 187.228123 75.460067 
L 188.555235 75.623762 
L 189.882347 75.782856 
L 191.209459 75.937489 
L 192.536571 76.087799 
L 193.863683 76.233929 
L 195.190795 76.375993 
" clip-path="url(#pe6705e6860)" style="fill: none; stroke: #1f77b4; stroke-opacity: 0.5; stroke-width: 1.5; stroke-linecap: square"/>
   </g>
   <g id="line2d_11">
    <path d="M 63.806705 17.190114 
L 65.133817 18.756039 
L 66.460929 20.275709 
L 67.788041 21.75087 
L 69.115153 23.183295 
L 70.442265 24.574584 
L 71.769377 25.926322 
L 73.096489 27.239991 
L 74.423601 28.516986 
L 75.750713 29.758689 
L 77.077825 30.96635 
L 78.404937 32.141245 
L 79.732049 33.284521 
L 81.059161 34.39731 
L 82.386273 35.480698 
L 83.713385 36.535679 
L 85.040497 37.563285 
L 86.367609 38.564412 
L 87.694721 39.539991 
L 89.021833 40.490854 
L 90.348945 41.417853 
L 91.676057 42.321787 
L 93.003169 43.20339 
L 94.330281 44.063398 
L 95.657393 44.902531 
L 96.984505 45.721432 
L 98.311617 46.520774 
L 99.638729 47.301144 
L 100.965841 48.063155 
L 102.292953 48.80738 
L 103.620065 49.534363 
L 104.947177 50.24464 
L 106.274289 50.938702 
L 107.601402 51.617063 
L 108.928514 52.280167 
L 110.255626 52.928489 
L 111.582738 53.562454 
L 112.90985 54.182482 
L 114.236962 54.788995 
L 115.564074 55.382359 
L 116.891186 55.962962 
L 118.218298 56.531176 
L 119.54541 57.087345 
L 120.872522 57.631798 
L 122.199634 58.164866 
L 123.526746 58.686878 
L 124.853858 59.198117 
L 126.18097 59.698893 
L 127.508082 60.189482 
L 128.835194 60.670156 
L 130.162306 61.141192 
L 131.489418 61.602836 
L 132.81653 62.055344 
L 134.143642 62.498941 
L 135.470754 62.933875 
L 136.797866 63.36036 
L 138.124978 63.778613 
L 139.45209 64.188855 
L 140.779202 64.591285 
L 142.106314 64.986093 
L 143.433426 65.373479 
L 144.760538 65.753622 
L 146.08765 66.12671 
L 147.414762 66.492899 
L 148.741874 66.852376 
L 150.068986 67.205294 
L 151.396098 67.551815 
L 152.723211 67.892095 
L 154.050323 68.226278 
L 155.377435 68.554516 
L 156.704547 68.876938 
L 158.031659 69.193687 
L 159.358771 69.5049 
L 160.685883 69.810699 
L 162.012995 70.11121 
L 163.340107 70.406555 
L 164.667219 70.696857 
L 165.994331 70.982214 
L 167.321443 71.26275 
L 168.648555 71.538582 
L 169.975667 71.80979 
L 171.302779 72.076499 
L 172.629891 72.338801 
L 173.957003 72.596783 
L 175.284115 72.850555 
L 176.611227 73.100197 
L 177.938339 73.345803 
L 179.265451 73.587457 
L 180.592563 73.825243 
L 181.919675 74.059252 
L 183.246787 74.289552 
L 184.573899 74.516224 
L 185.901011 74.739341 
L 187.228123 74.958993 
L 188.555235 75.175225 
L 189.882347 75.388129 
L 191.209459 75.597766 
L 192.536571 75.804201 
L 193.863683 76.007506 
L 195.190795 76.207735 
" clip-path="url(#pe6705e6860)" style="fill: none; stroke-dasharray: 3.7,1.6; stroke-dashoffset: 0; stroke: #000000"/>
   </g>
   <g id="line2d_12">
    <path d="M 63.806705 27.591344 
L 65.133817 28.250273 
L 66.460929 28.911545 
L 67.788041 29.574979 
L 69.115153 30.240395 
L 70.442265 30.90762 
L 71.769377 31.576473 
L 73.096489 32.246737 
L 74.423601 32.918241 
L 75.750713 33.590803 
L 77.077825 34.26418 
L 78.404937 34.938199 
L 79.732049 35.612652 
L 81.059161 36.287313 
L 82.386273 36.961974 
L 83.713385 37.636445 
L 85.040497 38.310473 
L 86.367609 38.983876 
L 87.694721 39.656421 
L 89.021833 40.327893 
L 90.348945 40.998071 
L 91.676057 41.666744 
L 93.003169 42.33367 
L 94.330281 42.998651 
L 95.657393 43.661484 
L 96.984505 44.321919 
L 98.311617 44.979762 
L 99.638729 45.634806 
L 100.965841 46.286823 
L 102.292953 46.935602 
L 103.620065 47.580975 
L 104.947177 48.222692 
L 106.274289 48.860579 
L 107.601402 49.494467 
L 108.928514 50.12413 
L 110.255626 50.749388 
L 111.582738 51.370072 
L 112.90985 51.985998 
L 114.236962 52.597003 
L 115.564074 53.202918 
L 116.891186 53.803592 
L 118.218298 54.398855 
L 119.54541 54.988573 
L 120.872522 55.572596 
L 122.199634 56.150811 
L 123.526746 56.723069 
L 124.853858 57.289256 
L 126.18097 57.84926 
L 127.508082 58.402977 
L 128.835194 58.950293 
L 130.162306 59.491128 
L 131.489418 60.025399 
L 132.81653 60.553016 
L 134.143642 61.073916 
L 135.470754 61.588031 
L 136.797866 62.095298 
L 138.124978 62.595672 
L 139.45209 63.089111 
L 140.779202 63.575575 
L 142.106314 64.055028 
L 143.433426 64.527456 
L 144.760538 64.992842 
L 146.08765 65.451157 
L 147.414762 65.902421 
L 148.741874 66.346611 
L 150.068986 66.783752 
L 151.396098 67.213852 
L 152.723211 67.636922 
L 154.050323 68.052985 
L 155.377435 68.462073 
L 156.704547 68.864218 
L 158.031659 69.259461 
L 159.358771 69.647842 
L 160.685883 70.029397 
L 162.012995 70.404189 
L 163.340107 70.772256 
L 164.667219 71.133677 
L 165.994331 71.488495 
L 167.321443 71.836781 
L 168.648555 72.178603 
L 169.975667 72.514025 
L 171.302779 72.843114 
L 172.629891 73.165965 
L 173.957003 73.482629 
L 175.284115 73.793204 
L 176.611227 74.09775 
L 177.938339 74.396365 
L 179.265451 74.689132 
L 180.592563 74.976123 
L 181.919675 75.257432 
L 183.246787 75.533137 
L 184.573899 75.803333 
L 185.901011 76.068109 
L 187.228123 76.327548 
L 188.555235 76.581736 
L 189.882347 76.830762 
L 191.209459 77.074718 
L 192.536571 77.313691 
L 193.863683 77.547771 
L 195.190795 77.777042 
" clip-path="url(#pe6705e6860)" style="fill: none; stroke: #1f77b4; stroke-opacity: 0.5; stroke-width: 1.5; stroke-linecap: square"/>
   </g>
   <g id="line2d_13">
    <path d="M 63.806705 17.190114 
L 65.133817 18.756039 
L 66.460929 20.275709 
L 67.788041 21.75087 
L 69.115153 23.183295 
L 70.442265 24.574584 
L 71.769377 25.926322 
L 73.096489 27.239991 
L 74.423601 28.516986 
L 75.750713 29.758689 
L 77.077825 30.96635 
L 78.404937 32.141245 
L 79.732049 33.284521 
L 81.059161 34.39731 
L 82.386273 35.480698 
L 83.713385 36.535679 
L 85.040497 37.563285 
L 86.367609 38.564412 
L 87.694721 39.539991 
L 89.021833 40.490854 
L 90.348945 41.417853 
L 91.676057 42.321787 
L 93.003169 43.20339 
L 94.330281 44.063398 
L 95.657393 44.902531 
L 96.984505 45.721432 
L 98.311617 46.520774 
L 99.638729 47.301144 
L 100.965841 48.063155 
L 102.292953 48.80738 
L 103.620065 49.534363 
L 104.947177 50.24464 
L 106.274289 50.938702 
L 107.601402 51.617063 
L 108.928514 52.280167 
L 110.255626 52.928489 
L 111.582738 53.562454 
L 112.90985 54.182482 
L 114.236962 54.788995 
L 115.564074 55.382359 
L 116.891186 55.962962 
L 118.218298 56.531176 
L 119.54541 57.087345 
L 120.872522 57.631798 
L 122.199634 58.164866 
L 123.526746 58.686878 
L 124.853858 59.198117 
L 126.18097 59.698893 
L 127.508082 60.189482 
L 128.835194 60.670156 
L 130.162306 61.141192 
L 131.489418 61.602836 
L 132.81653 62.055344 
L 134.143642 62.498941 
L 135.470754 62.933875 
L 136.797866 63.36036 
L 138.124978 63.778613 
L 139.45209 64.188855 
L 140.779202 64.591285 
L 142.106314 64.986093 
L 143.433426 65.373479 
L 144.760538 65.753622 
L 146.08765 66.12671 
L 147.414762 66.492899 
L 148.741874 66.852376 
L 150.068986 67.205294 
L 151.396098 67.551815 
L 152.723211 67.892095 
L 154.050323 68.226278 
L 155.377435 68.554516 
L 156.704547 68.876938 
L 158.031659 69.193687 
L 159.358771 69.5049 
L 160.685883 69.810699 
L 162.012995 70.11121 
L 163.340107 70.406555 
L 164.667219 70.696857 
L 165.994331 70.982214 
L 167.321443 71.26275 
L 168.648555 71.538582 
L 169.975667 71.80979 
L 171.302779 72.076499 
L 172.629891 72.338801 
L 173.957003 72.596783 
L 175.284115 72.850555 
L 176.611227 73.100197 
L 177.938339 73.345803 
L 179.265451 73.587457 
L 180.592563 73.825243 
L 181.919675 74.059252 
L 183.246787 74.289552 
L 184.573899 74.516224 
L 185.901011 74.739341 
L 187.228123 74.958993 
L 188.555235 75.175225 
L 189.882347 75.388129 
L 191.209459 75.597766 
L 192.536571 75.804201 
L 193.863683 76.007506 
L 195.190795 76.207735 
" clip-path="url(#pe6705e6860)" style="fill: none; stroke-dasharray: 3.7,1.6; stroke-dashoffset: 0; stroke: #000000"/>
   </g>
   <g id="line2d_14">
    <path d="M 63.806705 20.546954 
L 65.133817 21.611842 
L 66.460929 22.671093 
L 67.788041 23.724391 
L 69.115153 24.771339 
L 70.442265 25.811611 
L 71.769377 26.844835 
L 73.096489 27.870686 
L 74.423601 28.888829 
L 75.750713 29.898939 
L 77.077825 30.900681 
L 78.404937 31.893765 
L 79.732049 32.877866 
L 81.059161 33.852712 
L 82.386273 34.818005 
L 83.713385 35.773492 
L 85.040497 36.718891 
L 86.367609 37.653959 
L 87.694721 38.578461 
L 89.021833 39.492166 
L 90.348945 40.394856 
L 91.676057 41.286338 
L 93.003169 42.166411 
L 94.330281 43.034923 
L 95.657393 43.891689 
L 96.984505 44.736562 
L 98.311617 45.569412 
L 99.638729 46.390127 
L 100.965841 47.198578 
L 102.292953 47.994681 
L 103.620065 48.778359 
L 104.947177 49.549525 
L 106.274289 50.308143 
L 107.601402 51.054164 
L 108.928514 51.787556 
L 110.255626 52.508309 
L 111.582738 53.216407 
L 112.90985 53.911857 
L 114.236962 54.594696 
L 115.564074 55.264934 
L 116.891186 55.922623 
L 118.218298 56.56782 
L 119.54541 57.200572 
L 120.872522 57.820963 
L 122.199634 58.429063 
L 123.526746 59.024982 
L 124.853858 59.608797 
L 126.18097 60.180625 
L 127.508082 60.740589 
L 128.835194 61.288792 
L 130.162306 61.825374 
L 131.489418 62.350467 
L 132.81653 62.864212 
L 134.143642 63.366756 
L 135.470754 63.858241 
L 136.797866 64.338839 
L 138.124978 64.808693 
L 139.45209 65.267963 
L 140.779202 65.71683 
L 142.106314 66.15546 
L 143.433426 66.584012 
L 144.760538 67.002667 
L 146.08765 67.411597 
L 147.414762 67.810974 
L 148.741874 68.200988 
L 150.068986 68.581805 
L 151.396098 68.953604 
L 152.723211 69.316572 
L 154.050323 69.67087 
L 155.377435 70.016686 
L 156.704547 70.354202 
L 158.031659 70.683585 
L 159.358771 71.005012 
L 160.685883 71.318649 
L 162.012995 71.624687 
L 163.340107 71.92328 
L 164.667219 72.214604 
L 165.994331 72.498822 
L 167.321443 72.776092 
L 168.648555 73.046591 
L 169.975667 73.310467 
L 171.302779 73.567889 
L 172.629891 73.819001 
L 173.957003 74.063961 
L 175.284115 74.302918 
L 176.611227 74.536018 
L 177.938339 74.763409 
L 179.265451 74.985233 
L 180.592563 75.201628 
L 181.919675 75.412735 
L 183.246787 75.618677 
L 184.573899 75.819598 
L 185.901011 76.015616 
L 187.228123 76.206862 
L 188.555235 76.393453 
L 189.882347 76.575521 
L 191.209459 76.753174 
L 192.536571 76.926534 
L 193.863683 77.095695 
L 195.190795 77.260787 
" clip-path="url(#pe6705e6860)" style="fill: none; stroke: #1f77b4; stroke-opacity: 0.5; stroke-width: 1.5; stroke-linecap: square"/>
   </g>
   <g id="line2d_15">
    <path d="M 63.806705 17.190114 
L 65.133817 18.756039 
L 66.460929 20.275709 
L 67.788041 21.75087 
L 69.115153 23.183295 
L 70.442265 24.574584 
L 71.769377 25.926322 
L 73.096489 27.239991 
L 74.423601 28.516986 
L 75.750713 29.758689 
L 77.077825 30.96635 
L 78.404937 32.141245 
L 79.732049 33.284521 
L 81.059161 34.39731 
L 82.386273 35.480698 
L 83.713385 36.535679 
L 85.040497 37.563285 
L 86.367609 38.564412 
L 87.694721 39.539991 
L 89.021833 40.490854 
L 90.348945 41.417853 
L 91.676057 42.321787 
L 93.003169 43.20339 
L 94.330281 44.063398 
L 95.657393 44.902531 
L 96.984505 45.721432 
L 98.311617 46.520774 
L 99.638729 47.301144 
L 100.965841 48.063155 
L 102.292953 48.80738 
L 103.620065 49.534363 
L 104.947177 50.24464 
L 106.274289 50.938702 
L 107.601402 51.617063 
L 108.928514 52.280167 
L 110.255626 52.928489 
L 111.582738 53.562454 
L 112.90985 54.182482 
L 114.236962 54.788995 
L 115.564074 55.382359 
L 116.891186 55.962962 
L 118.218298 56.531176 
L 119.54541 57.087345 
L 120.872522 57.631798 
L 122.199634 58.164866 
L 123.526746 58.686878 
L 124.853858 59.198117 
L 126.18097 59.698893 
L 127.508082 60.189482 
L 128.835194 60.670156 
L 130.162306 61.141192 
L 131.489418 61.602836 
L 132.81653 62.055344 
L 134.143642 62.498941 
L 135.470754 62.933875 
L 136.797866 63.36036 
L 138.124978 63.778613 
L 139.45209 64.188855 
L 140.779202 64.591285 
L 142.106314 64.986093 
L 143.433426 65.373479 
L 144.760538 65.753622 
L 146.08765 66.12671 
L 147.414762 66.492899 
L 148.741874 66.852376 
L 150.068986 67.205294 
L 151.396098 67.551815 
L 152.723211 67.892095 
L 154.050323 68.226278 
L 155.377435 68.554516 
L 156.704547 68.876938 
L 158.031659 69.193687 
L 159.358771 69.5049 
L 160.685883 69.810699 
L 162.012995 70.11121 
L 163.340107 70.406555 
L 164.667219 70.696857 
L 165.994331 70.982214 
L 167.321443 71.26275 
L 168.648555 71.538582 
L 169.975667 71.80979 
L 171.302779 72.076499 
L 172.629891 72.338801 
L 173.957003 72.596783 
L 175.284115 72.850555 
L 176.611227 73.100197 
L 177.938339 73.345803 
L 179.265451 73.587457 
L 180.592563 73.825243 
L 181.919675 74.059252 
L 183.246787 74.289552 
L 184.573899 74.516224 
L 185.901011 74.739341 
L 187.228123 74.958993 
L 188.555235 75.175225 
L 189.882347 75.388129 
L 191.209459 75.597766 
L 192.536571 75.804201 
L 193.863683 76.007506 
L 195.190795 76.207735 
" clip-path="url(#pe6705e6860)" style="fill: none; stroke-dasharray: 3.7,1.6; stroke-dashoffset: 0; stroke: #000000"/>
   </g>
   <g id="line2d_16">
    <path d="M 63.806705 19.996485 
L 65.133817 21.145135 
L 66.460929 22.282721 
L 67.788041 23.408908 
L 69.115153 24.523353 
L 70.442265 25.625757 
L 71.769377 26.715812 
L 73.096489 27.793219 
L 74.423601 28.857718 
L 75.750713 29.909053 
L 77.077825 30.946972 
L 78.404937 31.97124 
L 79.732049 32.981649 
L 81.059161 33.978008 
L 82.386273 34.960128 
L 83.713385 35.927845 
L 85.040497 36.881016 
L 86.367609 37.819503 
L 87.694721 38.743191 
L 89.021833 39.651992 
L 90.348945 40.545812 
L 91.676057 41.424584 
L 93.003169 42.288251 
L 94.330281 43.136798 
L 95.657393 43.970186 
L 96.984505 44.788422 
L 98.311617 45.591513 
L 99.638729 46.379483 
L 100.965841 47.152382 
L 102.292953 47.910249 
L 103.620065 48.653149 
L 104.947177 49.381172 
L 106.274289 50.094408 
L 107.601402 50.792947 
L 108.928514 51.476922 
L 110.255626 52.14644 
L 111.582738 52.801646 
L 112.90985 53.442681 
L 114.236962 54.069689 
L 115.564074 54.682847 
L 116.891186 55.282308 
L 118.218298 55.868258 
L 119.54541 56.440882 
L 120.872522 57.000361 
L 122.199634 57.546882 
L 123.526746 58.08066 
L 124.853858 58.60189 
L 126.18097 59.110781 
L 127.508082 59.607531 
L 128.835194 60.092367 
L 130.162306 60.565505 
L 131.489418 61.02715 
L 132.81653 61.477531 
L 134.143642 61.916872 
L 135.470754 62.34537 
L 136.797866 62.763265 
L 138.124978 63.170775 
L 139.45209 63.568121 
L 140.779202 63.955515 
L 142.106314 64.333176 
L 143.433426 64.701328 
L 144.760538 65.060176 
L 146.08765 65.409946 
L 147.414762 65.750836 
L 148.741874 66.083064 
L 150.068986 66.406834 
L 151.396098 66.722344 
L 152.723211 67.029807 
L 154.050323 67.329409 
L 155.377435 67.621348 
L 156.704547 67.905819 
L 158.031659 68.183012 
L 159.358771 68.453113 
L 160.685883 68.716293 
L 162.012995 68.972746 
L 163.340107 69.222632 
L 164.667219 69.466131 
L 165.994331 69.703415 
L 167.321443 69.934638 
L 168.648555 70.159971 
L 169.975667 70.379555 
L 171.302779 70.593567 
L 172.629891 70.802137 
L 173.957003 71.005423 
L 175.284115 71.203563 
L 176.611227 71.396694 
L 177.938339 71.584964 
L 179.265451 71.768488 
L 180.592563 71.947417 
L 181.919675 72.121854 
L 183.246787 72.291939 
L 184.573899 72.457778 
L 185.901011 72.619504 
L 187.228123 72.777218 
L 188.555235 72.931029 
L 189.882347 73.081058 
L 191.209459 73.227397 
L 192.536571 73.370143 
L 193.863683 73.509407 
L 195.190795 73.645283 
" clip-path="url(#pe6705e6860)" style="fill: none; stroke: #1f77b4; stroke-opacity: 0.5; stroke-width: 1.5; stroke-linecap: square"/>
   </g>
   <g id="line2d_17">
    <path d="M 63.806705 17.190114 
L 65.133817 18.756039 
L 66.460929 20.275709 
L 67.788041 21.75087 
L 69.115153 23.183295 
L 70.442265 24.574584 
L 71.769377 25.926322 
L 73.096489 27.239991 
L 74.423601 28.516986 
L 75.750713 29.758689 
L 77.077825 30.96635 
L 78.404937 32.141245 
L 79.732049 33.284521 
L 81.059161 34.39731 
L 82.386273 35.480698 
L 83.713385 36.535679 
L 85.040497 37.563285 
L 86.367609 38.564412 
L 87.694721 39.539991 
L 89.021833 40.490854 
L 90.348945 41.417853 
L 91.676057 42.321787 
L 93.003169 43.20339 
L 94.330281 44.063398 
L 95.657393 44.902531 
L 96.984505 45.721432 
L 98.311617 46.520774 
L 99.638729 47.301144 
L 100.965841 48.063155 
L 102.292953 48.80738 
L 103.620065 49.534363 
L 104.947177 50.24464 
L 106.274289 50.938702 
L 107.601402 51.617063 
L 108.928514 52.280167 
L 110.255626 52.928489 
L 111.582738 53.562454 
L 112.90985 54.182482 
L 114.236962 54.788995 
L 115.564074 55.382359 
L 116.891186 55.962962 
L 118.218298 56.531176 
L 119.54541 57.087345 
L 120.872522 57.631798 
L 122.199634 58.164866 
L 123.526746 58.686878 
L 124.853858 59.198117 
L 126.18097 59.698893 
L 127.508082 60.189482 
L 128.835194 60.670156 
L 130.162306 61.141192 
L 131.489418 61.602836 
L 132.81653 62.055344 
L 134.143642 62.498941 
L 135.470754 62.933875 
L 136.797866 63.36036 
L 138.124978 63.778613 
L 139.45209 64.188855 
L 140.779202 64.591285 
L 142.106314 64.986093 
L 143.433426 65.373479 
L 144.760538 65.753622 
L 146.08765 66.12671 
L 147.414762 66.492899 
L 148.741874 66.852376 
L 150.068986 67.205294 
L 151.396098 67.551815 
L 152.723211 67.892095 
L 154.050323 68.226278 
L 155.377435 68.554516 
L 156.704547 68.876938 
L 158.031659 69.193687 
L 159.358771 69.5049 
L 160.685883 69.810699 
L 162.012995 70.11121 
L 163.340107 70.406555 
L 164.667219 70.696857 
L 165.994331 70.982214 
L 167.321443 71.26275 
L 168.648555 71.538582 
L 169.975667 71.80979 
L 171.302779 72.076499 
L 172.629891 72.338801 
L 173.957003 72.596783 
L 175.284115 72.850555 
L 176.611227 73.100197 
L 177.938339 73.345803 
L 179.265451 73.587457 
L 180.592563 73.825243 
L 181.919675 74.059252 
L 183.246787 74.289552 
L 184.573899 74.516224 
L 185.901011 74.739341 
L 187.228123 74.958993 
L 188.555235 75.175225 
L 189.882347 75.388129 
L 191.209459 75.597766 
L 192.536571 75.804201 
L 193.863683 76.007506 
L 195.190795 76.207735 
" clip-path="url(#pe6705e6860)" style="fill: none; stroke-dasharray: 3.7,1.6; stroke-dashoffset: 0; stroke: #000000"/>
   </g>
   <g id="line2d_18">
    <path d="M 63.806705 20.330532 
L 65.133817 21.453743 
L 66.460929 22.568187 
L 67.788041 23.67354 
L 69.115153 24.769439 
L 70.442265 25.855541 
L 71.769377 26.931519 
L 73.096489 27.99704 
L 74.423601 29.051822 
L 75.750713 30.095549 
L 77.077825 31.127941 
L 78.404937 32.148717 
L 79.732049 33.157633 
L 81.059161 34.154426 
L 82.386273 35.138871 
L 83.713385 36.11075 
L 85.040497 37.069855 
L 86.367609 38.015996 
L 87.694721 38.94902 
L 89.021833 39.868718 
L 90.348945 40.774991 
L 91.676057 41.667693 
L 93.003169 42.5467 
L 94.330281 43.41191 
L 95.657393 44.263256 
L 96.984505 45.100662 
L 98.311617 45.924063 
L 99.638729 46.733424 
L 100.965841 47.528717 
L 102.292953 48.309929 
L 103.620065 49.077065 
L 104.947177 49.830133 
L 106.274289 50.569161 
L 107.601402 51.294198 
L 108.928514 52.005285 
L 110.255626 52.702491 
L 111.582738 53.385891 
L 112.90985 54.055563 
L 114.236962 54.711624 
L 115.564074 55.354174 
L 116.891186 55.983317 
L 118.218298 56.599184 
L 119.54541 57.201911 
L 120.872522 57.791638 
L 122.199634 58.368519 
L 123.526746 58.932702 
L 124.853858 59.484347 
L 126.18097 60.023639 
L 127.508082 60.550741 
L 128.835194 61.065815 
L 130.162306 61.56907 
L 131.489418 62.060677 
L 132.81653 62.540827 
L 134.143642 63.009713 
L 135.470754 63.467531 
L 136.797866 63.914484 
L 138.124978 64.350758 
L 139.45209 64.77656 
L 140.779202 65.192094 
L 142.106314 65.597564 
L 143.433426 65.993159 
L 144.760538 66.379079 
L 146.08765 66.755545 
L 147.414762 67.122739 
L 148.741874 67.480872 
L 150.068986 67.83013 
L 151.396098 68.170727 
L 152.723211 68.502842 
L 154.050323 68.826679 
L 155.377435 69.142425 
L 156.704547 69.450272 
L 158.031659 69.750399 
L 159.358771 70.042998 
L 160.685883 70.328247 
L 162.012995 70.606331 
L 163.340107 70.877414 
L 164.667219 71.141684 
L 165.994331 71.3993 
L 167.321443 71.650434 
L 168.648555 71.895249 
L 169.975667 72.133908 
L 171.302779 72.36657 
L 172.629891 72.593382 
L 173.957003 72.814509 
L 175.284115 73.030081 
L 176.611227 73.240261 
L 177.938339 73.445181 
L 179.265451 73.64498 
L 180.592563 73.839799 
L 181.919675 74.02976 
L 183.246787 74.215003 
L 184.573899 74.395651 
L 185.901011 74.571825 
L 187.228123 74.743643 
L 188.555235 74.911227 
L 189.882347 75.07469 
L 191.209459 75.234137 
L 192.536571 75.389685 
L 193.863683 75.541433 
L 195.190795 75.689485 
" clip-path="url(#pe6705e6860)" style="fill: none; stroke: #1f77b4; stroke-opacity: 0.5; stroke-width: 1.5; stroke-linecap: square"/>
   </g>
   <g id="line2d_19">
    <path d="M 63.806705 17.190114 
L 65.133817 18.756039 
L 66.460929 20.275709 
L 67.788041 21.75087 
L 69.115153 23.183295 
L 70.442265 24.574584 
L 71.769377 25.926322 
L 73.096489 27.239991 
L 74.423601 28.516986 
L 75.750713 29.758689 
L 77.077825 30.96635 
L 78.404937 32.141245 
L 79.732049 33.284521 
L 81.059161 34.39731 
L 82.386273 35.480698 
L 83.713385 36.535679 
L 85.040497 37.563285 
L 86.367609 38.564412 
L 87.694721 39.539991 
L 89.021833 40.490854 
L 90.348945 41.417853 
L 91.676057 42.321787 
L 93.003169 43.20339 
L 94.330281 44.063398 
L 95.657393 44.902531 
L 96.984505 45.721432 
L 98.311617 46.520774 
L 99.638729 47.301144 
L 100.965841 48.063155 
L 102.292953 48.80738 
L 103.620065 49.534363 
L 104.947177 50.24464 
L 106.274289 50.938702 
L 107.601402 51.617063 
L 108.928514 52.280167 
L 110.255626 52.928489 
L 111.582738 53.562454 
L 112.90985 54.182482 
L 114.236962 54.788995 
L 115.564074 55.382359 
L 116.891186 55.962962 
L 118.218298 56.531176 
L 119.54541 57.087345 
L 120.872522 57.631798 
L 122.199634 58.164866 
L 123.526746 58.686878 
L 124.853858 59.198117 
L 126.18097 59.698893 
L 127.508082 60.189482 
L 128.835194 60.670156 
L 130.162306 61.141192 
L 131.489418 61.602836 
L 132.81653 62.055344 
L 134.143642 62.498941 
L 135.470754 62.933875 
L 136.797866 63.36036 
L 138.124978 63.778613 
L 139.45209 64.188855 
L 140.779202 64.591285 
L 142.106314 64.986093 
L 143.433426 65.373479 
L 144.760538 65.753622 
L 146.08765 66.12671 
L 147.414762 66.492899 
L 148.741874 66.852376 
L 150.068986 67.205294 
L 151.396098 67.551815 
L 152.723211 67.892095 
L 154.050323 68.226278 
L 155.377435 68.554516 
L 156.704547 68.876938 
L 158.031659 69.193687 
L 159.358771 69.5049 
L 160.685883 69.810699 
L 162.012995 70.11121 
L 163.340107 70.406555 
L 164.667219 70.696857 
L 165.994331 70.982214 
L 167.321443 71.26275 
L 168.648555 71.538582 
L 169.975667 71.80979 
L 171.302779 72.076499 
L 172.629891 72.338801 
L 173.957003 72.596783 
L 175.284115 72.850555 
L 176.611227 73.100197 
L 177.938339 73.345803 
L 179.265451 73.587457 
L 180.592563 73.825243 
L 181.919675 74.059252 
L 183.246787 74.289552 
L 184.573899 74.516224 
L 185.901011 74.739341 
L 187.228123 74.958993 
L 188.555235 75.175225 
L 189.882347 75.388129 
L 191.209459 75.597766 
L 192.536571 75.804201 
L 193.863683 76.007506 
L 195.190795 76.207735 
" clip-path="url(#pe6705e6860)" style="fill: none; stroke-dasharray: 3.7,1.6; stroke-dashoffset: 0; stroke: #000000"/>
   </g>
   <g id="line2d_20">
    <path d="M 63.806705 22.320717 
L 65.133817 23.295229 
L 66.460929 24.265018 
L 67.788041 25.229786 
L 69.115153 26.18919 
L 70.442265 27.142939 
L 71.769377 28.090718 
L 73.096489 29.032245 
L 74.423601 29.967196 
L 75.750713 30.895316 
L 77.077825 31.81629 
L 78.404937 32.729854 
L 79.732049 33.635747 
L 81.059161 34.533697 
L 82.386273 35.423469 
L 83.713385 36.304791 
L 85.040497 37.177446 
L 86.367609 38.041191 
L 87.694721 38.895844 
L 89.021833 39.741165 
L 90.348945 40.576965 
L 91.676057 41.403066 
L 93.003169 42.219293 
L 94.330281 43.025479 
L 95.657393 43.82146 
L 96.984505 44.607109 
L 98.311617 45.382297 
L 99.638729 46.14689 
L 100.965841 46.900786 
L 102.292953 47.643898 
L 103.620065 48.376132 
L 104.947177 49.097402 
L 106.274289 49.807666 
L 107.601402 50.506861 
L 108.928514 51.194952 
L 110.255626 51.871911 
L 111.582738 52.537706 
L 112.90985 53.192329 
L 114.236962 53.835802 
L 115.564074 54.468116 
L 116.891186 55.089293 
L 118.218298 55.699375 
L 119.54541 56.298384 
L 120.872522 56.886383 
L 122.199634 57.463422 
L 123.526746 58.029569 
L 124.853858 58.584887 
L 126.18097 59.129462 
L 127.508082 59.663376 
L 128.835194 60.186732 
L 130.162306 60.699608 
L 131.489418 61.202134 
L 132.81653 61.694402 
L 134.143642 62.176533 
L 135.470754 62.648649 
L 136.797866 63.110868 
L 138.124978 63.563321 
L 139.45209 64.006149 
L 140.779202 64.439478 
L 142.106314 64.863448 
L 143.433426 65.2782 
L 144.760538 65.683873 
L 146.08765 66.080617 
L 147.414762 66.468577 
L 148.741874 66.847902 
L 150.068986 67.218746 
L 151.396098 67.581262 
L 152.723211 67.935578 
L 154.050323 68.281874 
L 155.377435 68.620281 
L 156.704547 68.950957 
L 158.031659 69.274062 
L 159.358771 69.589735 
L 160.685883 69.898126 
L 162.012995 70.199383 
L 163.340107 70.493674 
L 164.667219 70.781112 
L 165.994331 71.061874 
L 167.321443 71.336087 
L 168.648555 71.603903 
L 169.975667 71.865454 
L 171.302779 72.120886 
L 172.629891 72.370337 
L 173.957003 72.61394 
L 175.284115 72.851826 
L 176.611227 73.084134 
L 177.938339 73.310987 
L 179.265451 73.532521 
L 180.592563 73.748849 
L 181.919675 73.960105 
L 183.246787 74.166405 
L 184.573899 74.367868 
L 185.901011 74.564614 
L 187.228123 74.756756 
L 188.555235 74.944405 
L 189.882347 75.127667 
L 191.209459 75.306655 
L 192.536571 75.481476 
L 193.863683 75.652227 
L 195.190795 75.81901 
" clip-path="url(#pe6705e6860)" style="fill: none; stroke: #1f77b4; stroke-opacity: 0.5; stroke-width: 1.5; stroke-linecap: square"/>
   </g>
   <g id="line2d_21">
    <path d="M 63.806705 17.190114 
L 65.133817 18.756039 
L 66.460929 20.275709 
L 67.788041 21.75087 
L 69.115153 23.183295 
L 70.442265 24.574584 
L 71.769377 25.926322 
L 73.096489 27.239991 
L 74.423601 28.516986 
L 75.750713 29.758689 
L 77.077825 30.96635 
L 78.404937 32.141245 
L 79.732049 33.284521 
L 81.059161 34.39731 
L 82.386273 35.480698 
L 83.713385 36.535679 
L 85.040497 37.563285 
L 86.367609 38.564412 
L 87.694721 39.539991 
L 89.021833 40.490854 
L 90.348945 41.417853 
L 91.676057 42.321787 
L 93.003169 43.20339 
L 94.330281 44.063398 
L 95.657393 44.902531 
L 96.984505 45.721432 
L 98.311617 46.520774 
L 99.638729 47.301144 
L 100.965841 48.063155 
L 102.292953 48.80738 
L 103.620065 49.534363 
L 104.947177 50.24464 
L 106.274289 50.938702 
L 107.601402 51.617063 
L 108.928514 52.280167 
L 110.255626 52.928489 
L 111.582738 53.562454 
L 112.90985 54.182482 
L 114.236962 54.788995 
L 115.564074 55.382359 
L 116.891186 55.962962 
L 118.218298 56.531176 
L 119.54541 57.087345 
L 120.872522 57.631798 
L 122.199634 58.164866 
L 123.526746 58.686878 
L 124.853858 59.198117 
L 126.18097 59.698893 
L 127.508082 60.189482 
L 128.835194 60.670156 
L 130.162306 61.141192 
L 131.489418 61.602836 
L 132.81653 62.055344 
L 134.143642 62.498941 
L 135.470754 62.933875 
L 136.797866 63.36036 
L 138.124978 63.778613 
L 139.45209 64.188855 
L 140.779202 64.591285 
L 142.106314 64.986093 
L 143.433426 65.373479 
L 144.760538 65.753622 
L 146.08765 66.12671 
L 147.414762 66.492899 
L 148.741874 66.852376 
L 150.068986 67.205294 
L 151.396098 67.551815 
L 152.723211 67.892095 
L 154.050323 68.226278 
L 155.377435 68.554516 
L 156.704547 68.876938 
L 158.031659 69.193687 
L 159.358771 69.5049 
L 160.685883 69.810699 
L 162.012995 70.11121 
L 163.340107 70.406555 
L 164.667219 70.696857 
L 165.994331 70.982214 
L 167.321443 71.26275 
L 168.648555 71.538582 
L 169.975667 71.80979 
L 171.302779 72.076499 
L 172.629891 72.338801 
L 173.957003 72.596783 
L 175.284115 72.850555 
L 176.611227 73.100197 
L 177.938339 73.345803 
L 179.265451 73.587457 
L 180.592563 73.825243 
L 181.919675 74.059252 
L 183.246787 74.289552 
L 184.573899 74.516224 
L 185.901011 74.739341 
L 187.228123 74.958993 
L 188.555235 75.175225 
L 189.882347 75.388129 
L 191.209459 75.597766 
L 192.536571 75.804201 
L 193.863683 76.007506 
L 195.190795 76.207735 
" clip-path="url(#pe6705e6860)" style="fill: none; stroke-dasharray: 3.7,1.6; stroke-dashoffset: 0; stroke: #000000"/>
   </g>
   <g id="patch_3">
    <path d="M 57.2375 83.3425 
L 57.2375 14.04 
" style="fill: none; stroke: #000000; stroke-width: 0.8; stroke-linejoin: miter; stroke-linecap: square"/>
   </g>
   <g id="patch_4">
    <path d="M 201.76 83.3425 
L 201.76 14.04 
" style="fill: none; stroke: #000000; stroke-width: 0.8; stroke-linejoin: miter; stroke-linecap: square"/>
   </g>
   <g id="patch_5">
    <path d="M 57.2375 83.3425 
L 201.76 83.3425 
" style="fill: none; stroke: #000000; stroke-width: 0.8; stroke-linejoin: miter; stroke-linecap: square"/>
   </g>
   <g id="patch_6">
    <path d="M 57.2375 14.04 
L 201.76 14.04 
" style="fill: none; stroke: #000000; stroke-width: 0.8; stroke-linejoin: miter; stroke-linecap: square"/>
   </g>
   <g id="legend_1">
    <g id="patch_7">
     <path d="M 210.86 60.84 
L 307.577969 60.84 
Q 310.177969 60.84 310.177969 58.24 
L 310.177969 23.14 
Q 310.177969 20.54 307.577969 20.54 
L 210.86 20.54 
Q 208.26 20.54 208.26 23.14 
L 208.26 58.24 
Q 208.26 60.84 210.86 60.84 
z
" style="fill: #ffffff; opacity: 0.8; stroke: #cccccc; stroke-linejoin: miter"/>
    </g>
    <g id="line2d_22">
     <path d="M 213.46 30.29 
L 226.46 30.29 
L 239.46 30.29 
" style="fill: none; stroke: #1f77b4; stroke-opacity: 0.5; stroke-width: 1.5; stroke-linecap: square"/>
    </g>
    <g id="text_8">
     <!-- Learned -->
     <g transform="translate(249.86 34.84) scale(0.13 -0.13)">
      <defs>
       <path id="LMRoman10-Regular-4c" d="M 3725 1651 
L 3565 1651 
C 3494 998 3405 198 2278 198 
L 1754 198 
C 1453 198 1440 243 1440 454 
L 1440 3866 
C 1440 4083 1440 4173 2048 4173 
L 2259 4173 
L 2259 4371 
C 2029 4352 1446 4352 1184 4352 
C 934 4352 435 4352 211 4371 
L 211 4173 
L 365 4173 
C 858 4173 870 4102 870 3872 
L 870 499 
C 870 269 858 198 365 198 
L 211 198 
L 211 0 
L 3546 0 
L 3725 1651 
z
" transform="scale(0.015625)"/>
       <path id="LMRoman10-Regular-65" d="M 2656 762 
C 2656 826 2605 838 2573 838 
C 2515 838 2502 800 2490 749 
C 2266 90 1690 90 1626 90 
C 1306 90 1050 282 902 518 
C 710 826 710 1248 710 1478 
L 2496 1478 
C 2637 1478 2656 1478 2656 1613 
C 2656 2246 2310 2867 1510 2867 
C 768 2867 179 2208 179 1408 
C 179 550 851 -70 1587 -70 
C 2368 -70 2656 640 2656 762 
z
M 2234 1613 
L 717 1613 
C 755 2566 1293 2726 1510 2726 
C 2170 2726 2234 1862 2234 1613 
z
" transform="scale(0.015625)"/>
       <path id="LMRoman10-Regular-61" d="M 3091 570 
L 3091 928 
L 2931 928 
L 2931 570 
C 2931 198 2771 160 2701 160 
C 2490 160 2464 448 2464 480 
L 2464 1760 
C 2464 2029 2464 2278 2234 2515 
C 1984 2765 1664 2867 1357 2867 
C 832 2867 390 2566 390 2144 
C 390 1952 518 1843 685 1843 
C 864 1843 979 1971 979 2138 
C 979 2214 947 2426 653 2432 
C 826 2656 1139 2726 1344 2726 
C 1658 2726 2022 2477 2022 1907 
L 2022 1670 
C 1696 1651 1248 1632 845 1440 
C 365 1222 205 890 205 608 
C 205 90 826 -70 1229 -70 
C 1651 -70 1946 186 2067 486 
C 2093 230 2266 -38 2566 -38 
C 2701 -38 3091 51 3091 570 
z
M 2022 896 
C 2022 288 1562 70 1274 70 
C 960 70 698 294 698 614 
C 698 966 966 1498 2022 1536 
L 2022 896 
z
" transform="scale(0.015625)"/>
       <path id="LMRoman10-Regular-72" d="M 2330 2438 
C 2330 2643 2131 2829 1856 2829 
C 1389 2829 1158 2400 1069 2125 
L 1069 2829 
L 179 2758 
L 179 2560 
C 627 2560 678 2515 678 2202 
L 678 486 
C 678 198 608 198 179 198 
L 179 0 
L 909 19 
C 1165 19 1466 19 1722 0 
L 1722 198 
L 1587 198 
C 1114 198 1101 269 1101 499 
L 1101 1485 
C 1101 2118 1370 2688 1856 2688 
C 1901 2688 1914 2688 1926 2682 
C 1907 2675 1779 2598 1779 2432 
C 1779 2253 1914 2157 2054 2157 
C 2170 2157 2330 2234 2330 2438 
z
" transform="scale(0.015625)"/>
       <path id="LMRoman10-Regular-6e" d="M 3424 0 
L 3424 198 
C 3091 198 2931 198 2925 390 
L 2925 1613 
C 2925 2163 2925 2362 2726 2592 
C 2637 2701 2426 2829 2054 2829 
C 1587 2829 1286 2554 1107 2157 
L 1107 2829 
L 205 2758 
L 205 2560 
C 653 2560 704 2515 704 2202 
L 704 486 
C 704 198 634 198 205 198 
L 205 0 
L 928 19 
L 1645 0 
L 1645 198 
C 1216 198 1146 198 1146 486 
L 1146 1664 
C 1146 2330 1600 2688 2010 2688 
C 2413 2688 2483 2342 2483 1978 
L 2483 486 
C 2483 198 2413 198 1984 198 
L 1984 0 
L 2707 19 
L 3424 0 
z
" transform="scale(0.015625)"/>
       <path id="LMRoman10-Regular-64" d="M 3373 0 
L 3373 198 
C 2925 198 2874 243 2874 557 
L 2874 4442 
L 1952 4371 
L 1952 4173 
C 2400 4173 2451 4128 2451 3814 
L 2451 2432 
C 2266 2662 1990 2829 1645 2829 
C 890 2829 218 2202 218 1376 
C 218 563 845 -70 1574 -70 
C 1984 -70 2272 147 2432 352 
L 2432 -70 
L 3373 0 
z
M 2432 755 
C 2432 640 2432 627 2362 518 
C 2170 211 1882 70 1606 70 
C 1318 70 1088 237 934 480 
C 768 742 749 1107 749 1370 
C 749 1606 762 1990 947 2278 
C 1082 2477 1325 2688 1670 2688 
C 1894 2688 2163 2592 2362 2304 
C 2432 2195 2432 2182 2432 2067 
L 2432 755 
z
" transform="scale(0.015625)"/>
      </defs>
      <use xlink:href="#LMRoman10-Regular-4c"/>
      <use xlink:href="#LMRoman10-Regular-65" x="62.499985"/>
      <use xlink:href="#LMRoman10-Regular-61" x="106.899979"/>
      <use xlink:href="#LMRoman10-Regular-72" x="156.899963"/>
      <use xlink:href="#LMRoman10-Regular-6e" x="196.09996"/>
      <use xlink:href="#LMRoman10-Regular-65" x="251.699951"/>
      <use xlink:href="#LMRoman10-Regular-64" x="296.099945"/>
     </g>
    </g>
    <g id="line2d_23">
     <path d="M 213.46 48.412813 
L 226.46 48.412813 
L 239.46 48.412813 
" style="fill: none; stroke-dasharray: 3.7,1.6; stroke-dashoffset: 0; stroke: #000000"/>
    </g>
    <g id="text_9">
     <!-- Langmuir -->
     <g transform="translate(249.86 52.962813) scale(0.13 -0.13)">
      <defs>
       <path id="LMRoman10-Regular-67" d="M 3104 2586 
C 3104 2694 3027 2899 2778 2899 
C 2650 2899 2368 2861 2099 2598 
C 1830 2810 1562 2829 1421 2829 
C 826 2829 384 2387 384 1894 
C 384 1613 525 1370 685 1235 
C 602 1139 486 928 486 704 
C 486 506 570 262 768 134 
C 384 26 179 -250 179 -506 
C 179 -966 813 -1318 1594 -1318 
C 2349 -1318 3014 -992 3014 -493 
C 3014 -269 2925 58 2598 237 
C 2259 416 1888 416 1498 416 
C 1338 416 1062 416 1018 422 
C 813 448 678 646 678 851 
C 678 877 678 1024 787 1152 
C 1037 973 1299 954 1421 954 
C 2016 954 2458 1395 2458 1888 
C 2458 2125 2355 2362 2195 2509 
C 2426 2726 2656 2758 2771 2758 
C 2771 2758 2816 2758 2835 2752 
C 2765 2726 2733 2656 2733 2579 
C 2733 2470 2816 2394 2918 2394 
C 2982 2394 3104 2438 3104 2586 
z
M 1978 1894 
C 1978 1722 1971 1517 1875 1357 
C 1824 1280 1677 1101 1421 1101 
C 864 1101 864 1741 864 1888 
C 864 2061 870 2266 966 2426 
C 1018 2502 1165 2682 1421 2682 
C 1978 2682 1978 2042 1978 1894 
z
M 2682 -506 
C 2682 -851 2227 -1171 1600 -1171 
C 954 -1171 512 -845 512 -506 
C 512 -211 755 26 1037 45 
L 1414 45 
C 1965 45 2682 45 2682 -506 
z
" transform="scale(0.015625)"/>
       <path id="LMRoman10-Regular-6d" d="M 5203 0 
L 5203 198 
C 4870 198 4710 198 4704 390 
L 4704 1613 
C 4704 2163 4704 2362 4506 2592 
C 4416 2701 4205 2829 3834 2829 
C 3296 2829 3014 2445 2906 2202 
C 2816 2758 2342 2829 2054 2829 
C 1587 2829 1286 2554 1107 2157 
L 1107 2829 
L 205 2758 
L 205 2560 
C 653 2560 704 2515 704 2202 
L 704 486 
C 704 198 634 198 205 198 
L 205 0 
L 928 19 
L 1645 0 
L 1645 198 
C 1216 198 1146 198 1146 486 
L 1146 1664 
C 1146 2330 1600 2688 2010 2688 
C 2413 2688 2483 2342 2483 1978 
L 2483 486 
C 2483 198 2413 198 1984 198 
L 1984 0 
L 2707 19 
L 3424 0 
L 3424 198 
C 2995 198 2925 198 2925 486 
L 2925 1664 
C 2925 2330 3379 2688 3789 2688 
C 4192 2688 4262 2342 4262 1978 
L 4262 486 
C 4262 198 4192 198 3763 198 
L 3763 0 
L 4486 19 
L 5203 0 
z
" transform="scale(0.015625)"/>
       <path id="LMRoman10-Regular-75" d="M 3424 0 
L 3424 198 
C 2976 198 2925 243 2925 557 
L 2925 2829 
L 1984 2758 
L 1984 2560 
C 2432 2560 2483 2515 2483 2202 
L 2483 1062 
C 2483 506 2176 70 1709 70 
C 1171 70 1146 371 1146 704 
L 1146 2829 
L 205 2758 
L 205 2560 
C 704 2560 704 2541 704 1971 
L 704 1011 
C 704 512 704 -70 1677 -70 
C 2035 -70 2317 109 2502 506 
L 2502 -70 
L 3424 0 
z
" transform="scale(0.015625)"/>
       <path id="LMRoman10-Regular-69" d="M 1581 0 
L 1581 198 
C 1158 198 1133 230 1133 480 
L 1133 2829 
L 237 2758 
L 237 2560 
C 653 2560 710 2522 710 2208 
L 710 486 
C 710 198 640 198 211 198 
L 211 0 
L 915 19 
C 1139 19 1363 6 1581 0 
z
M 1229 3866 
C 1229 4038 1082 4205 890 4205 
C 672 4205 544 4026 544 3866 
C 544 3693 691 3526 883 3526 
C 1101 3526 1229 3706 1229 3866 
z
" transform="scale(0.015625)"/>
      </defs>
      <use xlink:href="#LMRoman10-Regular-4c"/>
      <use xlink:href="#LMRoman10-Regular-61" x="62.499985"/>
      <use xlink:href="#LMRoman10-Regular-6e" x="112.499969"/>
      <use xlink:href="#LMRoman10-Regular-67" x="168.09996"/>
      <use xlink:href="#LMRoman10-Regular-6d" x="218.099945"/>
      <use xlink:href="#LMRoman10-Regular-75" x="301.399933"/>
      <use xlink:href="#LMRoman10-Regular-69" x="356.999924"/>
      <use xlink:href="#LMRoman10-Regular-72" x="384.799911"/>
     </g>
    </g>
   </g>
  </g>
 </g>
 <defs>
  <clipPath id="pe6705e6860">
   <rect x="57.2375" y="14.04" width="144.5225" height="69.3025"/>
  </clipPath>
 </defs>
</svg>
