<?xml version="1.0" encoding="utf-8" standalone="no"?>
<!DOCTYPE svg PUBLIC "-//W3C//DTD SVG 1.1//EN"
  "http://www.w3.org/Graphics/SVG/1.1/DTD/svg11.dtd">
<svg xmlns:xlink="http://www.w3.org/1999/xlink" width="432pt" height="310.5pt" viewBox="0 0 432 310.5" xmlns="http://www.w3.org/2000/svg" version="1.1">
 <metadata>
  <rdf:RDF xmlns:dc="http://purl.org/dc/elements/1.1/" xmlns:cc="http://creativecommons.org/ns#" xmlns:rdf="http://www.w3.org/1999/02/22-rdf-syntax-ns#">
   <cc:Work>
    <dc:type rdf:resource="http://purl.org/dc/dcmitype/StillImage"/>
    <dc:date>2024-12-09T08:29:36.056882</dc:date>
    <dc:format>image/svg+xml</dc:format>
    <dc:creator>
     <cc:Agent>
      <dc:title>Matplotlib v3.8.4, https://matplotlib.org/</dc:title>
     </cc:Agent>
    </dc:creator>
   </cc:Work>
  </rdf:RDF>
 </metadata>
 <defs>
  <style type="text/css">*{stroke-linejoin: round; stroke-linecap: butt}</style>
 </defs>
 <g id="figure_1">
  <g id="patch_1">
   <path d="M 0 310.5 
L 432 310.5 
L 432 0 
L 0 0 
z
" style="fill: #ffffff"/>
  </g>
  <g id="axes_1">
   <g id="patch_2">
    <path d="M 76.5875 94.156875 
L 213.327228 94.156875 
L 213.327228 31.155 
L 76.5875 31.155 
z
" style="fill: #ffffff"/>
   </g>
   <g id="PathCollection_1">
    <defs>
     <path id="mc9498831d6" d="M 0 1 
C 0.265203 1 0.51958 0.894634 0.707107 0.707107 
C 0.894634 0.51958 1 0.265203 1 0 
C 1 -0.265203 0.894634 -0.51958 0.707107 -0.707107 
C 0.51958 -0.894634 0.265203 -1 0 -1 
C -0.265203 -1 -0.51958 -0.894634 -0.707107 -0.707107 
C -0.894634 -0.51958 -1 -0.265203 -1 0 
C -1 0.265203 -0.894634 0.51958 -0.707107 0.707107 
C -0.51958 0.894634 -0.265203 1 0 1 
z
" style="stroke: #ff0000; stroke-opacity: 0.5"/>
    </defs>
    <g clip-path="url(#pe516ab3cdd)">
     <use xlink:href="#mc9498831d6" x="82.802942" y="91.293153" style="fill: #ff0000; fill-opacity: 0.5; stroke: #ff0000; stroke-opacity: 0.5"/>
     <use xlink:href="#mc9498831d6" x="85.765288" y="91.157443" style="fill: #ff0000; fill-opacity: 0.5; stroke: #ff0000; stroke-opacity: 0.5"/>
     <use xlink:href="#mc9498831d6" x="86.979174" y="91.185342" style="fill: #ff0000; fill-opacity: 0.5; stroke: #ff0000; stroke-opacity: 0.5"/>
     <use xlink:href="#mc9498831d6" x="88.637428" y="91.164676" style="fill: #ff0000; fill-opacity: 0.5; stroke: #ff0000; stroke-opacity: 0.5"/>
     <use xlink:href="#mc9498831d6" x="90.219815" y="91.181209" style="fill: #ff0000; fill-opacity: 0.5; stroke: #ff0000; stroke-opacity: 0.5"/>
     <use xlink:href="#mc9498831d6" x="91.650467" y="91.181209" style="fill: #ff0000; fill-opacity: 0.5; stroke: #ff0000; stroke-opacity: 0.5"/>
     <use xlink:href="#mc9498831d6" x="93.339069" y="91.147109" style="fill: #ff0000; fill-opacity: 0.5; stroke: #ff0000; stroke-opacity: 0.5"/>
     <use xlink:href="#mc9498831d6" x="94.90845" y="91.177076" style="fill: #ff0000; fill-opacity: 0.5; stroke: #ff0000; stroke-opacity: 0.5"/>
     <use xlink:href="#mc9498831d6" x="96.46916" y="91.176042" style="fill: #ff0000; fill-opacity: 0.5; stroke: #ff0000; stroke-opacity: 0.5"/>
     <use xlink:href="#mc9498831d6" x="98.029871" y="91.178109" style="fill: #ff0000; fill-opacity: 0.5; stroke: #ff0000; stroke-opacity: 0.5"/>
     <use xlink:href="#mc9498831d6" x="99.480031" y="91.228742" style="fill: #ff0000; fill-opacity: 0.5; stroke: #ff0000; stroke-opacity: 0.5"/>
     <use xlink:href="#mc9498831d6" x="101.068921" y="91.186376" style="fill: #ff0000; fill-opacity: 0.5; stroke: #ff0000; stroke-opacity: 0.5"/>
     <use xlink:href="#mc9498831d6" x="102.64047" y="90.94251" style="fill: #ff0000; fill-opacity: 0.5; stroke: #ff0000; stroke-opacity: 0.5"/>
     <use xlink:href="#mc9498831d6" x="104.285719" y="90.203161" style="fill: #ff0000; fill-opacity: 0.5; stroke: #ff0000; stroke-opacity: 0.5"/>
     <use xlink:href="#mc9498831d6" x="105.759723" y="88.503847" style="fill: #ff0000; fill-opacity: 0.5; stroke: #ff0000; stroke-opacity: 0.5"/>
     <use xlink:href="#mc9498831d6" x="107.394134" y="87.680282" style="fill: #ff0000; fill-opacity: 0.5; stroke: #ff0000; stroke-opacity: 0.5"/>
     <use xlink:href="#mc9498831d6" x="108.95918" y="86.150951" style="fill: #ff0000; fill-opacity: 0.5; stroke: #ff0000; stroke-opacity: 0.5"/>
     <use xlink:href="#mc9498831d6" x="110.415843" y="85.327386" style="fill: #ff0000; fill-opacity: 0.5; stroke: #ff0000; stroke-opacity: 0.5"/>
     <use xlink:href="#mc9498831d6" x="111.909356" y="83.442589" style="fill: #ff0000; fill-opacity: 0.5; stroke: #ff0000; stroke-opacity: 0.5"/>
     <use xlink:href="#mc9498831d6" x="115.53584" y="78.008298" style="fill: #ff0000; fill-opacity: 0.5; stroke: #ff0000; stroke-opacity: 0.5"/>
     <use xlink:href="#mc9498831d6" x="118.702782" y="76.360135" style="fill: #ff0000; fill-opacity: 0.5; stroke: #ff0000; stroke-opacity: 0.5"/>
     <use xlink:href="#mc9498831d6" x="121.757006" y="70.660278" style="fill: #ff0000; fill-opacity: 0.5; stroke: #ff0000; stroke-opacity: 0.5"/>
     <use xlink:href="#mc9498831d6" x="124.78305" y="69.074114" style="fill: #ff0000; fill-opacity: 0.5; stroke: #ff0000; stroke-opacity: 0.5"/>
     <use xlink:href="#mc9498831d6" x="146.450914" y="52.657575" style="fill: #ff0000; fill-opacity: 0.5; stroke: #ff0000; stroke-opacity: 0.5"/>
     <use xlink:href="#mc9498831d6" x="149.513809" y="51.79991" style="fill: #ff0000; fill-opacity: 0.5; stroke: #ff0000; stroke-opacity: 0.5"/>
     <use xlink:href="#mc9498831d6" x="152.825983" y="52.126443" style="fill: #ff0000; fill-opacity: 0.5; stroke: #ff0000; stroke-opacity: 0.5"/>
     <use xlink:href="#mc9498831d6" x="156.014601" y="49.469747" style="fill: #ff0000; fill-opacity: 0.5; stroke: #ff0000; stroke-opacity: 0.5"/>
     <use xlink:href="#mc9498831d6" x="160.783439" y="49.195914" style="fill: #ff0000; fill-opacity: 0.5; stroke: #ff0000; stroke-opacity: 0.5"/>
     <use xlink:href="#mc9498831d6" x="162.136055" y="50.714912" style="fill: #ff0000; fill-opacity: 0.5; stroke: #ff0000; stroke-opacity: 0.5"/>
     <use xlink:href="#mc9498831d6" x="163.896189" y="49.518831" style="fill: #ff0000; fill-opacity: 0.5; stroke: #ff0000; stroke-opacity: 0.5"/>
     <use xlink:href="#mc9498831d6" x="165.519762" y="48.166975" style="fill: #ff0000; fill-opacity: 0.5; stroke: #ff0000; stroke-opacity: 0.5"/>
     <use xlink:href="#mc9498831d6" x="167.028449" y="49.343164" style="fill: #ff0000; fill-opacity: 0.5; stroke: #ff0000; stroke-opacity: 0.5"/>
     <use xlink:href="#mc9498831d6" x="168.517627" y="48.981498" style="fill: #ff0000; fill-opacity: 0.5; stroke: #ff0000; stroke-opacity: 0.5"/>
     <use xlink:href="#mc9498831d6" x="169.998134" y="47.053301" style="fill: #ff0000; fill-opacity: 0.5; stroke: #ff0000; stroke-opacity: 0.5"/>
     <use xlink:href="#mc9498831d6" x="171.517659" y="47.237751" style="fill: #ff0000; fill-opacity: 0.5; stroke: #ff0000; stroke-opacity: 0.5"/>
     <use xlink:href="#mc9498831d6" x="173.442535" y="44.556256" style="fill: #ff0000; fill-opacity: 0.5; stroke: #ff0000; stroke-opacity: 0.5"/>
     <use xlink:href="#mc9498831d6" x="175.018419" y="45.380338" style="fill: #ff0000; fill-opacity: 0.5; stroke: #ff0000; stroke-opacity: 0.5"/>
     <use xlink:href="#mc9498831d6" x="176.563956" y="46.858002" style="fill: #ff0000; fill-opacity: 0.5; stroke: #ff0000; stroke-opacity: 0.5"/>
     <use xlink:href="#mc9498831d6" x="177.847207" y="46.891585" style="fill: #ff0000; fill-opacity: 0.5; stroke: #ff0000; stroke-opacity: 0.5"/>
     <use xlink:href="#mc9498831d6" x="180.959957" y="42.567093" style="fill: #ff0000; fill-opacity: 0.5; stroke: #ff0000; stroke-opacity: 0.5"/>
     <use xlink:href="#mc9498831d6" x="182.225867" y="45.961587" style="fill: #ff0000; fill-opacity: 0.5; stroke: #ff0000; stroke-opacity: 0.5"/>
     <use xlink:href="#mc9498831d6" x="184.350167" y="44.119673" style="fill: #ff0000; fill-opacity: 0.5; stroke: #ff0000; stroke-opacity: 0.5"/>
     <use xlink:href="#mc9498831d6" x="185.748304" y="42.494759" style="fill: #ff0000; fill-opacity: 0.5; stroke: #ff0000; stroke-opacity: 0.5"/>
     <use xlink:href="#mc9498831d6" x="187.243985" y="42.484426" style="fill: #ff0000; fill-opacity: 0.5; stroke: #ff0000; stroke-opacity: 0.5"/>
     <use xlink:href="#mc9498831d6" x="188.544577" y="42.171843" style="fill: #ff0000; fill-opacity: 0.5; stroke: #ff0000; stroke-opacity: 0.5"/>
     <use xlink:href="#mc9498831d6" x="191.217294" y="42.158927" style="fill: #ff0000; fill-opacity: 0.5; stroke: #ff0000; stroke-opacity: 0.5"/>
     <use xlink:href="#mc9498831d6" x="194.867622" y="42.541259" style="fill: #ff0000; fill-opacity: 0.5; stroke: #ff0000; stroke-opacity: 0.5"/>
     <use xlink:href="#mc9498831d6" x="197.507824" y="43.326591" style="fill: #ff0000; fill-opacity: 0.5; stroke: #ff0000; stroke-opacity: 0.5"/>
     <use xlink:href="#mc9498831d6" x="200.741963" y="39.653098" style="fill: #ff0000; fill-opacity: 0.5; stroke: #ff0000; stroke-opacity: 0.5"/>
     <use xlink:href="#mc9498831d6" x="203.952258" y="40.748429" style="fill: #ff0000; fill-opacity: 0.5; stroke: #ff0000; stroke-opacity: 0.5"/>
    </g>
   </g>
   <g id="PolyCollection_1">
    <path d="M 82.802942 91.293153 
L 82.802942 91.293153 
L 85.765288 91.293153 
L 86.979174 91.293153 
L 88.637428 91.293153 
L 90.219815 91.293147 
L 91.650467 91.293083 
L 93.339069 91.292543 
L 94.90845 91.290146 
L 96.46916 91.282138 
L 98.029871 91.260668 
L 99.480031 91.216909 
L 101.068921 91.123206 
L 102.64047 90.957184 
L 104.285719 90.670856 
L 105.759723 90.285814 
L 107.394134 89.685662 
L 108.95918 89.125455 
L 110.415843 88.526429 
L 111.909356 87.772915 
L 115.53584 84.66051 
L 118.702782 81.760192 
L 121.757006 79.380661 
L 124.78305 76.94921 
L 146.450914 60.405654 
L 149.513809 58.598024 
L 152.825983 56.76988 
L 156.014601 55.135712 
L 160.783439 52.904418 
L 162.136055 52.313367 
L 163.896189 51.572685 
L 165.519762 50.905008 
L 167.028449 50.289475 
L 168.517627 49.702745 
L 169.998134 49.13994 
L 171.517659 48.579598 
L 173.442535 47.849086 
L 175.018419 47.277383 
L 176.563956 46.738969 
L 177.847207 46.307988 
L 180.959957 45.320448 
L 182.225867 44.941228 
L 184.350167 44.332854 
L 185.748304 43.950309 
L 187.243985 43.598579 
L 188.544577 43.303047 
L 191.217294 42.735944 
L 194.867622 42.008358 
L 197.507824 41.524611 
L 200.741963 40.96627 
L 203.952258 40.452209 
L 203.952258 38.100631 
L 203.952258 38.100631 
L 200.741963 38.499127 
L 197.507824 38.938442 
L 194.867622 39.336332 
L 191.217294 39.949229 
L 188.544577 40.44042 
L 187.243985 40.693474 
L 185.748304 40.987125 
L 184.350167 41.268602 
L 182.225867 41.714427 
L 180.959957 41.992219 
L 177.847207 42.718901 
L 176.563956 43.051075 
L 175.018419 43.471956 
L 173.442535 43.920736 
L 171.517659 44.496148 
L 169.998134 44.973048 
L 168.517627 45.457638 
L 167.028449 45.965251 
L 165.519762 46.501529 
L 163.896189 47.104263 
L 162.136055 47.788399 
L 160.783439 48.321376 
L 156.014601 50.325833 
L 152.825983 51.81728 
L 149.513809 53.507484 
L 146.450914 55.25576 
L 124.78305 71.532801 
L 121.757006 74.521039 
L 118.702782 77.400002 
L 115.53584 80.208045 
L 111.909356 83.246455 
L 110.415843 84.431794 
L 108.95918 85.524 
L 107.394134 86.615342 
L 105.759723 87.648065 
L 104.285719 88.472969 
L 102.64047 89.266928 
L 101.068921 89.893223 
L 99.480031 90.377793 
L 98.029871 90.715526 
L 96.46916 90.974847 
L 94.90845 91.140757 
L 93.339069 91.233303 
L 91.650467 91.277232 
L 90.219815 91.289631 
L 88.637428 91.292815 
L 86.979174 91.293146 
L 85.765288 91.293153 
L 82.802942 91.293153 
z
" clip-path="url(#pe516ab3cdd)" style="fill: #1f77b4; fill-opacity: 0.3"/>
   </g>
   <g id="PolyCollection_2">
    <path d="M 82.802942 91.293153 
L 82.802942 91.293153 
L 85.765288 91.293153 
L 86.979174 91.293153 
L 88.637428 91.29315 
L 90.219815 91.293073 
L 91.650467 91.292528 
L 93.339069 91.289159 
L 94.90845 91.27909 
L 96.46916 91.252303 
L 98.029871 91.190572 
L 99.480031 91.089311 
L 101.068921 90.907966 
L 102.64047 90.635441 
L 104.285719 90.229146 
L 105.759723 89.745887 
L 107.394134 89.068653 
L 108.95918 88.278108 
L 110.415843 87.420584 
L 111.909356 86.446909 
L 115.53584 83.770022 
L 118.702782 80.88789 
L 121.757006 78.3977 
L 124.78305 75.850827 
L 146.450914 59.575537 
L 149.513809 57.759386 
L 152.825983 55.931985 
L 156.014601 54.302287 
L 160.783439 52.08271 
L 162.136055 51.483553 
L 163.896189 50.727847 
L 165.519762 50.058118 
L 167.028449 49.458867 
L 168.517627 48.91746 
L 169.998134 48.409538 
L 171.517659 47.905803 
L 173.442535 47.251597 
L 175.018419 46.729138 
L 176.563956 46.256992 
L 177.847207 45.886953 
L 180.959957 45.034505 
L 182.225867 44.705251 
L 184.350167 44.168319 
L 185.748304 43.824889 
L 187.243985 43.459672 
L 188.544577 43.16346 
L 191.217294 42.583039 
L 194.867622 41.831773 
L 197.507824 41.346501 
L 200.741963 40.792443 
L 203.952258 40.277491 
L 203.952258 38.326195 
L 203.952258 38.326195 
L 200.741963 38.733535 
L 197.507824 39.180357 
L 194.867622 39.575946 
L 191.217294 40.174061 
L 188.544577 40.652203 
L 187.243985 40.905911 
L 185.748304 41.209479 
L 184.350167 41.505002 
L 182.225867 41.976455 
L 180.959957 42.27129 
L 177.847207 43.038815 
L 176.563956 43.359422 
L 175.018419 43.772594 
L 173.442535 44.226113 
L 171.517659 44.807781 
L 169.998134 45.289243 
L 168.517627 45.778038 
L 167.028449 46.271447 
L 165.519762 46.787299 
L 163.896189 47.364617 
L 162.136055 48.022003 
L 160.783439 48.548816 
L 156.014601 50.585518 
L 152.825983 52.147835 
L 149.513809 53.910619 
L 146.450914 55.674552 
L 124.78305 71.105194 
L 121.757006 73.643846 
L 118.702782 76.264944 
L 115.53584 79.001625 
L 111.909356 82.065591 
L 110.415843 83.279536 
L 108.95918 84.42043 
L 107.394134 85.585563 
L 105.759723 86.719678 
L 104.285719 87.653396 
L 102.64047 88.581926 
L 101.068921 89.345071 
L 99.480031 89.98003 
L 98.029871 90.439064 
L 96.46916 90.803693 
L 94.90845 91.048174 
L 93.339069 91.191449 
L 91.650467 91.26403 
L 90.219815 91.286215 
L 88.637428 91.292413 
L 86.979174 91.293134 
L 85.765288 91.293153 
L 82.802942 91.293153 
z
" clip-path="url(#pe516ab3cdd)" style="fill: #ff7f0e; fill-opacity: 0.3"/>
   </g>
   <g id="matplotlib.axis_1">
    <g id="xtick_1">
     <g id="line2d_1">
      <defs>
       <path id="m226a8ae898" d="M 0 0 
L 0 3.5 
" style="stroke: #000000; stroke-width: 0.8"/>
      </defs>
      <g>
       <use xlink:href="#m226a8ae898" x="82.802942" y="94.156875" style="stroke: #000000; stroke-width: 0.8"/>
      </g>
     </g>
     <g id="text_1">
      <!-- 0 -->
      <g transform="translate(79.552942 110.179687) scale(0.13 -0.13)">
       <defs>
        <path id="LMRoman10-Regular-30" d="M 2944 2048 
C 2944 2560 2912 3072 2688 3546 
C 2394 4160 1869 4262 1600 4262 
C 1216 4262 749 4096 486 3501 
C 282 3059 250 2560 250 2048 
C 250 1568 275 992 538 506 
C 813 -13 1280 -141 1594 -141 
C 1939 -141 2426 -6 2707 602 
C 2912 1043 2944 1542 2944 2048 
z
M 2413 2125 
C 2413 1645 2413 1210 2342 800 
C 2246 192 1882 0 1594 0 
C 1344 0 966 160 851 774 
C 781 1158 781 1747 781 2125 
C 781 2534 781 2957 832 3302 
C 954 4064 1434 4122 1594 4122 
C 1805 4122 2227 4006 2349 3373 
C 2413 3014 2413 2528 2413 2125 
z
" transform="scale(0.015625)"/>
       </defs>
       <use xlink:href="#LMRoman10-Regular-30"/>
      </g>
     </g>
    </g>
    <g id="xtick_2">
     <g id="line2d_2">
      <g>
       <use xlink:href="#m226a8ae898" x="145.231362" y="94.156875" style="stroke: #000000; stroke-width: 0.8"/>
      </g>
     </g>
     <g id="text_2">
      <!-- 20 -->
      <g transform="translate(138.731362 110.179687) scale(0.13 -0.13)">
       <defs>
        <path id="LMRoman10-Regular-32" d="M 2874 1114 
L 2714 1114 
C 2682 922 2637 640 2573 544 
C 2528 493 2106 493 1965 493 
L 813 493 
L 1491 1152 
C 2490 2035 2874 2381 2874 3021 
C 2874 3750 2298 4262 1517 4262 
C 794 4262 320 3674 320 3104 
C 320 2746 640 2746 659 2746 
C 768 2746 992 2822 992 3085 
C 992 3251 877 3418 653 3418 
C 602 3418 589 3418 570 3411 
C 717 3827 1062 4064 1434 4064 
C 2016 4064 2291 3546 2291 3021 
C 2291 2509 1971 2003 1619 1606 
L 390 237 
C 320 166 320 154 320 0 
L 2694 0 
L 2874 1114 
z
" transform="scale(0.015625)"/>
       </defs>
       <use xlink:href="#LMRoman10-Regular-32"/>
       <use xlink:href="#LMRoman10-Regular-30" x="49.999985"/>
      </g>
     </g>
    </g>
    <g id="xtick_3">
     <g id="line2d_3">
      <g>
       <use xlink:href="#m226a8ae898" x="207.659782" y="94.156875" style="stroke: #000000; stroke-width: 0.8"/>
      </g>
     </g>
     <g id="text_3">
      <!-- 40 -->
      <g transform="translate(201.159782 110.179687) scale(0.13 -0.13)">
       <defs>
        <path id="LMRoman10-Regular-34" d="M 3014 1056 
L 3014 1254 
L 2374 1254 
L 2374 4166 
C 2374 4294 2374 4333 2272 4333 
C 2214 4333 2195 4333 2144 4256 
L 179 1254 
L 179 1056 
L 1882 1056 
L 1882 499 
C 1882 269 1869 198 1395 198 
L 1261 198 
L 1261 0 
C 1523 19 1856 19 2125 19 
C 2394 19 2733 19 2995 0 
L 2995 198 
L 2861 198 
C 2387 198 2374 269 2374 499 
L 2374 1056 
L 3014 1056 
z
M 1920 1254 
L 358 1254 
L 1920 3642 
L 1920 1254 
z
" transform="scale(0.015625)"/>
       </defs>
       <use xlink:href="#LMRoman10-Regular-34"/>
       <use xlink:href="#LMRoman10-Regular-30" x="49.999985"/>
      </g>
     </g>
    </g>
    <g id="text_4">
     <!-- $t$ [$\text{days}$] -->
     <g transform="translate(121.232364 126.5825) scale(0.13 -0.13)">
      <defs>
       <path id="DejaVuSans-Oblique-74" d="M 2706 3500 
L 2619 3053 
L 1472 3053 
L 1100 1153 
Q 1081 1047 1072 975 
Q 1063 903 1063 863 
Q 1063 663 1183 572 
Q 1303 481 1569 481 
L 2150 481 
L 2053 0 
L 1503 0 
Q 991 0 739 200 
Q 488 400 488 806 
Q 488 878 497 964 
Q 506 1050 525 1153 
L 897 3053 
L 409 3053 
L 500 3500 
L 978 3500 
L 1172 4494 
L 1747 4494 
L 1556 3500 
L 2706 3500 
z
" transform="scale(0.015625)"/>
       <path id="LMRoman10-Regular-20" transform="scale(0.015625)"/>
       <path id="LMRoman10-Regular-5b" d="M 1632 -1600 
L 1632 -1344 
L 1011 -1344 
L 1011 4544 
L 1632 4544 
L 1632 4800 
L 755 4800 
L 755 -1600 
L 1632 -1600 
z
" transform="scale(0.015625)"/>
       <path id="DejaVuSans-64" d="M 2906 2969 
L 2906 4863 
L 3481 4863 
L 3481 0 
L 2906 0 
L 2906 525 
Q 2725 213 2448 61 
Q 2172 -91 1784 -91 
Q 1150 -91 751 415 
Q 353 922 353 1747 
Q 353 2572 751 3078 
Q 1150 3584 1784 3584 
Q 2172 3584 2448 3432 
Q 2725 3281 2906 2969 
z
M 947 1747 
Q 947 1113 1208 752 
Q 1469 391 1925 391 
Q 2381 391 2643 752 
Q 2906 1113 2906 1747 
Q 2906 2381 2643 2742 
Q 2381 3103 1925 3103 
Q 1469 3103 1208 2742 
Q 947 2381 947 1747 
z
" transform="scale(0.015625)"/>
       <path id="DejaVuSans-61" d="M 2194 1759 
Q 1497 1759 1228 1600 
Q 959 1441 959 1056 
Q 959 750 1161 570 
Q 1363 391 1709 391 
Q 2188 391 2477 730 
Q 2766 1069 2766 1631 
L 2766 1759 
L 2194 1759 
z
M 3341 1997 
L 3341 0 
L 2766 0 
L 2766 531 
Q 2569 213 2275 61 
Q 1981 -91 1556 -91 
Q 1019 -91 701 211 
Q 384 513 384 1019 
Q 384 1609 779 1909 
Q 1175 2209 1959 2209 
L 2766 2209 
L 2766 2266 
Q 2766 2663 2505 2880 
Q 2244 3097 1772 3097 
Q 1472 3097 1187 3025 
Q 903 2953 641 2809 
L 641 3341 
Q 956 3463 1253 3523 
Q 1550 3584 1831 3584 
Q 2591 3584 2966 3190 
Q 3341 2797 3341 1997 
z
" transform="scale(0.015625)"/>
       <path id="DejaVuSans-79" d="M 2059 -325 
Q 1816 -950 1584 -1140 
Q 1353 -1331 966 -1331 
L 506 -1331 
L 506 -850 
L 844 -850 
Q 1081 -850 1212 -737 
Q 1344 -625 1503 -206 
L 1606 56 
L 191 3500 
L 800 3500 
L 1894 763 
L 2988 3500 
L 3597 3500 
L 2059 -325 
z
" transform="scale(0.015625)"/>
       <path id="DejaVuSans-73" d="M 2834 3397 
L 2834 2853 
Q 2591 2978 2328 3040 
Q 2066 3103 1784 3103 
Q 1356 3103 1142 2972 
Q 928 2841 928 2578 
Q 928 2378 1081 2264 
Q 1234 2150 1697 2047 
L 1894 2003 
Q 2506 1872 2764 1633 
Q 3022 1394 3022 966 
Q 3022 478 2636 193 
Q 2250 -91 1575 -91 
Q 1294 -91 989 -36 
Q 684 19 347 128 
L 347 722 
Q 666 556 975 473 
Q 1284 391 1588 391 
Q 1994 391 2212 530 
Q 2431 669 2431 922 
Q 2431 1156 2273 1281 
Q 2116 1406 1581 1522 
L 1381 1569 
Q 847 1681 609 1914 
Q 372 2147 372 2553 
Q 372 3047 722 3315 
Q 1072 3584 1716 3584 
Q 2034 3584 2315 3537 
Q 2597 3491 2834 3397 
z
" transform="scale(0.015625)"/>
       <path id="LMRoman10-Regular-5d" d="M 1018 -1600 
L 1018 4800 
L 141 4800 
L 141 4544 
L 762 4544 
L 762 -1344 
L 141 -1344 
L 141 -1600 
L 1018 -1600 
z
" transform="scale(0.015625)"/>
      </defs>
      <use xlink:href="#DejaVuSans-Oblique-74" transform="translate(0 0.015625)"/>
      <use xlink:href="#LMRoman10-Regular-20" transform="translate(39.208984 0.015625)"/>
      <use xlink:href="#LMRoman10-Regular-5b" transform="translate(72.508972 0.015625)"/>
      <use xlink:href="#DejaVuSans-64" transform="translate(100.30896 0.015625)"/>
      <use xlink:href="#DejaVuSans-61" transform="translate(163.785522 0.015625)"/>
      <use xlink:href="#DejaVuSans-79" transform="translate(225.064819 0.015625)"/>
      <use xlink:href="#DejaVuSans-73" transform="translate(284.244507 0.015625)"/>
      <use xlink:href="#LMRoman10-Regular-5d" transform="translate(336.344116 0.015625)"/>
     </g>
    </g>
   </g>
   <g id="matplotlib.axis_2">
    <g id="ytick_1">
     <g id="line2d_4">
      <defs>
       <path id="meb8d232ae3" d="M 0 0 
L -3.5 0 
" style="stroke: #000000; stroke-width: 0.8"/>
      </defs>
      <g>
       <use xlink:href="#meb8d232ae3" x="76.5875" y="91.293153" style="stroke: #000000; stroke-width: 0.8"/>
      </g>
     </g>
     <g id="text_5">
      <!-- 0.0000 -->
      <g transform="translate(33.473906 95.80456) scale(0.13 -0.13)">
       <defs>
        <path id="LMRoman10-Regular-2e" d="M 1229 339 
C 1229 525 1075 678 890 678 
C 704 678 550 525 550 339 
C 550 154 704 0 890 0 
C 1075 0 1229 154 1229 339 
z
" transform="scale(0.015625)"/>
       </defs>
       <use xlink:href="#LMRoman10-Regular-30"/>
       <use xlink:href="#LMRoman10-Regular-2e" x="49.999985"/>
       <use xlink:href="#LMRoman10-Regular-30" x="77.799973"/>
       <use xlink:href="#LMRoman10-Regular-30" x="127.799957"/>
       <use xlink:href="#LMRoman10-Regular-30" x="177.799942"/>
       <use xlink:href="#LMRoman10-Regular-30" x="227.799927"/>
      </g>
     </g>
    </g>
    <g id="ytick_2">
     <g id="line2d_5">
      <g>
       <use xlink:href="#meb8d232ae3" x="76.5875" y="65.459864" style="stroke: #000000; stroke-width: 0.8"/>
      </g>
     </g>
     <g id="text_6">
      <!-- 0.0025 -->
      <g transform="translate(33.473906 69.971271) scale(0.13 -0.13)">
       <defs>
        <path id="LMRoman10-Regular-35" d="M 2874 1286 
C 2874 2048 2349 2688 1658 2688 
C 1350 2688 1075 2586 845 2362 
L 845 3610 
C 973 3571 1184 3526 1389 3526 
C 2176 3526 2624 4109 2624 4192 
C 2624 4230 2605 4262 2560 4262 
C 2560 4262 2541 4262 2509 4243 
C 2381 4186 2067 4058 1638 4058 
C 1382 4058 1088 4102 787 4237 
C 736 4256 710 4256 710 4256 
C 646 4256 646 4205 646 4102 
L 646 2208 
C 646 2093 646 2042 736 2042 
C 781 2042 794 2061 819 2099 
C 890 2202 1126 2547 1645 2547 
C 1978 2547 2138 2253 2189 2138 
C 2291 1901 2304 1651 2304 1331 
C 2304 1107 2304 723 2150 454 
C 1997 205 1760 38 1466 38 
C 998 38 634 378 525 755 
C 544 749 563 742 634 742 
C 845 742 954 902 954 1056 
C 954 1210 845 1370 634 1370 
C 544 1370 320 1325 320 1030 
C 320 480 762 -141 1478 -141 
C 2221 -141 2874 474 2874 1286 
z
" transform="scale(0.015625)"/>
       </defs>
       <use xlink:href="#LMRoman10-Regular-30"/>
       <use xlink:href="#LMRoman10-Regular-2e" x="49.999985"/>
       <use xlink:href="#LMRoman10-Regular-30" x="77.799973"/>
       <use xlink:href="#LMRoman10-Regular-30" x="127.799957"/>
       <use xlink:href="#LMRoman10-Regular-32" x="177.799942"/>
       <use xlink:href="#LMRoman10-Regular-35" x="227.799927"/>
      </g>
     </g>
    </g>
    <g id="ytick_3">
     <g id="line2d_6">
      <g>
       <use xlink:href="#meb8d232ae3" x="76.5875" y="39.626575" style="stroke: #000000; stroke-width: 0.8"/>
      </g>
     </g>
     <g id="text_7">
      <!-- 0.0050 -->
      <g transform="translate(33.473906 44.137982) scale(0.13 -0.13)">
       <use xlink:href="#LMRoman10-Regular-30"/>
       <use xlink:href="#LMRoman10-Regular-2e" x="49.999985"/>
       <use xlink:href="#LMRoman10-Regular-30" x="77.799973"/>
       <use xlink:href="#LMRoman10-Regular-30" x="127.799957"/>
       <use xlink:href="#LMRoman10-Regular-35" x="177.799942"/>
       <use xlink:href="#LMRoman10-Regular-30" x="227.799927"/>
      </g>
     </g>
    </g>
    <g id="text_8">
     <!-- $c$ [$mg/L$] -->
     <g transform="translate(26.223906 88.330937) rotate(-90) scale(0.13 -0.13)">
      <defs>
       <path id="DejaVuSans-Oblique-63" d="M 3431 3366 
L 3316 2797 
Q 3109 2947 2876 3022 
Q 2644 3097 2394 3097 
Q 2119 3097 1870 3000 
Q 1622 2903 1453 2725 
Q 1184 2453 1037 2087 
Q 891 1722 891 1331 
Q 891 859 1127 628 
Q 1363 397 1844 397 
Q 2081 397 2348 469 
Q 2616 541 2906 684 
L 2797 116 
Q 2547 13 2283 -39 
Q 2019 -91 1741 -91 
Q 1044 -91 669 257 
Q 294 606 294 1253 
Q 294 1797 489 2255 
Q 684 2713 1069 3078 
Q 1331 3328 1684 3456 
Q 2038 3584 2456 3584 
Q 2700 3584 2940 3529 
Q 3181 3475 3431 3366 
z
" transform="scale(0.015625)"/>
       <path id="DejaVuSans-Oblique-6d" d="M 5747 2113 
L 5338 0 
L 4763 0 
L 5166 2094 
Q 5191 2228 5203 2325 
Q 5216 2422 5216 2491 
Q 5216 2772 5059 2928 
Q 4903 3084 4622 3084 
Q 4203 3084 3875 2770 
Q 3547 2456 3450 1953 
L 3066 0 
L 2491 0 
L 2900 2094 
Q 2925 2209 2937 2307 
Q 2950 2406 2950 2484 
Q 2950 2769 2794 2926 
Q 2638 3084 2363 3084 
Q 1938 3084 1609 2770 
Q 1281 2456 1184 1953 
L 800 0 
L 225 0 
L 909 3500 
L 1484 3500 
L 1375 2956 
Q 1609 3263 1923 3423 
Q 2238 3584 2597 3584 
Q 2978 3584 3223 3384 
Q 3469 3184 3519 2828 
Q 3781 3197 4126 3390 
Q 4472 3584 4856 3584 
Q 5306 3584 5551 3325 
Q 5797 3066 5797 2591 
Q 5797 2488 5784 2364 
Q 5772 2241 5747 2113 
z
" transform="scale(0.015625)"/>
       <path id="DejaVuSans-Oblique-67" d="M 3816 3500 
L 3219 434 
Q 3047 -456 2561 -893 
Q 2075 -1331 1253 -1331 
Q 950 -1331 690 -1286 
Q 431 -1241 206 -1147 
L 313 -588 
Q 525 -725 762 -790 
Q 1000 -856 1269 -856 
Q 1816 -856 2167 -557 
Q 2519 -259 2631 300 
L 2681 563 
Q 2441 288 2122 144 
Q 1803 0 1434 0 
Q 903 0 598 351 
Q 294 703 294 1319 
Q 294 1803 478 2267 
Q 663 2731 997 3091 
Q 1219 3328 1514 3456 
Q 1809 3584 2131 3584 
Q 2484 3584 2746 3420 
Q 3009 3256 3138 2956 
L 3238 3500 
L 3816 3500 
z
M 2950 2216 
Q 2950 2641 2750 2872 
Q 2550 3103 2181 3103 
Q 1953 3103 1747 3012 
Q 1541 2922 1394 2759 
Q 1156 2491 1023 2127 
Q 891 1763 891 1375 
Q 891 944 1092 712 
Q 1294 481 1672 481 
Q 2219 481 2584 976 
Q 2950 1472 2950 2216 
z
" transform="scale(0.015625)"/>
       <path id="DejaVuSans-2f" d="M 1625 4666 
L 2156 4666 
L 531 -594 
L 0 -594 
L 1625 4666 
z
" transform="scale(0.015625)"/>
       <path id="DejaVuSans-Oblique-4c" d="M 1075 4666 
L 1709 4666 
L 909 525 
L 3181 525 
L 3078 0 
L 172 0 
L 1075 4666 
z
" transform="scale(0.015625)"/>
      </defs>
      <use xlink:href="#DejaVuSans-Oblique-63"/>
      <use xlink:href="#LMRoman10-Regular-20" transform="translate(54.980469 0)"/>
      <use xlink:href="#LMRoman10-Regular-5b" transform="translate(88.280457 0)"/>
      <use xlink:href="#DejaVuSans-Oblique-6d" transform="translate(116.080444 0)"/>
      <use xlink:href="#DejaVuSans-Oblique-67" transform="translate(213.492554 0)"/>
      <use xlink:href="#DejaVuSans-2f" transform="translate(276.969116 0)"/>
      <use xlink:href="#DejaVuSans-Oblique-4c" transform="translate(310.660522 0)"/>
      <use xlink:href="#LMRoman10-Regular-5d" transform="translate(366.373413 0)"/>
     </g>
    </g>
   </g>
   <g id="patch_3">
    <path d="M 76.5875 94.156875 
L 76.5875 31.155 
" style="fill: none; stroke: #000000; stroke-width: 0.8; stroke-linejoin: miter; stroke-linecap: square"/>
   </g>
   <g id="patch_4">
    <path d="M 213.327228 94.156875 
L 213.327228 31.155 
" style="fill: none; stroke: #000000; stroke-width: 0.8; stroke-linejoin: miter; stroke-linecap: square"/>
   </g>
   <g id="patch_5">
    <path d="M 76.5875 94.156875 
L 213.327228 94.156875 
" style="fill: none; stroke: #000000; stroke-width: 0.8; stroke-linejoin: miter; stroke-linecap: square"/>
   </g>
   <g id="patch_6">
    <path d="M 76.5875 31.155 
L 213.327228 31.155 
" style="fill: none; stroke: #000000; stroke-width: 0.8; stroke-linejoin: miter; stroke-linecap: square"/>
   </g>
   <g id="text_9">
    <!-- Core 1 -->
    <g transform="translate(122.406833 25.155) scale(0.156 -0.156)">
     <defs>
      <path id="LMRoman10-Regular-43" d="M 4256 1491 
C 4256 1555 4256 1600 4173 1600 
C 4102 1600 4102 1562 4096 1498 
C 4045 582 3360 58 2662 58 
C 2272 58 1018 275 1018 2182 
C 1018 4096 2266 4314 2656 4314 
C 3354 4314 3923 3731 4051 2797 
C 4064 2707 4064 2688 4154 2688 
C 4256 2688 4256 2707 4256 2842 
L 4256 4358 
C 4256 4467 4256 4512 4186 4512 
C 4160 4512 4134 4512 4083 4435 
L 3763 3962 
C 3526 4192 3200 4512 2586 4512 
C 1389 4512 358 3494 358 2189 
C 358 864 1395 -141 2586 -141 
C 3629 -141 4256 749 4256 1491 
z
" transform="scale(0.015625)"/>
      <path id="LMRoman10-Regular-6f" d="M 3014 1370 
C 3014 2189 2374 2867 1600 2867 
C 800 2867 179 2170 179 1370 
C 179 544 845 -70 1594 -70 
C 2368 -70 3014 557 3014 1370 
z
M 2483 1421 
C 2483 1190 2483 845 2342 563 
C 2202 275 1920 90 1600 90 
C 1325 90 1043 224 870 518 
C 710 800 710 1190 710 1421 
C 710 1670 710 2016 864 2298 
C 1037 2592 1338 2726 1594 2726 
C 1875 2726 2150 2586 2317 2310 
C 2483 2035 2483 1664 2483 1421 
z
" transform="scale(0.015625)"/>
      <path id="LMRoman10-Regular-72" d="M 2330 2438 
C 2330 2643 2131 2829 1856 2829 
C 1389 2829 1158 2400 1069 2125 
L 1069 2829 
L 179 2758 
L 179 2560 
C 627 2560 678 2515 678 2202 
L 678 486 
C 678 198 608 198 179 198 
L 179 0 
L 909 19 
C 1165 19 1466 19 1722 0 
L 1722 198 
L 1587 198 
C 1114 198 1101 269 1101 499 
L 1101 1485 
C 1101 2118 1370 2688 1856 2688 
C 1901 2688 1914 2688 1926 2682 
C 1907 2675 1779 2598 1779 2432 
C 1779 2253 1914 2157 2054 2157 
C 2170 2157 2330 2234 2330 2438 
z
" transform="scale(0.015625)"/>
      <path id="LMRoman10-Regular-65" d="M 2656 762 
C 2656 826 2605 838 2573 838 
C 2515 838 2502 800 2490 749 
C 2266 90 1690 90 1626 90 
C 1306 90 1050 282 902 518 
C 710 826 710 1248 710 1478 
L 2496 1478 
C 2637 1478 2656 1478 2656 1613 
C 2656 2246 2310 2867 1510 2867 
C 768 2867 179 2208 179 1408 
C 179 550 851 -70 1587 -70 
C 2368 -70 2656 640 2656 762 
z
M 2234 1613 
L 717 1613 
C 755 2566 1293 2726 1510 2726 
C 2170 2726 2234 1862 2234 1613 
z
" transform="scale(0.015625)"/>
      <path id="LMRoman10-Regular-31" d="M 2682 0 
L 2682 198 
L 2477 198 
C 1901 198 1882 269 1882 506 
L 1882 4096 
C 1882 4250 1882 4262 1734 4262 
C 1338 3853 774 3853 570 3853 
L 570 3654 
C 698 3654 1075 3654 1408 3821 
L 1408 506 
C 1408 275 1389 198 813 198 
L 608 198 
L 608 0 
C 832 19 1389 19 1645 19 
C 1901 19 2458 19 2682 0 
z
" transform="scale(0.015625)"/>
     </defs>
     <use xlink:href="#LMRoman10-Regular-43"/>
     <use xlink:href="#LMRoman10-Regular-6f" x="72.199982"/>
     <use xlink:href="#LMRoman10-Regular-72" x="122.199966"/>
     <use xlink:href="#LMRoman10-Regular-65" x="161.399963"/>
     <use xlink:href="#LMRoman10-Regular-20" x="205.799957"/>
     <use xlink:href="#LMRoman10-Regular-31" x="239.099945"/>
    </g>
   </g>
  </g>
  <g id="axes_2">
   <g id="patch_7">
    <path d="M 272.940272 94.156875 
L 409.68 94.156875 
L 409.68 31.155 
L 272.940272 31.155 
z
" style="fill: #ffffff"/>
   </g>
   <g id="PathCollection_2">
    <g clip-path="url(#pc3c4a19f43)">
     <use xlink:href="#mc9498831d6" x="279.155714" y="91.293153" style="fill: #ff0000; fill-opacity: 0.5; stroke: #ff0000; stroke-opacity: 0.5"/>
     <use xlink:href="#mc9498831d6" x="281.772492" y="90.299777" style="fill: #ff0000; fill-opacity: 0.5; stroke: #ff0000; stroke-opacity: 0.5"/>
     <use xlink:href="#mc9498831d6" x="283.456759" y="90.655243" style="fill: #ff0000; fill-opacity: 0.5; stroke: #ff0000; stroke-opacity: 0.5"/>
     <use xlink:href="#mc9498831d6" x="285.023972" y="90.66351" style="fill: #ff0000; fill-opacity: 0.5; stroke: #ff0000; stroke-opacity: 0.5"/>
     <use xlink:href="#mc9498831d6" x="286.584683" y="90.75341" style="fill: #ff0000; fill-opacity: 0.5; stroke: #ff0000; stroke-opacity: 0.5"/>
     <use xlink:href="#mc9498831d6" x="288.145393" y="90.51161" style="fill: #ff0000; fill-opacity: 0.5; stroke: #ff0000; stroke-opacity: 0.5"/>
     <use xlink:href="#mc9498831d6" x="289.597721" y="90.92081" style="fill: #ff0000; fill-opacity: 0.5; stroke: #ff0000; stroke-opacity: 0.5"/>
     <use xlink:href="#mc9498831d6" x="291.180108" y="90.876376" style="fill: #ff0000; fill-opacity: 0.5; stroke: #ff0000; stroke-opacity: 0.5"/>
     <use xlink:href="#mc9498831d6" x="292.762495" y="90.92391" style="fill: #ff0000; fill-opacity: 0.5; stroke: #ff0000; stroke-opacity: 0.5"/>
     <use xlink:href="#mc9498831d6" x="294.401241" y="90.921843" style="fill: #ff0000; fill-opacity: 0.5; stroke: #ff0000; stroke-opacity: 0.5"/>
     <use xlink:href="#mc9498831d6" x="295.879581" y="90.938376" style="fill: #ff0000; fill-opacity: 0.5; stroke: #ff0000; stroke-opacity: 0.5"/>
     <use xlink:href="#mc9498831d6" x="297.513991" y="90.96731" style="fill: #ff0000; fill-opacity: 0.5; stroke: #ff0000; stroke-opacity: 0.5"/>
     <use xlink:href="#mc9498831d6" x="299.081205" y="90.93631" style="fill: #ff0000; fill-opacity: 0.5; stroke: #ff0000; stroke-opacity: 0.5"/>
     <use xlink:href="#mc9498831d6" x="300.5357" y="90.992109" style="fill: #ff0000; fill-opacity: 0.5; stroke: #ff0000; stroke-opacity: 0.5"/>
     <use xlink:href="#mc9498831d6" x="302.029214" y="90.602543" style="fill: #ff0000; fill-opacity: 0.5; stroke: #ff0000; stroke-opacity: 0.5"/>
     <use xlink:href="#mc9498831d6" x="305.655698" y="88.925446" style="fill: #ff0000; fill-opacity: 0.5; stroke: #ff0000; stroke-opacity: 0.5"/>
     <use xlink:href="#mc9498831d6" x="308.824807" y="84.521387" style="fill: #ff0000; fill-opacity: 0.5; stroke: #ff0000; stroke-opacity: 0.5"/>
     <use xlink:href="#mc9498831d6" x="311.874696" y="82.409258" style="fill: #ff0000; fill-opacity: 0.5; stroke: #ff0000; stroke-opacity: 0.5"/>
     <use xlink:href="#mc9498831d6" x="314.902908" y="81.917392" style="fill: #ff0000; fill-opacity: 0.5; stroke: #ff0000; stroke-opacity: 0.5"/>
     <use xlink:href="#mc9498831d6" x="317.989646" y="77.226066" style="fill: #ff0000; fill-opacity: 0.5; stroke: #ff0000; stroke-opacity: 0.5"/>
     <use xlink:href="#mc9498831d6" x="321.004852" y="74.048572" style="fill: #ff0000; fill-opacity: 0.5; stroke: #ff0000; stroke-opacity: 0.5"/>
     <use xlink:href="#mc9498831d6" x="324.076417" y="68.262948" style="fill: #ff0000; fill-opacity: 0.5; stroke: #ff0000; stroke-opacity: 0.5"/>
     <use xlink:href="#mc9498831d6" x="327.293215" y="67.209984" style="fill: #ff0000; fill-opacity: 0.5; stroke: #ff0000; stroke-opacity: 0.5"/>
     <use xlink:href="#mc9498831d6" x="330.663916" y="62.742891" style="fill: #ff0000; fill-opacity: 0.5; stroke: #ff0000; stroke-opacity: 0.5"/>
     <use xlink:href="#mc9498831d6" x="336.572939" y="59.639797" style="fill: #ff0000; fill-opacity: 0.5; stroke: #ff0000; stroke-opacity: 0.5"/>
     <use xlink:href="#mc9498831d6" x="339.631498" y="56.380669" style="fill: #ff0000; fill-opacity: 0.5; stroke: #ff0000; stroke-opacity: 0.5"/>
     <use xlink:href="#mc9498831d6" x="342.945841" y="56.157469" style="fill: #ff0000; fill-opacity: 0.5; stroke: #ff0000; stroke-opacity: 0.5"/>
     <use xlink:href="#mc9498831d6" x="346.136626" y="53.216608" style="fill: #ff0000; fill-opacity: 0.5; stroke: #ff0000; stroke-opacity: 0.5"/>
     <use xlink:href="#mc9498831d6" x="349.375101" y="52.244243" style="fill: #ff0000; fill-opacity: 0.5; stroke: #ff0000; stroke-opacity: 0.5"/>
     <use xlink:href="#mc9498831d6" x="350.905464" y="52.631742" style="fill: #ff0000; fill-opacity: 0.5; stroke: #ff0000; stroke-opacity: 0.5"/>
     <use xlink:href="#mc9498831d6" x="352.25808" y="52.802242" style="fill: #ff0000; fill-opacity: 0.5; stroke: #ff0000; stroke-opacity: 0.5"/>
     <use xlink:href="#mc9498831d6" x="354.018214" y="48.15845" style="fill: #ff0000; fill-opacity: 0.5; stroke: #ff0000; stroke-opacity: 0.5"/>
     <use xlink:href="#mc9498831d6" x="355.641787" y="48.813582" style="fill: #ff0000; fill-opacity: 0.5; stroke: #ff0000; stroke-opacity: 0.5"/>
     <use xlink:href="#mc9498831d6" x="358.639652" y="49.846913" style="fill: #ff0000; fill-opacity: 0.5; stroke: #ff0000; stroke-opacity: 0.5"/>
     <use xlink:href="#mc9498831d6" x="360.120159" y="45.351921" style="fill: #ff0000; fill-opacity: 0.5; stroke: #ff0000; stroke-opacity: 0.5"/>
     <use xlink:href="#mc9498831d6" x="361.639684" y="48.203916" style="fill: #ff0000; fill-opacity: 0.5; stroke: #ff0000; stroke-opacity: 0.5"/>
     <use xlink:href="#mc9498831d6" x="363.56456" y="45.873754" style="fill: #ff0000; fill-opacity: 0.5; stroke: #ff0000; stroke-opacity: 0.5"/>
     <use xlink:href="#mc9498831d6" x="365.140444" y="47.036252" style="fill: #ff0000; fill-opacity: 0.5; stroke: #ff0000; stroke-opacity: 0.5"/>
     <use xlink:href="#mc9498831d6" x="366.685981" y="45.605087" style="fill: #ff0000; fill-opacity: 0.5; stroke: #ff0000; stroke-opacity: 0.5"/>
     <use xlink:href="#mc9498831d6" x="367.969232" y="44.840422" style="fill: #ff0000; fill-opacity: 0.5; stroke: #ff0000; stroke-opacity: 0.5"/>
     <use xlink:href="#mc9498831d6" x="369.794396" y="43.879424" style="fill: #ff0000; fill-opacity: 0.5; stroke: #ff0000; stroke-opacity: 0.5"/>
     <use xlink:href="#mc9498831d6" x="372.347892" y="43.615924" style="fill: #ff0000; fill-opacity: 0.5; stroke: #ff0000; stroke-opacity: 0.5"/>
     <use xlink:href="#mc9498831d6" x="372.555084" y="42.701426" style="fill: #ff0000; fill-opacity: 0.5; stroke: #ff0000; stroke-opacity: 0.5"/>
     <use xlink:href="#mc9498831d6" x="374.472193" y="42.127927" style="fill: #ff0000; fill-opacity: 0.5; stroke: #ff0000; stroke-opacity: 0.5"/>
     <use xlink:href="#mc9498831d6" x="375.870329" y="40.882762" style="fill: #ff0000; fill-opacity: 0.5; stroke: #ff0000; stroke-opacity: 0.5"/>
     <use xlink:href="#mc9498831d6" x="377.36601" y="41.053262" style="fill: #ff0000; fill-opacity: 0.5; stroke: #ff0000; stroke-opacity: 0.5"/>
     <use xlink:href="#mc9498831d6" x="381.339319" y="38.506099" style="fill: #ff0000; fill-opacity: 0.5; stroke: #ff0000; stroke-opacity: 0.5"/>
     <use xlink:href="#mc9498831d6" x="384.989647" y="41.383928" style="fill: #ff0000; fill-opacity: 0.5; stroke: #ff0000; stroke-opacity: 0.5"/>
     <use xlink:href="#mc9498831d6" x="387.629849" y="37.927434" style="fill: #ff0000; fill-opacity: 0.5; stroke: #ff0000; stroke-opacity: 0.5"/>
     <use xlink:href="#mc9498831d6" x="390.863988" y="35.462938" style="fill: #ff0000; fill-opacity: 0.5; stroke: #ff0000; stroke-opacity: 0.5"/>
     <use xlink:href="#mc9498831d6" x="394.074283" y="37.028435" style="fill: #ff0000; fill-opacity: 0.5; stroke: #ff0000; stroke-opacity: 0.5"/>
     <use xlink:href="#mc9498831d6" x="397.648744" y="38.139267" style="fill: #ff0000; fill-opacity: 0.5; stroke: #ff0000; stroke-opacity: 0.5"/>
     <use xlink:href="#mc9498831d6" x="401.069301" y="34.507106" style="fill: #ff0000; fill-opacity: 0.5; stroke: #ff0000; stroke-opacity: 0.5"/>
     <use xlink:href="#mc9498831d6" x="401.875668" y="34.977272" style="fill: #ff0000; fill-opacity: 0.5; stroke: #ff0000; stroke-opacity: 0.5"/>
     <use xlink:href="#mc9498831d6" x="403.464558" y="34.51744" style="fill: #ff0000; fill-opacity: 0.5; stroke: #ff0000; stroke-opacity: 0.5"/>
    </g>
   </g>
   <g id="PolyCollection_3">
    <path d="M 279.155714 91.293153 
L 279.155714 91.293153 
L 281.772492 91.293153 
L 283.456759 91.293153 
L 285.023972 91.293153 
L 286.584683 91.293149 
L 288.145393 91.293089 
L 289.597721 91.292725 
L 291.180108 91.290862 
L 292.762495 91.284123 
L 294.401241 91.263808 
L 295.879581 91.221046 
L 297.513991 91.124419 
L 299.081205 90.953586 
L 300.5357 90.695815 
L 302.029214 90.301031 
L 305.655698 88.655724 
L 308.824807 86.71999 
L 311.874696 84.440695 
L 314.902908 81.923403 
L 317.989646 79.157521 
L 321.004852 76.390444 
L 324.076417 73.675449 
L 327.293215 70.987603 
L 330.663916 68.228856 
L 336.572939 63.621166 
L 339.631498 61.379773 
L 342.945841 59.073029 
L 346.136626 56.97596 
L 349.375101 54.973467 
L 350.905464 54.071014 
L 352.25808 53.296119 
L 354.018214 52.319481 
L 355.641787 51.450482 
L 358.639652 49.923031 
L 360.120159 49.204753 
L 361.639684 48.491141 
L 363.56456 47.627253 
L 365.140444 46.999165 
L 366.685981 46.402359 
L 367.969232 45.924565 
L 369.794396 45.264081 
L 372.347892 44.382389 
L 372.555084 44.311894 
L 374.472193 43.686876 
L 375.870329 43.243558 
L 377.36601 42.786818 
L 381.339319 41.643655 
L 384.989647 40.676843 
L 387.629849 40.025178 
L 390.863988 39.245861 
L 394.074283 38.514791 
L 397.648744 37.763944 
L 401.069301 37.101592 
L 401.875668 36.953511 
L 403.464558 36.669065 
L 403.464558 34.018722 
L 403.464558 34.018722 
L 401.875668 34.23451 
L 401.069301 34.347679 
L 397.648744 34.852108 
L 394.074283 35.41707 
L 390.863988 35.97235 
L 387.629849 36.583138 
L 384.989647 37.122602 
L 381.339319 37.933095 
L 377.36601 38.911237 
L 375.870329 39.306735 
L 374.472193 39.69179 
L 372.555084 40.242621 
L 372.347892 40.304022 
L 369.794396 41.110459 
L 367.969232 41.734631 
L 366.685981 42.192179 
L 365.140444 42.764585 
L 363.56456 43.361379 
L 361.639684 44.094525 
L 360.120159 44.698555 
L 358.639652 45.312321 
L 355.641787 46.687207 
L 354.018214 47.489296 
L 352.25808 48.39708 
L 350.905464 49.122943 
L 349.375101 49.974234 
L 346.136626 51.88367 
L 342.945841 53.823155 
L 339.631498 56.026688 
L 336.572939 58.271733 
L 330.663916 62.948293 
L 327.293215 65.789088 
L 324.076417 68.785413 
L 321.004852 71.580856 
L 317.989646 74.693017 
L 314.902908 77.753619 
L 311.874696 80.52504 
L 308.824807 83.160753 
L 305.655698 85.622524 
L 302.029214 87.994492 
L 300.5357 88.788659 
L 299.081205 89.449742 
L 297.513991 90.035761 
L 295.879581 90.506804 
L 294.401241 90.810272 
L 292.762495 91.042177 
L 291.180108 91.178641 
L 289.597721 91.250768 
L 288.145393 91.280029 
L 286.584683 91.290698 
L 285.023972 91.292922 
L 283.456759 91.293147 
L 281.772492 91.293153 
L 279.155714 91.293153 
z
" clip-path="url(#pc3c4a19f43)" style="fill: #1f77b4; fill-opacity: 0.3"/>
   </g>
   <g id="PolyCollection_4">
    <path d="M 279.155714 91.293153 
L 279.155714 91.293153 
L 281.772492 91.293153 
L 283.456759 91.293153 
L 285.023972 91.293151 
L 286.584683 91.293099 
L 288.145393 91.292626 
L 289.597721 91.290454 
L 291.180108 91.282319 
L 292.762495 91.259946 
L 294.401241 91.206033 
L 295.879581 91.115101 
L 297.513991 90.932277 
L 299.081205 90.650579 
L 300.5357 90.272066 
L 302.029214 89.747411 
L 305.655698 88.173474 
L 308.824807 86.270971 
L 311.874696 83.746701 
L 314.902908 81.265912 
L 317.989646 78.682866 
L 321.004852 76.06549 
L 324.076417 73.324051 
L 327.293215 70.550202 
L 330.663916 67.713918 
L 336.572939 63.006471 
L 339.631498 60.731529 
L 342.945841 58.401506 
L 346.136626 56.294199 
L 349.375101 54.327425 
L 350.905464 53.507852 
L 352.25808 52.805392 
L 354.018214 51.916864 
L 355.641787 51.124945 
L 358.639652 49.612759 
L 360.120159 48.95057 
L 361.639684 48.289736 
L 363.56456 47.422489 
L 365.140444 46.780163 
L 366.685981 46.189814 
L 367.969232 45.714449 
L 369.794396 45.054174 
L 372.347892 44.107435 
L 372.555084 44.037884 
L 374.472193 43.409133 
L 375.870329 42.967306 
L 377.36601 42.509394 
L 381.339319 41.364791 
L 384.989647 40.399033 
L 387.629849 39.74858 
L 390.863988 39.002541 
L 394.074283 38.313988 
L 397.648744 37.603781 
L 401.069301 36.976238 
L 401.875668 36.835251 
L 403.464558 36.562671 
L 403.464558 34.26347 
L 403.464558 34.26347 
L 401.875668 34.489411 
L 401.069301 34.608195 
L 397.648744 35.141097 
L 394.074283 35.754179 
L 390.863988 36.340192 
L 387.629849 36.962628 
L 384.989647 37.510265 
L 381.339319 38.331374 
L 377.36601 39.317791 
L 375.870329 39.717305 
L 374.472193 40.104509 
L 372.555084 40.658187 
L 372.347892 40.720138 
L 369.794396 41.506592 
L 367.969232 42.117561 
L 366.685981 42.57328 
L 365.140444 43.143023 
L 363.56456 43.748879 
L 361.639684 44.523575 
L 360.120159 45.141538 
L 358.639652 45.758985 
L 355.641787 47.140293 
L 354.018214 47.945262 
L 352.25808 48.855727 
L 350.905464 49.559383 
L 349.375101 50.370765 
L 346.136626 52.19454 
L 342.945841 54.143473 
L 339.631498 56.359547 
L 336.572939 58.604069 
L 330.663916 63.186711 
L 327.293215 65.894614 
L 324.076417 68.629585 
L 321.004852 71.355259 
L 317.989646 74.035548 
L 314.902908 76.79868 
L 311.874696 79.475512 
L 308.824807 82.089573 
L 305.655698 84.629531 
L 302.029214 87.174412 
L 300.5357 88.07108 
L 299.081205 88.843155 
L 297.513991 89.553603 
L 295.879581 90.153437 
L 294.401241 90.571116 
L 292.762495 90.902383 
L 291.180108 91.10631 
L 289.597721 91.21995 
L 288.145393 91.269055 
L 286.584683 91.288268 
L 285.023972 91.292644 
L 283.456759 91.293137 
L 281.772492 91.293153 
L 279.155714 91.293153 
z
" clip-path="url(#pc3c4a19f43)" style="fill: #ff7f0e; fill-opacity: 0.3"/>
   </g>
   <g id="matplotlib.axis_3">
    <g id="xtick_4">
     <g id="line2d_7">
      <g>
       <use xlink:href="#m226a8ae898" x="279.155714" y="94.156875" style="stroke: #000000; stroke-width: 0.8"/>
      </g>
     </g>
     <g id="text_10">
      <!-- 0 -->
      <g transform="translate(275.905714 110.179687) scale(0.13 -0.13)">
       <use xlink:href="#LMRoman10-Regular-30"/>
      </g>
     </g>
    </g>
    <g id="xtick_5">
     <g id="line2d_8">
      <g>
       <use xlink:href="#m226a8ae898" x="341.584134" y="94.156875" style="stroke: #000000; stroke-width: 0.8"/>
      </g>
     </g>
     <g id="text_11">
      <!-- 20 -->
      <g transform="translate(335.084134 110.179687) scale(0.13 -0.13)">
       <use xlink:href="#LMRoman10-Regular-32"/>
       <use xlink:href="#LMRoman10-Regular-30" x="49.999985"/>
      </g>
     </g>
    </g>
    <g id="xtick_6">
     <g id="line2d_9">
      <g>
       <use xlink:href="#m226a8ae898" x="404.012554" y="94.156875" style="stroke: #000000; stroke-width: 0.8"/>
      </g>
     </g>
     <g id="text_12">
      <!-- 40 -->
      <g transform="translate(397.512554 110.179687) scale(0.13 -0.13)">
       <use xlink:href="#LMRoman10-Regular-34"/>
       <use xlink:href="#LMRoman10-Regular-30" x="49.999985"/>
      </g>
     </g>
    </g>
    <g id="text_13">
     <!-- $t$ [$\text{days}$] -->
     <g transform="translate(317.585136 126.5825) scale(0.13 -0.13)">
      <use xlink:href="#DejaVuSans-Oblique-74" transform="translate(0 0.015625)"/>
      <use xlink:href="#LMRoman10-Regular-20" transform="translate(39.208984 0.015625)"/>
      <use xlink:href="#LMRoman10-Regular-5b" transform="translate(72.508972 0.015625)"/>
      <use xlink:href="#DejaVuSans-64" transform="translate(100.30896 0.015625)"/>
      <use xlink:href="#DejaVuSans-61" transform="translate(163.785522 0.015625)"/>
      <use xlink:href="#DejaVuSans-79" transform="translate(225.064819 0.015625)"/>
      <use xlink:href="#DejaVuSans-73" transform="translate(284.244507 0.015625)"/>
      <use xlink:href="#LMRoman10-Regular-5d" transform="translate(336.344116 0.015625)"/>
     </g>
    </g>
   </g>
   <g id="matplotlib.axis_4">
    <g id="ytick_4">
     <g id="line2d_10">
      <g>
       <use xlink:href="#meb8d232ae3" x="272.940272" y="91.293153" style="stroke: #000000; stroke-width: 0.8"/>
      </g>
     </g>
    </g>
    <g id="ytick_5">
     <g id="line2d_11">
      <g>
       <use xlink:href="#meb8d232ae3" x="272.940272" y="65.459864" style="stroke: #000000; stroke-width: 0.8"/>
      </g>
     </g>
    </g>
    <g id="ytick_6">
     <g id="line2d_12">
      <g>
       <use xlink:href="#meb8d232ae3" x="272.940272" y="39.626575" style="stroke: #000000; stroke-width: 0.8"/>
      </g>
     </g>
    </g>
   </g>
   <g id="patch_8">
    <path d="M 272.940272 94.156875 
L 272.940272 31.155 
" style="fill: none; stroke: #000000; stroke-width: 0.8; stroke-linejoin: miter; stroke-linecap: square"/>
   </g>
   <g id="patch_9">
    <path d="M 409.68 94.156875 
L 409.68 31.155 
" style="fill: none; stroke: #000000; stroke-width: 0.8; stroke-linejoin: miter; stroke-linecap: square"/>
   </g>
   <g id="patch_10">
    <path d="M 272.940272 94.156875 
L 409.68 94.156875 
" style="fill: none; stroke: #000000; stroke-width: 0.8; stroke-linejoin: miter; stroke-linecap: square"/>
   </g>
   <g id="patch_11">
    <path d="M 272.940272 31.155 
L 409.68 31.155 
" style="fill: none; stroke: #000000; stroke-width: 0.8; stroke-linejoin: miter; stroke-linecap: square"/>
   </g>
   <g id="text_14">
    <!-- Core 2 -->
    <g transform="translate(318.759605 25.155) scale(0.156 -0.156)">
     <use xlink:href="#LMRoman10-Regular-43"/>
     <use xlink:href="#LMRoman10-Regular-6f" x="72.199982"/>
     <use xlink:href="#LMRoman10-Regular-72" x="122.199966"/>
     <use xlink:href="#LMRoman10-Regular-65" x="161.399963"/>
     <use xlink:href="#LMRoman10-Regular-20" x="205.799957"/>
     <use xlink:href="#LMRoman10-Regular-32" x="239.099945"/>
    </g>
   </g>
  </g>
  <g id="axes_3">
   <g id="patch_12">
    <path d="M 76.5875 226.65125 
L 213.327228 226.65125 
L 213.327228 163.649375 
L 76.5875 163.649375 
z
" style="fill: #ffffff"/>
   </g>
   <g id="PathCollection_3">
    <g clip-path="url(#p6214940284)">
     <use xlink:href="#mc9498831d6" x="82.802942" y="203.24048" style="fill: #ff0000; fill-opacity: 0.5; stroke: #ff0000; stroke-opacity: 0.5"/>
     <use xlink:href="#mc9498831d6" x="89.855307" y="180.332384" style="fill: #ff0000; fill-opacity: 0.5; stroke: #ff0000; stroke-opacity: 0.5"/>
     <use xlink:href="#mc9498831d6" x="97.113625" y="189.608526" style="fill: #ff0000; fill-opacity: 0.5; stroke: #ff0000; stroke-opacity: 0.5"/>
     <use xlink:href="#mc9498831d6" x="103.329691" y="197.239023" style="fill: #ff0000; fill-opacity: 0.5; stroke: #ff0000; stroke-opacity: 0.5"/>
     <use xlink:href="#mc9498831d6" x="109.065198" y="201.197273" style="fill: #ff0000; fill-opacity: 0.5; stroke: #ff0000; stroke-opacity: 0.5"/>
     <use xlink:href="#mc9498831d6" x="115.449772" y="206.813378" style="fill: #ff0000; fill-opacity: 0.5; stroke: #ff0000; stroke-opacity: 0.5"/>
     <use xlink:href="#mc9498831d6" x="121.409956" y="212.837095" style="fill: #ff0000; fill-opacity: 0.5; stroke: #ff0000; stroke-opacity: 0.5"/>
     <use xlink:href="#mc9498831d6" x="127.688433" y="214.112932" style="fill: #ff0000; fill-opacity: 0.5; stroke: #ff0000; stroke-opacity: 0.5"/>
     <use xlink:href="#mc9498831d6" x="133.84833" y="218.264776" style="fill: #ff0000; fill-opacity: 0.5; stroke: #ff0000; stroke-opacity: 0.5"/>
     <use xlink:href="#mc9498831d6" x="140.370207" y="220.584268" style="fill: #ff0000; fill-opacity: 0.5; stroke: #ff0000; stroke-opacity: 0.5"/>
     <use xlink:href="#mc9498831d6" x="147.247822" y="222.4338" style="fill: #ff0000; fill-opacity: 0.5; stroke: #ff0000; stroke-opacity: 0.5"/>
     <use xlink:href="#mc9498831d6" x="152.789857" y="223.063036" style="fill: #ff0000; fill-opacity: 0.5; stroke: #ff0000; stroke-opacity: 0.5"/>
     <use xlink:href="#mc9498831d6" x="158.294446" y="223.594974" style="fill: #ff0000; fill-opacity: 0.5; stroke: #ff0000; stroke-opacity: 0.5"/>
     <use xlink:href="#mc9498831d6" x="163.755347" y="223.767356" style="fill: #ff0000; fill-opacity: 0.5; stroke: #ff0000; stroke-opacity: 0.5"/>
     <use xlink:href="#mc9498831d6" x="168.848028" y="223.787528" style="fill: #ff0000; fill-opacity: 0.5; stroke: #ff0000; stroke-opacity: 0.5"/>
     <use xlink:href="#mc9498831d6" x="174.227796" y="223.787528" style="fill: #ff0000; fill-opacity: 0.5; stroke: #ff0000; stroke-opacity: 0.5"/>
     <use xlink:href="#mc9498831d6" x="180.337765" y="223.787528" style="fill: #ff0000; fill-opacity: 0.5; stroke: #ff0000; stroke-opacity: 0.5"/>
     <use xlink:href="#mc9498831d6" x="187.396371" y="223.787528" style="fill: #ff0000; fill-opacity: 0.5; stroke: #ff0000; stroke-opacity: 0.5"/>
     <use xlink:href="#mc9498831d6" x="193.868319" y="223.787528" style="fill: #ff0000; fill-opacity: 0.5; stroke: #ff0000; stroke-opacity: 0.5"/>
     <use xlink:href="#mc9498831d6" x="200.383955" y="223.787528" style="fill: #ff0000; fill-opacity: 0.5; stroke: #ff0000; stroke-opacity: 0.5"/>
     <use xlink:href="#mc9498831d6" x="207.111786" y="223.787528" style="fill: #ff0000; fill-opacity: 0.5; stroke: #ff0000; stroke-opacity: 0.5"/>
    </g>
   </g>
   <g id="PolyCollection_5">
    <path d="M 82.802942 166.513097 
L 82.802942 173.864906 
L 89.855307 181.932232 
L 97.113625 189.817411 
L 103.329691 196.247372 
L 109.065198 201.632573 
L 115.449772 207.196276 
L 121.409956 211.309877 
L 127.688433 214.825846 
L 133.84833 217.822657 
L 140.370207 219.981174 
L 147.247822 221.59374 
L 152.789857 222.456436 
L 158.294446 223.043229 
L 163.755347 223.46986 
L 168.848028 223.616998 
L 174.227796 223.718216 
L 180.337765 223.762659 
L 187.396371 223.781031 
L 193.868319 223.785627 
L 200.383955 223.78702 
L 207.111786 223.787411 
L 207.111786 223.780213 
L 207.111786 223.780213 
L 200.383955 223.76957 
L 193.868319 223.750076 
L 187.396371 223.714457 
L 180.337765 223.635361 
L 174.227796 223.515648 
L 168.848028 223.331793 
L 163.755347 223.066538 
L 158.294446 222.639882 
L 152.789857 221.90148 
L 147.247822 220.885331 
L 140.370207 219.10834 
L 133.84833 216.932822 
L 127.688433 214.206775 
L 121.409956 210.55137 
L 115.449772 206.320072 
L 109.065198 200.379617 
L 103.329691 194.262968 
L 97.113625 186.816751 
L 89.855307 177.078044 
L 82.802942 166.513097 
z
" clip-path="url(#p6214940284)" style="fill: #1f77b4; fill-opacity: 0.3"/>
   </g>
   <g id="PolyCollection_6">
    <path d="M 82.802942 166.891991 
L 82.802942 172.735479 
L 89.855307 181.368266 
L 97.113625 189.655254 
L 103.329691 196.191485 
L 109.065198 201.762045 
L 115.449772 207.240583 
L 121.409956 211.448525 
L 127.688433 215.044887 
L 133.84833 217.79747 
L 140.370207 219.860591 
L 147.247822 221.467369 
L 152.789857 222.388059 
L 158.294446 222.947233 
L 163.755347 223.345265 
L 168.848028 223.550617 
L 174.227796 223.674027 
L 180.337765 223.737306 
L 187.396371 223.770055 
L 193.868319 223.780991 
L 200.383955 223.785395 
L 207.111786 223.786876 
L 207.111786 223.775944 
L 207.111786 223.775944 
L 200.383955 223.760061 
L 193.868319 223.732559 
L 187.396371 223.684622 
L 180.337765 223.587311 
L 174.227796 223.448862 
L 168.848028 223.248878 
L 163.755347 222.972673 
L 158.294446 222.545876 
L 152.789857 221.922449 
L 147.247822 221.041833 
L 140.370207 219.279821 
L 133.84833 217.081434 
L 127.688433 214.242554 
L 121.409956 210.646952 
L 115.449772 206.3509 
L 109.065198 200.593587 
L 103.329691 194.678932 
L 97.113625 187.284527 
L 89.855307 177.320626 
L 82.802942 166.891991 
z
" clip-path="url(#p6214940284)" style="fill: #ff7f0e; fill-opacity: 0.3"/>
   </g>
   <g id="matplotlib.axis_5">
    <g id="xtick_7">
     <g id="line2d_13">
      <g>
       <use xlink:href="#m226a8ae898" x="79.39534" y="226.65125" style="stroke: #000000; stroke-width: 0.8"/>
      </g>
     </g>
     <g id="text_15">
      <!-- 0.00 -->
      <g transform="translate(67.838543 242.674062) scale(0.13 -0.13)">
       <use xlink:href="#LMRoman10-Regular-30"/>
       <use xlink:href="#LMRoman10-Regular-2e" x="49.999985"/>
       <use xlink:href="#LMRoman10-Regular-30" x="77.799973"/>
       <use xlink:href="#LMRoman10-Regular-30" x="127.799957"/>
      </g>
     </g>
    </g>
    <g id="xtick_8">
     <g id="line2d_14">
      <g>
       <use xlink:href="#m226a8ae898" x="141.805643" y="226.65125" style="stroke: #000000; stroke-width: 0.8"/>
      </g>
     </g>
     <g id="text_16">
      <!-- 0.05 -->
      <g transform="translate(130.248847 242.674062) scale(0.13 -0.13)">
       <use xlink:href="#LMRoman10-Regular-30"/>
       <use xlink:href="#LMRoman10-Regular-2e" x="49.999985"/>
       <use xlink:href="#LMRoman10-Regular-30" x="77.799973"/>
       <use xlink:href="#LMRoman10-Regular-35" x="127.799957"/>
      </g>
     </g>
    </g>
    <g id="xtick_9">
     <g id="line2d_15">
      <g>
       <use xlink:href="#m226a8ae898" x="204.215947" y="226.65125" style="stroke: #000000; stroke-width: 0.8"/>
      </g>
     </g>
     <g id="text_17">
      <!-- 0.10 -->
      <g transform="translate(192.659151 242.674062) scale(0.13 -0.13)">
       <use xlink:href="#LMRoman10-Regular-30"/>
       <use xlink:href="#LMRoman10-Regular-2e" x="49.999985"/>
       <use xlink:href="#LMRoman10-Regular-31" x="77.799973"/>
       <use xlink:href="#LMRoman10-Regular-30" x="127.799957"/>
      </g>
     </g>
    </g>
    <g id="text_18">
     <!-- $x$ [$m$] -->
     <g transform="translate(128.967364 258.946875) scale(0.13 -0.13)">
      <defs>
       <path id="DejaVuSans-Oblique-78" d="M 3841 3500 
L 2234 1784 
L 3219 0 
L 2559 0 
L 1819 1388 
L 531 0 
L -166 0 
L 1556 1844 
L 641 3500 
L 1300 3500 
L 1972 2234 
L 3144 3500 
L 3841 3500 
z
" transform="scale(0.015625)"/>
      </defs>
      <use xlink:href="#DejaVuSans-Oblique-78"/>
      <use xlink:href="#LMRoman10-Regular-20" transform="translate(59.179688 0)"/>
      <use xlink:href="#LMRoman10-Regular-5b" transform="translate(92.479675 0)"/>
      <use xlink:href="#DejaVuSans-Oblique-6d" transform="translate(120.279663 0)"/>
      <use xlink:href="#LMRoman10-Regular-5d" transform="translate(217.691772 0)"/>
     </g>
    </g>
   </g>
   <g id="matplotlib.axis_6">
    <g id="ytick_7">
     <g id="line2d_16">
      <g>
       <use xlink:href="#meb8d232ae3" x="76.5875" y="223.787528" style="stroke: #000000; stroke-width: 0.8"/>
      </g>
     </g>
     <g id="text_19">
      <!-- 0.0 -->
      <g transform="translate(52.973906 228.298935) scale(0.13 -0.13)">
       <use xlink:href="#LMRoman10-Regular-30"/>
       <use xlink:href="#LMRoman10-Regular-2e" x="49.999985"/>
       <use xlink:href="#LMRoman10-Regular-30" x="77.799973"/>
      </g>
     </g>
    </g>
    <g id="ytick_8">
     <g id="line2d_17">
      <g>
       <use xlink:href="#meb8d232ae3" x="76.5875" y="195.414857" style="stroke: #000000; stroke-width: 0.8"/>
      </g>
     </g>
     <g id="text_20">
      <!-- 0.3 -->
      <g transform="translate(52.973906 199.926263) scale(0.13 -0.13)">
       <defs>
        <path id="LMRoman10-Regular-33" d="M 2925 1094 
C 2925 1619 2522 2118 1856 2253 
C 2381 2426 2752 2874 2752 3379 
C 2752 3904 2189 4262 1574 4262 
C 928 4262 442 3878 442 3392 
C 442 3181 582 3059 768 3059 
C 966 3059 1094 3200 1094 3386 
C 1094 3706 794 3706 698 3706 
C 896 4019 1318 4102 1549 4102 
C 1811 4102 2163 3962 2163 3386 
C 2163 3309 2150 2938 1984 2656 
C 1792 2349 1574 2330 1414 2323 
C 1363 2317 1210 2304 1165 2304 
C 1114 2298 1069 2291 1069 2227 
C 1069 2157 1114 2157 1222 2157 
L 1504 2157 
C 2029 2157 2266 1722 2266 1094 
C 2266 224 1824 38 1542 38 
C 1267 38 787 147 563 525 
C 787 493 986 634 986 877 
C 986 1107 813 1235 627 1235 
C 474 1235 269 1146 269 864 
C 269 282 864 -141 1562 -141 
C 2342 -141 2925 442 2925 1094 
z
" transform="scale(0.015625)"/>
       </defs>
       <use xlink:href="#LMRoman10-Regular-30"/>
       <use xlink:href="#LMRoman10-Regular-2e" x="49.999985"/>
       <use xlink:href="#LMRoman10-Regular-33" x="77.799973"/>
      </g>
     </g>
    </g>
    <g id="ytick_9">
     <g id="line2d_18">
      <g>
       <use xlink:href="#meb8d232ae3" x="76.5875" y="167.042186" style="stroke: #000000; stroke-width: 0.8"/>
      </g>
     </g>
     <g id="text_21">
      <!-- 0.6 -->
      <g transform="translate(52.973906 171.553592) scale(0.13 -0.13)">
       <defs>
        <path id="LMRoman10-Regular-36" d="M 2925 1306 
C 2925 2118 2355 2733 1645 2733 
C 1210 2733 973 2406 845 2099 
L 845 2253 
C 845 3872 1638 4102 1965 4102 
C 2118 4102 2387 4064 2528 3846 
C 2432 3846 2176 3846 2176 3558 
C 2176 3360 2330 3264 2470 3264 
C 2573 3264 2765 3322 2765 3571 
C 2765 3955 2483 4262 1952 4262 
C 1133 4262 269 3437 269 2022 
C 269 314 1011 -141 1606 -141 
C 2317 -141 2925 461 2925 1306 
z
M 2349 1312 
C 2349 1005 2349 685 2240 454 
C 2048 70 1754 38 1606 38 
C 1203 38 1011 422 973 518 
C 858 819 858 1331 858 1446 
C 858 1946 1062 2586 1638 2586 
C 1741 2586 2035 2586 2234 2189 
C 2349 1952 2349 1626 2349 1312 
z
" transform="scale(0.015625)"/>
       </defs>
       <use xlink:href="#LMRoman10-Regular-30"/>
       <use xlink:href="#LMRoman10-Regular-2e" x="49.999985"/>
       <use xlink:href="#LMRoman10-Regular-36" x="77.799973"/>
      </g>
     </g>
    </g>
    <g id="text_22">
     <!-- $c_t$ [$mg/L$] -->
     <g transform="translate(45.723906 222.775312) rotate(-90) scale(0.13 -0.13)">
      <use xlink:href="#DejaVuSans-Oblique-63"/>
      <use xlink:href="#DejaVuSans-Oblique-74" transform="translate(54.980469 -16.40625) scale(0.7)"/>
      <use xlink:href="#LMRoman10-Regular-20" transform="translate(85.161133 0)"/>
      <use xlink:href="#LMRoman10-Regular-5b" transform="translate(118.461121 0)"/>
      <use xlink:href="#DejaVuSans-Oblique-6d" transform="translate(146.261108 0)"/>
      <use xlink:href="#DejaVuSans-Oblique-67" transform="translate(243.673218 0)"/>
      <use xlink:href="#DejaVuSans-2f" transform="translate(307.14978 0)"/>
      <use xlink:href="#DejaVuSans-Oblique-4c" transform="translate(340.841187 0)"/>
      <use xlink:href="#LMRoman10-Regular-5d" transform="translate(396.554077 0)"/>
     </g>
    </g>
   </g>
   <g id="patch_13">
    <path d="M 76.5875 226.65125 
L 76.5875 163.649375 
" style="fill: none; stroke: #000000; stroke-width: 0.8; stroke-linejoin: miter; stroke-linecap: square"/>
   </g>
   <g id="patch_14">
    <path d="M 213.327228 226.65125 
L 213.327228 163.649375 
" style="fill: none; stroke: #000000; stroke-width: 0.8; stroke-linejoin: miter; stroke-linecap: square"/>
   </g>
   <g id="patch_15">
    <path d="M 76.5875 226.65125 
L 213.327228 226.65125 
" style="fill: none; stroke: #000000; stroke-width: 0.8; stroke-linejoin: miter; stroke-linecap: square"/>
   </g>
   <g id="patch_16">
    <path d="M 76.5875 163.649375 
L 213.327228 163.649375 
" style="fill: none; stroke: #000000; stroke-width: 0.8; stroke-linejoin: miter; stroke-linecap: square"/>
   </g>
   <g id="text_23">
    <!-- Core 2B -->
    <g transform="translate(116.884676 157.649375) scale(0.156 -0.156)">
     <defs>
      <path id="LMRoman10-Regular-42" d="M 4166 1171 
C 4166 1728 3642 2208 2931 2285 
C 3552 2406 3994 2816 3994 3290 
C 3994 3846 3405 4371 2573 4371 
L 230 4371 
L 230 4173 
L 384 4173 
C 877 4173 890 4102 890 3872 
L 890 499 
C 890 269 877 198 384 198 
L 230 198 
L 230 0 
L 2739 0 
C 3590 0 4166 570 4166 1171 
z
M 3373 3290 
C 3373 2880 3059 2342 2349 2342 
L 1421 2342 
L 1421 3917 
C 1421 4128 1434 4173 1734 4173 
L 2528 4173 
C 3149 4173 3373 3629 3373 3290 
z
M 3526 1178 
C 3526 723 3194 198 2534 198 
L 1734 198 
C 1434 198 1421 243 1421 454 
L 1421 2202 
L 2624 2202 
C 3258 2202 3526 1606 3526 1178 
z
" transform="scale(0.015625)"/>
     </defs>
     <use xlink:href="#LMRoman10-Regular-43"/>
     <use xlink:href="#LMRoman10-Regular-6f" x="72.199982"/>
     <use xlink:href="#LMRoman10-Regular-72" x="122.199966"/>
     <use xlink:href="#LMRoman10-Regular-65" x="161.399963"/>
     <use xlink:href="#LMRoman10-Regular-20" x="205.799957"/>
     <use xlink:href="#LMRoman10-Regular-32" x="239.099945"/>
     <use xlink:href="#LMRoman10-Regular-42" x="289.09993"/>
    </g>
   </g>
   <g id="legend_1">
    <g id="patch_17">
     <path d="M 85.6875 304.94 
L 206.559063 304.94 
Q 209.159063 304.94 209.159063 302.34 
L 209.159063 267.252187 
Q 209.159063 264.652188 206.559063 264.652188 
L 85.6875 264.652188 
Q 83.0875 264.652188 83.0875 267.252187 
L 83.0875 302.34 
Q 83.0875 304.94 85.6875 304.94 
z
" style="fill: #ffffff; opacity: 0.8; stroke: #cccccc; stroke-linejoin: miter"/>
    </g>
    <g id="patch_18">
     <path d="M 88.2875 278.952187 
L 114.2875 278.952187 
L 114.2875 269.852187 
L 88.2875 269.852187 
z
" style="fill: #1f77b4; fill-opacity: 0.3"/>
    </g>
    <g id="text_24">
     <!-- Da-NNPIE -->
     <g transform="translate(124.6875 278.952187) scale(0.13 -0.13)">
      <defs>
       <path id="LMRoman10-Regular-44" d="M 4525 2150 
C 4525 3366 3661 4371 2566 4371 
L 224 4371 
L 224 4173 
L 378 4173 
C 870 4173 883 4102 883 3872 
L 883 499 
C 883 269 870 198 378 198 
L 224 198 
L 224 0 
L 2566 0 
C 3642 0 4525 947 4525 2150 
z
M 3885 2150 
C 3885 1440 3763 1056 3533 742 
C 3405 570 3040 198 2394 198 
L 1747 198 
C 1446 198 1434 243 1434 454 
L 1434 3917 
C 1434 4128 1446 4173 1747 4173 
L 2387 4173 
C 2784 4173 3226 4032 3552 3578 
C 3827 3200 3885 2650 3885 2150 
z
" transform="scale(0.015625)"/>
       <path id="LMRoman10-Regular-61" d="M 3091 570 
L 3091 928 
L 2931 928 
L 2931 570 
C 2931 198 2771 160 2701 160 
C 2490 160 2464 448 2464 480 
L 2464 1760 
C 2464 2029 2464 2278 2234 2515 
C 1984 2765 1664 2867 1357 2867 
C 832 2867 390 2566 390 2144 
C 390 1952 518 1843 685 1843 
C 864 1843 979 1971 979 2138 
C 979 2214 947 2426 653 2432 
C 826 2656 1139 2726 1344 2726 
C 1658 2726 2022 2477 2022 1907 
L 2022 1670 
C 1696 1651 1248 1632 845 1440 
C 365 1222 205 890 205 608 
C 205 90 826 -70 1229 -70 
C 1651 -70 1946 186 2067 486 
C 2093 230 2266 -38 2566 -38 
C 2701 -38 3091 51 3091 570 
z
M 2022 896 
C 2022 288 1562 70 1274 70 
C 960 70 698 294 698 614 
C 698 966 966 1498 2022 1536 
L 2022 896 
z
" transform="scale(0.015625)"/>
       <path id="LMRoman10-Regular-2d" d="M 1766 1197 
L 1766 1568 
L 70 1568 
L 70 1197 
L 1766 1197 
z
" transform="scale(0.015625)"/>
       <path id="LMRoman10-Regular-4e" d="M 4582 4173 
L 4582 4371 
L 3834 4352 
L 3085 4371 
L 3085 4173 
C 3744 4173 3744 3872 3744 3699 
L 3744 966 
L 1485 4288 
C 1427 4365 1421 4371 1299 4371 
L 211 4371 
L 211 4173 
L 397 4173 
C 493 4173 621 4166 717 4160 
C 864 4141 870 4134 870 4013 
L 870 672 
C 870 499 870 198 211 198 
L 211 0 
L 960 19 
L 1709 0 
L 1709 198 
C 1050 198 1050 499 1050 672 
L 1050 4000 
C 1082 3968 1088 3962 1114 3923 
L 3725 83 
C 3782 6 3789 0 3834 0 
C 3923 0 3923 45 3923 166 
L 3923 3699 
C 3923 3872 3923 4173 4582 4173 
z
" transform="scale(0.015625)"/>
       <path id="LMRoman10-Regular-50" d="M 3994 3181 
C 3994 3808 3360 4371 2483 4371 
L 224 4371 
L 224 4173 
L 378 4173 
C 870 4173 883 4102 883 3872 
L 883 499 
C 883 269 870 198 378 198 
L 224 198 
L 224 0 
C 448 19 922 19 1165 19 
C 1408 19 1888 19 2112 0 
L 2112 198 
L 1958 198 
C 1466 198 1453 269 1453 499 
L 1453 2022 
L 2534 2022 
C 3302 2022 3994 2541 3994 3181 
z
M 3334 3181 
C 3334 2880 3334 2189 2317 2189 
L 1434 2189 
L 1434 3917 
C 1434 4128 1446 4173 1747 4173 
L 2317 4173 
C 3334 4173 3334 3494 3334 3181 
z
" transform="scale(0.015625)"/>
       <path id="LMRoman10-Regular-49" d="M 2131 0 
L 2131 198 
L 1965 198 
C 1459 198 1440 269 1440 499 
L 1440 3872 
C 1440 4102 1459 4173 1965 4173 
L 2131 4173 
L 2131 4371 
C 1907 4352 1402 4352 1158 4352 
C 909 4352 403 4352 179 4371 
L 179 4173 
L 346 4173 
C 851 4173 870 4102 870 3872 
L 870 499 
C 870 269 851 198 346 198 
L 179 198 
L 179 0 
C 403 19 909 19 1152 19 
C 1402 19 1907 19 2131 0 
z
" transform="scale(0.015625)"/>
       <path id="LMRoman10-Regular-45" d="M 4173 1651 
L 4013 1651 
C 3853 666 3706 198 2605 198 
L 1754 198 
C 1453 198 1440 243 1440 454 
L 1440 2163 
L 2016 2163 
C 2637 2163 2707 1958 2707 1414 
L 2867 1414 
L 2867 3110 
L 2707 3110 
C 2707 2560 2637 2362 2016 2362 
L 1440 2362 
L 1440 3898 
C 1440 4109 1453 4154 1754 4154 
L 2579 4154 
C 3558 4154 3731 3802 3834 2912 
L 3994 2912 
L 3814 4352 
L 211 4352 
L 211 4154 
L 365 4154 
C 858 4154 870 4083 870 3853 
L 870 499 
C 870 269 858 198 365 198 
L 211 198 
L 211 0 
L 3904 0 
L 4173 1651 
z
" transform="scale(0.015625)"/>
      </defs>
      <use xlink:href="#LMRoman10-Regular-44"/>
      <use xlink:href="#LMRoman10-Regular-61" x="76.399994"/>
      <use xlink:href="#LMRoman10-Regular-2d" x="126.399979"/>
      <use xlink:href="#LMRoman10-Regular-4e" x="159.699966"/>
      <use xlink:href="#LMRoman10-Regular-4e" x="234.699951"/>
      <use xlink:href="#LMRoman10-Regular-50" x="309.699936"/>
      <use xlink:href="#LMRoman10-Regular-49" x="377.799927"/>
      <use xlink:href="#LMRoman10-Regular-45" x="413.899918"/>
     </g>
    </g>
    <g id="patch_19">
     <path d="M 88.2875 297.075 
L 114.2875 297.075 
L 114.2875 287.975 
L 88.2875 287.975 
z
" style="fill: #ff7f0e; fill-opacity: 0.3"/>
    </g>
    <g id="text_25">
     <!-- HyDa-NNPIE -->
     <g transform="translate(124.6875 297.075) scale(0.13 -0.13)">
      <defs>
       <path id="LMRoman10-Regular-48" d="M 4582 0 
L 4582 198 
L 4429 198 
C 3936 198 3923 269 3923 499 
L 3923 3872 
C 3923 4102 3936 4173 4429 4173 
L 4582 4173 
L 4582 4371 
C 4358 4352 3885 4352 3642 4352 
C 3398 4352 2918 4352 2694 4371 
L 2694 4173 
L 2848 4173 
C 3341 4173 3354 4102 3354 3872 
L 3354 2374 
L 1440 2374 
L 1440 3872 
C 1440 4102 1453 4173 1946 4173 
L 2099 4173 
L 2099 4371 
C 1875 4352 1402 4352 1158 4352 
C 915 4352 435 4352 211 4371 
L 211 4173 
L 365 4173 
C 858 4173 870 4102 870 3872 
L 870 499 
C 870 269 858 198 365 198 
L 211 198 
L 211 0 
C 435 19 909 19 1152 19 
C 1395 19 1875 19 2099 0 
L 2099 198 
L 1946 198 
C 1453 198 1440 269 1440 499 
L 1440 2176 
L 3354 2176 
L 3354 499 
C 3354 269 3341 198 2848 198 
L 2694 198 
L 2694 0 
C 2918 19 3392 19 3635 19 
C 3878 19 4358 19 4582 0 
z
" transform="scale(0.015625)"/>
       <path id="LMRoman10-Regular-79" d="M 3251 2560 
L 3251 2758 
C 3104 2746 2918 2739 2771 2739 
L 2214 2758 
L 2214 2560 
C 2413 2554 2515 2445 2515 2285 
C 2515 2221 2509 2208 2477 2131 
L 1830 557 
L 1120 2278 
C 1094 2342 1082 2368 1082 2394 
C 1082 2560 1318 2560 1440 2560 
L 1440 2758 
L 742 2739 
C 570 2739 314 2746 122 2758 
L 122 2560 
C 429 2560 550 2560 640 2336 
L 1600 0 
L 1440 -378 
C 1299 -730 1120 -1171 710 -1171 
C 678 -1171 531 -1171 410 -1056 
C 608 -1030 659 -890 659 -787 
C 659 -621 538 -518 390 -518 
C 262 -518 122 -602 122 -794 
C 122 -1082 390 -1312 710 -1312 
C 1114 -1312 1376 -947 1530 -582 
L 2656 2150 
C 2822 2554 3149 2560 3251 2560 
z
" transform="scale(0.015625)"/>
      </defs>
      <use xlink:href="#LMRoman10-Regular-48"/>
      <use xlink:href="#LMRoman10-Regular-79" x="74.999985"/>
      <use xlink:href="#LMRoman10-Regular-44" x="127.799973"/>
      <use xlink:href="#LMRoman10-Regular-61" x="204.199966"/>
      <use xlink:href="#LMRoman10-Regular-2d" x="254.199951"/>
      <use xlink:href="#LMRoman10-Regular-4e" x="287.499939"/>
      <use xlink:href="#LMRoman10-Regular-4e" x="362.499924"/>
      <use xlink:href="#LMRoman10-Regular-50" x="437.499908"/>
      <use xlink:href="#LMRoman10-Regular-49" x="505.599899"/>
      <use xlink:href="#LMRoman10-Regular-45" x="541.69989"/>
     </g>
    </g>
   </g>
  </g>
  <g id="axes_4">
   <g id="patch_20">
    <path d="M 272.940272 226.65125 
L 409.68 226.65125 
L 409.68 163.649375 
L 272.940272 163.649375 
z
" style="fill: #ffffff"/>
   </g>
   <g id="PolyCollection_7">
    <path d="M 274.781885 166.513097 
L 274.781885 193.661459 
L 276.623497 193.662771 
L 278.46511 196.214474 
L 280.306722 198.070423 
L 282.148335 200.058969 
L 283.989948 201.345261 
L 285.831559 201.991695 
L 287.673172 202.534253 
L 289.514785 203.079996 
L 291.356397 203.484937 
L 293.19801 203.792442 
L 295.039623 204.03068 
L 296.881235 204.218469 
L 298.722846 204.368756 
L 300.564461 204.596703 
L 302.406072 204.887014 
L 304.247684 205.149565 
L 306.089298 205.25182 
L 307.93091 205.342038 
L 309.772521 205.422074 
L 311.614136 205.55511 
L 313.455747 206.158491 
L 315.297359 206.43018 
L 317.138973 206.82025 
L 318.980582 207.186321 
L 320.822197 207.657611 
L 322.663811 208.110373 
L 324.50542 208.545051 
L 326.347034 208.96216 
L 328.188649 209.322929 
L 330.030258 209.478649 
L 331.871872 209.622622 
L 333.713486 209.75586 
L 335.555095 209.879271 
L 337.39671 210.26766 
L 339.238324 210.751947 
L 341.079933 211.226727 
L 342.921547 211.691892 
L 344.763162 212.147389 
L 346.604771 212.53648 
L 348.446385 212.782249 
L 350.287999 213.01688 
L 352.129608 213.240795 
L 353.971223 213.454448 
L 355.812837 213.658223 
L 357.654446 213.852532 
L 359.49606 214.037754 
L 361.337675 214.214279 
L 363.179284 214.382444 
L 365.020893 214.649411 
L 366.862507 215.017997 
L 368.704121 215.378227 
L 370.545736 215.730139 
L 372.38735 216.073798 
L 374.228964 216.40926 
L 376.070568 216.736615 
L 377.912182 217.055942 
L 379.753797 217.367335 
L 381.595411 217.670906 
L 383.437025 217.966754 
L 385.27864 218.254995 
L 387.120243 218.535751 
L 388.961857 218.809136 
L 390.803472 219.075293 
L 392.645086 219.33435 
L 394.486701 219.586447 
L 396.328315 219.831696 
L 398.169918 220.070262 
L 400.011533 220.302289 
L 401.853147 220.527904 
L 403.694761 220.747252 
L 405.536376 220.960488 
L 407.377979 221.167738 
L 409.219594 221.369166 
L 411.061208 221.564904 
L 412.902822 221.755096 
L 414.744437 221.939874 
L 416.586051 222.106071 
L 418.427655 222.293757 
L 420.269269 222.463144 
L 422.110883 222.598944 
L 423.952498 222.684961 
L 425.794112 222.768097 
L 427.635726 222.848474 
L 429.47733 222.926191 
L 431.318944 223.00137 
L 433.160559 223.074103 
L 435.002173 223.144476 
L 436.843787 223.212596 
L 438.685402 223.278548 
L 440.527005 223.342411 
L 442.36862 223.404278 
L 444.210234 223.46422 
L 446.051848 223.522322 
L 447.893463 223.578639 
L 449.735077 223.633261 
L 451.576681 223.686229 
L 453.418295 223.737633 
L 455.259909 223.787528 
L 455.259909 196.563027 
L 455.259909 196.563027 
L 453.418295 196.542644 
L 451.576681 196.521745 
L 449.735077 196.500312 
L 447.893463 196.478336 
L 446.051848 196.455807 
L 444.210234 196.432726 
L 442.36862 196.409064 
L 440.527005 196.384821 
L 438.685402 196.359997 
L 436.843787 196.334574 
L 435.002173 196.308542 
L 433.160559 196.301432 
L 431.318944 196.297432 
L 429.47733 196.293535 
L 427.635726 196.289741 
L 425.794112 196.286078 
L 423.952498 196.282519 
L 422.110883 196.279072 
L 420.269269 196.275737 
L 418.427655 196.272505 
L 416.586051 196.269386 
L 414.744437 196.266379 
L 412.902822 196.263484 
L 411.061208 196.260702 
L 409.219594 196.258032 
L 407.377979 196.255456 
L 405.536376 196.252993 
L 403.694761 196.250632 
L 401.853147 196.248374 
L 400.011533 196.24622 
L 398.169918 196.244178 
L 396.328315 196.242229 
L 394.486701 196.240375 
L 392.645086 196.238623 
L 390.803472 196.236956 
L 388.961857 196.235372 
L 387.120243 196.233902 
L 385.27864 196.232497 
L 383.437025 196.231195 
L 381.595411 196.229958 
L 379.753797 196.228815 
L 377.912182 196.227738 
L 376.070568 196.226736 
L 374.228964 196.225808 
L 372.38735 196.224956 
L 370.545736 196.22416 
L 368.704121 196.223429 
L 366.862507 196.222773 
L 365.020893 196.222164 
L 363.179284 196.221602 
L 361.337675 196.221087 
L 359.49606 196.220637 
L 357.654446 196.220216 
L 355.812837 196.21986 
L 353.971223 196.219523 
L 352.129608 196.219223 
L 350.287999 196.218951 
L 348.446385 196.218726 
L 346.604771 196.21852 
L 344.763162 196.218333 
L 342.921547 196.218174 
L 341.079933 196.218033 
L 339.238324 196.217912 
L 337.39671 196.217799 
L 335.555095 196.217705 
L 333.713486 196.217612 
L 331.871872 196.217527 
L 330.030258 196.217453 
L 328.188649 196.217378 
L 326.347034 196.217303 
L 324.50542 196.217237 
L 322.663811 196.217162 
L 320.822197 196.217097 
L 318.980582 196.217012 
L 317.138973 196.216928 
L 315.297359 196.216844 
L 313.455747 196.21675 
L 311.614136 196.216656 
L 309.772521 195.710411 
L 307.93091 195.114529 
L 306.089298 194.500005 
L 304.247684 194.054152 
L 302.406072 194.018968 
L 300.564461 193.565246 
L 298.722846 192.860345 
L 296.881235 192.105151 
L 295.039623 191.270736 
L 293.19801 190.347958 
L 291.356397 189.411081 
L 289.514785 188.478851 
L 287.673172 187.512964 
L 285.831559 186.51386 
L 283.989948 185.524919 
L 282.148335 184.633438 
L 280.306722 183.629865 
L 278.46511 182.200804 
L 276.623497 177.674461 
L 274.781885 166.513097 
z
" clip-path="url(#pd0ac8c7df0)" style="fill: #1f77b4; fill-opacity: 0.3"/>
   </g>
   <g id="PolyCollection_8">
    <path d="M 274.781885 167.380448 
L 274.781885 199.742663 
L 276.623497 199.736587 
L 278.46511 199.732773 
L 280.306722 199.731156 
L 282.148335 200.058969 
L 283.989948 200.700757 
L 285.831559 200.873944 
L 287.673172 200.893361 
L 289.514785 200.969856 
L 291.356397 201.71906 
L 293.19801 202.249744 
L 295.039623 202.503532 
L 296.881235 203.089733 
L 298.722846 203.656295 
L 300.564461 203.971636 
L 302.406072 204.243325 
L 304.247684 204.47895 
L 306.089298 204.684523 
L 307.93091 204.801588 
L 309.772521 205.02391 
L 311.614136 205.16483 
L 313.455747 205.634738 
L 315.297359 206.186224 
L 317.138973 206.473566 
L 318.980582 206.512131 
L 320.822197 206.546571 
L 322.663811 206.577446 
L 324.50542 206.772865 
L 326.347034 207.17041 
L 328.188649 207.708477 
L 330.030258 208.078313 
L 331.871872 208.213101 
L 333.713486 208.340114 
L 335.555095 208.459807 
L 337.39671 208.633512 
L 339.238324 208.962535 
L 341.079933 209.279562 
L 342.921547 209.584974 
L 344.763162 210.042653 
L 346.604771 210.454582 
L 348.446385 210.528468 
L 350.287999 210.697401 
L 352.129608 210.949966 
L 353.971223 211.192981 
L 355.812837 211.426779 
L 357.654446 211.651691 
L 359.49606 211.91027 
L 361.337675 212.337908 
L 363.179284 212.759041 
L 365.020893 213.165846 
L 366.862507 213.458246 
L 368.704121 213.744993 
L 370.545736 214.026195 
L 372.38735 214.301996 
L 374.228964 214.5725 
L 376.070568 214.837809 
L 377.912182 215.098056 
L 379.753797 215.353328 
L 381.595411 215.603739 
L 383.437025 215.771838 
L 385.27864 215.863466 
L 387.120243 215.950349 
L 388.961857 216.032679 
L 390.803472 216.110677 
L 392.645086 216.184507 
L 394.486701 216.254355 
L 396.328315 216.320396 
L 398.169918 216.382797 
L 400.011533 216.441709 
L 401.853147 216.497277 
L 403.694761 216.54966 
L 405.536376 216.672945 
L 407.377979 216.847039 
L 409.219594 217.016613 
L 411.061208 217.181789 
L 412.902822 217.342647 
L 414.744437 217.499313 
L 416.586051 217.65189 
L 418.427655 217.800472 
L 420.269269 217.945152 
L 422.110883 218.086057 
L 423.952498 218.223262 
L 425.794112 218.35687 
L 427.635726 218.486975 
L 429.47733 218.61366 
L 431.318944 218.737025 
L 433.160559 218.857163 
L 435.002173 218.974148 
L 436.843787 219.088075 
L 438.685402 219.199018 
L 440.527005 219.307067 
L 442.36862 219.412287 
L 444.210234 219.514776 
L 446.051848 219.614591 
L 447.893463 219.711821 
L 449.735077 219.806526 
L 451.576681 219.898781 
L 453.418295 219.988657 
L 455.259909 220.07621 
L 455.259909 197.035428 
L 455.259909 197.035428 
L 453.418295 197.025117 
L 451.576681 197.015245 
L 449.735077 197.005776 
L 447.893463 196.99674 
L 446.051848 196.988116 
L 444.210234 196.979926 
L 442.36862 196.972173 
L 440.527005 196.964848 
L 438.685402 196.957921 
L 436.843787 196.951433 
L 435.002173 196.945361 
L 433.160559 196.939686 
L 431.318944 196.934413 
L 429.47733 196.929531 
L 427.635726 196.925033 
L 425.794112 196.920902 
L 423.952498 196.917126 
L 422.110883 196.913692 
L 420.269269 196.910602 
L 418.427655 196.90781 
L 416.586051 196.905314 
L 414.744437 196.903076 
L 412.902822 196.901116 
L 411.061208 196.89938 
L 409.219594 196.89784 
L 407.377979 196.896501 
L 405.536376 196.895303 
L 403.694761 196.89425 
L 401.853147 196.893301 
L 400.011533 196.892431 
L 398.169918 196.891613 
L 396.328315 196.890803 
L 394.486701 196.889995 
L 392.645086 196.889146 
L 390.803472 196.888222 
L 388.961857 196.887199 
L 387.120243 196.886033 
L 385.27864 196.884727 
L 383.437025 196.883216 
L 381.595411 196.881475 
L 379.753797 196.879487 
L 377.912182 196.877225 
L 376.070568 196.874644 
L 374.228964 196.871725 
L 372.38735 196.868444 
L 370.545736 196.864782 
L 368.704121 196.860697 
L 366.862507 196.856198 
L 365.020893 196.851233 
L 363.179284 196.845802 
L 361.337675 196.839884 
L 359.49606 196.81803 
L 357.654446 196.732547 
L 355.812837 196.646835 
L 353.971223 196.594324 
L 352.129608 196.592825 
L 350.287999 196.591233 
L 348.446385 196.574995 
L 346.604771 196.458778 
L 344.763162 196.436995 
L 342.921547 196.414553 
L 341.079933 196.300688 
L 339.238324 196.217912 
L 337.39671 196.217799 
L 335.555095 196.217705 
L 333.713486 196.217612 
L 331.871872 196.171423 
L 330.030258 196.05482 
L 328.188649 195.94205 
L 326.347034 195.833139 
L 324.50542 195.728114 
L 322.663811 195.626984 
L 320.822197 195.529772 
L 318.980582 195.436504 
L 317.138973 195.347159 
L 315.297359 195.261775 
L 313.455747 195.180347 
L 311.614136 195.102877 
L 309.772521 195.029354 
L 307.93091 194.959813 
L 306.089298 194.543122 
L 304.247684 194.488125 
L 302.406072 194.164894 
L 300.564461 193.892532 
L 298.722846 193.768932 
L 296.881235 193.508594 
L 295.039623 193.013691 
L 293.19801 192.302223 
L 291.356397 191.812156 
L 289.514785 191.012953 
L 287.673172 190.176861 
L 285.831559 189.303618 
L 283.989948 188.452819 
L 282.148335 187.445547 
L 280.306722 186.049637 
L 278.46511 183.746677 
L 276.623497 180.527628 
L 274.781885 167.380448 
z
" clip-path="url(#pd0ac8c7df0)" style="fill: #ff7f0e; fill-opacity: 0.3"/>
   </g>
   <g id="matplotlib.axis_7">
    <g id="xtick_10">
     <g id="line2d_19">
      <g>
       <use xlink:href="#m226a8ae898" x="272.940272" y="226.65125" style="stroke: #000000; stroke-width: 0.8"/>
      </g>
     </g>
     <g id="text_26">
      <!-- 0.0 -->
      <g transform="translate(264.633475 242.674062) scale(0.13 -0.13)">
       <use xlink:href="#LMRoman10-Regular-30"/>
       <use xlink:href="#LMRoman10-Regular-2e" x="49.999985"/>
       <use xlink:href="#LMRoman10-Regular-30" x="77.799973"/>
      </g>
     </g>
    </g>
    <g id="xtick_11">
     <g id="line2d_20">
      <g>
       <use xlink:href="#m226a8ae898" x="318.520182" y="226.65125" style="stroke: #000000; stroke-width: 0.8"/>
      </g>
     </g>
     <g id="text_27">
      <!-- 0.5 -->
      <g transform="translate(310.213385 242.674062) scale(0.13 -0.13)">
       <use xlink:href="#LMRoman10-Regular-30"/>
       <use xlink:href="#LMRoman10-Regular-2e" x="49.999985"/>
       <use xlink:href="#LMRoman10-Regular-35" x="77.799973"/>
      </g>
     </g>
    </g>
    <g id="xtick_12">
     <g id="line2d_21">
      <g>
       <use xlink:href="#m226a8ae898" x="364.100091" y="226.65125" style="stroke: #000000; stroke-width: 0.8"/>
      </g>
     </g>
     <g id="text_28">
      <!-- 1.0 -->
      <g transform="translate(355.793294 242.674062) scale(0.13 -0.13)">
       <use xlink:href="#LMRoman10-Regular-31"/>
       <use xlink:href="#LMRoman10-Regular-2e" x="49.999985"/>
       <use xlink:href="#LMRoman10-Regular-30" x="77.799973"/>
      </g>
     </g>
    </g>
    <g id="xtick_13">
     <g id="line2d_22">
      <g>
       <use xlink:href="#m226a8ae898" x="409.68" y="226.65125" style="stroke: #000000; stroke-width: 0.8"/>
      </g>
     </g>
     <g id="text_29">
      <!-- 1.5 -->
      <g transform="translate(401.373203 242.674062) scale(0.13 -0.13)">
       <use xlink:href="#LMRoman10-Regular-31"/>
       <use xlink:href="#LMRoman10-Regular-2e" x="49.999985"/>
       <use xlink:href="#LMRoman10-Regular-35" x="77.799973"/>
      </g>
     </g>
    </g>
    <g id="text_30">
     <!-- $c$ [$mg/L$] -->
     <g transform="translate(315.635136 258.946875) scale(0.13 -0.13)">
      <use xlink:href="#DejaVuSans-Oblique-63"/>
      <use xlink:href="#LMRoman10-Regular-20" transform="translate(54.980469 0)"/>
      <use xlink:href="#LMRoman10-Regular-5b" transform="translate(88.280457 0)"/>
      <use xlink:href="#DejaVuSans-Oblique-6d" transform="translate(116.080444 0)"/>
      <use xlink:href="#DejaVuSans-Oblique-67" transform="translate(213.492554 0)"/>
      <use xlink:href="#DejaVuSans-2f" transform="translate(276.969116 0)"/>
      <use xlink:href="#DejaVuSans-Oblique-4c" transform="translate(310.660522 0)"/>
      <use xlink:href="#LMRoman10-Regular-5d" transform="translate(366.373413 0)"/>
     </g>
    </g>
   </g>
   <g id="matplotlib.axis_8">
    <g id="ytick_10">
     <g id="line2d_23">
      <g>
       <use xlink:href="#meb8d232ae3" x="272.940272" y="216.893113" style="stroke: #000000; stroke-width: 0.8"/>
      </g>
     </g>
     <g id="text_31">
      <!-- 3.0 -->
      <g transform="translate(249.326679 221.404519) scale(0.13 -0.13)">
       <use xlink:href="#LMRoman10-Regular-33"/>
       <use xlink:href="#LMRoman10-Regular-2e" x="49.999985"/>
       <use xlink:href="#LMRoman10-Regular-30" x="77.799973"/>
      </g>
     </g>
    </g>
    <g id="ytick_11">
     <g id="line2d_24">
      <g>
       <use xlink:href="#meb8d232ae3" x="272.940272" y="187.425659" style="stroke: #000000; stroke-width: 0.8"/>
      </g>
     </g>
     <g id="text_32">
      <!-- 4.5 -->
      <g transform="translate(249.326679 191.937066) scale(0.13 -0.13)">
       <use xlink:href="#LMRoman10-Regular-34"/>
       <use xlink:href="#LMRoman10-Regular-2e" x="49.999985"/>
       <use xlink:href="#LMRoman10-Regular-35" x="77.799973"/>
      </g>
     </g>
    </g>
    <g id="text_33">
     <!-- $R$ [-] -->
     <g transform="translate(242.076679 207.630313) rotate(-90) scale(0.13 -0.13)">
      <defs>
       <path id="DejaVuSans-Oblique-52" d="M 1613 4147 
L 1294 2491 
L 2106 2491 
Q 2584 2491 2879 2755 
Q 3175 3019 3175 3444 
Q 3175 3784 2976 3965 
Q 2778 4147 2406 4147 
L 1613 4147 
z
M 2772 2241 
Q 2972 2194 3105 2009 
Q 3238 1825 3413 1275 
L 3809 0 
L 3144 0 
L 2778 1197 
Q 2638 1659 2453 1815 
Q 2269 1972 1888 1972 
L 1191 1972 
L 806 0 
L 172 0 
L 1081 4666 
L 2503 4666 
Q 3150 4666 3495 4373 
Q 3841 4081 3841 3531 
Q 3841 3044 3547 2687 
Q 3253 2331 2772 2241 
z
" transform="scale(0.015625)"/>
      </defs>
      <use xlink:href="#DejaVuSans-Oblique-52"/>
      <use xlink:href="#LMRoman10-Regular-20" transform="translate(69.482422 0)"/>
      <use xlink:href="#LMRoman10-Regular-5b" transform="translate(102.78241 0)"/>
      <use xlink:href="#LMRoman10-Regular-2d" transform="translate(130.582397 0)"/>
      <use xlink:href="#LMRoman10-Regular-5d" transform="translate(163.882385 0)"/>
     </g>
    </g>
   </g>
   <g id="patch_21">
    <path d="M 272.940272 226.65125 
L 272.940272 163.649375 
" style="fill: none; stroke: #000000; stroke-width: 0.8; stroke-linejoin: miter; stroke-linecap: square"/>
   </g>
   <g id="patch_22">
    <path d="M 409.68 226.65125 
L 409.68 163.649375 
" style="fill: none; stroke: #000000; stroke-width: 0.8; stroke-linejoin: miter; stroke-linecap: square"/>
   </g>
   <g id="patch_23">
    <path d="M 272.940272 226.65125 
L 409.68 226.65125 
" style="fill: none; stroke: #000000; stroke-width: 0.8; stroke-linejoin: miter; stroke-linecap: square"/>
   </g>
   <g id="patch_24">
    <path d="M 272.940272 163.649375 
L 409.68 163.649375 
" style="fill: none; stroke: #000000; stroke-width: 0.8; stroke-linejoin: miter; stroke-linecap: square"/>
   </g>
   <g id="text_34">
    <!-- Retardation -->
    <g transform="translate(300.438136 157.649375) scale(0.156 -0.156)">
     <defs>
      <path id="LMRoman10-Regular-52" d="M 4685 563 
C 4685 602 4685 672 4602 672 
C 4531 672 4531 614 4525 570 
C 4486 115 4262 0 4102 0 
C 3789 0 3738 326 3648 922 
L 3565 1434 
C 3450 1843 3136 2054 2784 2176 
C 3405 2330 3904 2720 3904 3219 
C 3904 3834 3174 4371 2234 4371 
L 224 4371 
L 224 4173 
L 378 4173 
C 870 4173 883 4102 883 3872 
L 883 499 
C 883 269 870 198 378 198 
L 224 198 
L 224 0 
C 454 19 909 19 1158 19 
C 1408 19 1862 19 2093 0 
L 2093 198 
L 1939 198 
C 1446 198 1434 269 1434 499 
L 1434 2118 
L 2170 2118 
C 2272 2118 2541 2118 2765 1901 
C 3008 1670 3008 1472 3008 1043 
C 3008 627 3008 371 3270 128 
C 3533 -102 3885 -141 4077 -141 
C 4576 -141 4685 384 4685 563 
z
M 3245 3219 
C 3245 2778 3091 2259 2144 2259 
L 1434 2259 
L 1434 3917 
C 1434 4064 1434 4141 1574 4160 
C 1638 4173 1824 4173 1952 4173 
C 2528 4173 3245 4147 3245 3219 
z
" transform="scale(0.015625)"/>
      <path id="LMRoman10-Regular-74" d="M 2125 794 
L 2125 1158 
L 1965 1158 
L 1965 806 
C 1965 333 1773 90 1536 90 
C 1107 90 1107 672 1107 781 
L 1107 2560 
L 2022 2560 
L 2022 2758 
L 1107 2758 
L 1107 3936 
L 947 3936 
C 941 3411 749 2726 122 2701 
L 122 2560 
L 666 2560 
L 666 794 
C 666 6 1261 -70 1491 -70 
C 1946 -70 2125 384 2125 794 
z
" transform="scale(0.015625)"/>
      <path id="LMRoman10-Regular-64" d="M 3373 0 
L 3373 198 
C 2925 198 2874 243 2874 557 
L 2874 4442 
L 1952 4371 
L 1952 4173 
C 2400 4173 2451 4128 2451 3814 
L 2451 2432 
C 2266 2662 1990 2829 1645 2829 
C 890 2829 218 2202 218 1376 
C 218 563 845 -70 1574 -70 
C 1984 -70 2272 147 2432 352 
L 2432 -70 
L 3373 0 
z
M 2432 755 
C 2432 640 2432 627 2362 518 
C 2170 211 1882 70 1606 70 
C 1318 70 1088 237 934 480 
C 768 742 749 1107 749 1370 
C 749 1606 762 1990 947 2278 
C 1082 2477 1325 2688 1670 2688 
C 1894 2688 2163 2592 2362 2304 
C 2432 2195 2432 2182 2432 2067 
L 2432 755 
z
" transform="scale(0.015625)"/>
      <path id="LMRoman10-Regular-69" d="M 1581 0 
L 1581 198 
C 1158 198 1133 230 1133 480 
L 1133 2829 
L 237 2758 
L 237 2560 
C 653 2560 710 2522 710 2208 
L 710 486 
C 710 198 640 198 211 198 
L 211 0 
L 915 19 
C 1139 19 1363 6 1581 0 
z
M 1229 3866 
C 1229 4038 1082 4205 890 4205 
C 672 4205 544 4026 544 3866 
C 544 3693 691 3526 883 3526 
C 1101 3526 1229 3706 1229 3866 
z
" transform="scale(0.015625)"/>
      <path id="LMRoman10-Regular-6e" d="M 3424 0 
L 3424 198 
C 3091 198 2931 198 2925 390 
L 2925 1613 
C 2925 2163 2925 2362 2726 2592 
C 2637 2701 2426 2829 2054 2829 
C 1587 2829 1286 2554 1107 2157 
L 1107 2829 
L 205 2758 
L 205 2560 
C 653 2560 704 2515 704 2202 
L 704 486 
C 704 198 634 198 205 198 
L 205 0 
L 928 19 
L 1645 0 
L 1645 198 
C 1216 198 1146 198 1146 486 
L 1146 1664 
C 1146 2330 1600 2688 2010 2688 
C 2413 2688 2483 2342 2483 1978 
L 2483 486 
C 2483 198 2413 198 1984 198 
L 1984 0 
L 2707 19 
L 3424 0 
z
" transform="scale(0.015625)"/>
     </defs>
     <use xlink:href="#LMRoman10-Regular-52"/>
     <use xlink:href="#LMRoman10-Regular-65" x="73.599991"/>
     <use xlink:href="#LMRoman10-Regular-74" x="117.999985"/>
     <use xlink:href="#LMRoman10-Regular-61" x="156.899979"/>
     <use xlink:href="#LMRoman10-Regular-72" x="206.899963"/>
     <use xlink:href="#LMRoman10-Regular-64" x="246.09996"/>
     <use xlink:href="#LMRoman10-Regular-61" x="301.699951"/>
     <use xlink:href="#LMRoman10-Regular-74" x="351.699936"/>
     <use xlink:href="#LMRoman10-Regular-69" x="390.59993"/>
     <use xlink:href="#LMRoman10-Regular-6f" x="418.399918"/>
     <use xlink:href="#LMRoman10-Regular-6e" x="468.399902"/>
    </g>
   </g>
  </g>
 </g>
 <defs>
  <clipPath id="pe516ab3cdd">
   <rect x="76.5875" y="31.155" width="136.739728" height="63.001875"/>
  </clipPath>
  <clipPath id="pc3c4a19f43">
   <rect x="272.940272" y="31.155" width="136.739728" height="63.001875"/>
  </clipPath>
  <clipPath id="p6214940284">
   <rect x="76.5875" y="163.649375" width="136.739728" height="63.001875"/>
  </clipPath>
  <clipPath id="pd0ac8c7df0">
   <rect x="272.940272" y="163.649375" width="136.739728" height="63.001875"/>
  </clipPath>
 </defs>
</svg>
