<?xml version="1.0" encoding="utf-8" standalone="no"?>
<!DOCTYPE svg PUBLIC "-//W3C//DTD SVG 1.1//EN"
  "http://www.w3.org/Graphics/SVG/1.1/DTD/svg11.dtd">
<svg xmlns:xlink="http://www.w3.org/1999/xlink" width="288pt" height="180pt" viewBox="0 0 288 180" xmlns="http://www.w3.org/2000/svg" version="1.1">
 <metadata>
  <rdf:RDF xmlns:dc="http://purl.org/dc/elements/1.1/" xmlns:cc="http://creativecommons.org/ns#" xmlns:rdf="http://www.w3.org/1999/02/22-rdf-syntax-ns#">
   <cc:Work>
    <dc:type rdf:resource="http://purl.org/dc/dcmitype/StillImage"/>
    <dc:date>2024-12-08T03:21:42.538869</dc:date>
    <dc:format>image/svg+xml</dc:format>
    <dc:creator>
     <cc:Agent>
      <dc:title>Matplotlib v3.8.4, https://matplotlib.org/</dc:title>
     </cc:Agent>
    </dc:creator>
   </cc:Work>
  </rdf:RDF>
 </metadata>
 <defs>
  <style type="text/css">*{stroke-linejoin: round; stroke-linecap: butt}</style>
 </defs>
 <g id="figure_1">
  <g id="patch_1">
   <path d="M 0 180 
L 288 180 
L 288 0 
L 0 0 
z
" style="fill: #ffffff"/>
  </g>
  <g id="axes_1">
   <g id="patch_2">
    <path d="M 61.265 123.8875 
L 272.88 123.8875 
L 272.88 15.12 
L 61.265 15.12 
z
" style="fill: #ffffff"/>
   </g>
   <g id="matplotlib.axis_1">
    <g id="xtick_1">
     <g id="line2d_1">
      <defs>
       <path id="m0f1e18fa6c" d="M 0 0 
L 0 3.5 
" style="stroke: #000000; stroke-width: 0.8"/>
      </defs>
      <g>
       <use xlink:href="#m0f1e18fa6c" x="70.883864" y="123.8875" style="stroke: #000000; stroke-width: 0.8"/>
      </g>
     </g>
     <g id="text_1">
      <!-- 0.0 -->
      <g transform="translate(61.938082 140.604375) scale(0.14 -0.14)">
       <defs>
        <path id="LMRoman10-Regular-30" d="M 2944 2048 
C 2944 2560 2912 3072 2688 3546 
C 2394 4160 1869 4262 1600 4262 
C 1216 4262 749 4096 486 3501 
C 282 3059 250 2560 250 2048 
C 250 1568 275 992 538 506 
C 813 -13 1280 -141 1594 -141 
C 1939 -141 2426 -6 2707 602 
C 2912 1043 2944 1542 2944 2048 
z
M 2413 2125 
C 2413 1645 2413 1210 2342 800 
C 2246 192 1882 0 1594 0 
C 1344 0 966 160 851 774 
C 781 1158 781 1747 781 2125 
C 781 2534 781 2957 832 3302 
C 954 4064 1434 4122 1594 4122 
C 1805 4122 2227 4006 2349 3373 
C 2413 3014 2413 2528 2413 2125 
z
" transform="scale(0.015625)"/>
        <path id="LMRoman10-Regular-2e" d="M 1229 339 
C 1229 525 1075 678 890 678 
C 704 678 550 525 550 339 
C 550 154 704 0 890 0 
C 1075 0 1229 154 1229 339 
z
" transform="scale(0.015625)"/>
       </defs>
       <use xlink:href="#LMRoman10-Regular-30"/>
       <use xlink:href="#LMRoman10-Regular-2e" x="49.999985"/>
       <use xlink:href="#LMRoman10-Regular-30" x="77.799973"/>
      </g>
     </g>
    </g>
    <g id="xtick_2">
     <g id="line2d_2">
      <g>
       <use xlink:href="#m0f1e18fa6c" x="167.0725" y="123.8875" style="stroke: #000000; stroke-width: 0.8"/>
      </g>
     </g>
     <g id="text_2">
      <!-- 0.5 -->
      <g transform="translate(158.126719 140.604375) scale(0.14 -0.14)">
       <defs>
        <path id="LMRoman10-Regular-35" d="M 2874 1286 
C 2874 2048 2349 2688 1658 2688 
C 1350 2688 1075 2586 845 2362 
L 845 3610 
C 973 3571 1184 3526 1389 3526 
C 2176 3526 2624 4109 2624 4192 
C 2624 4230 2605 4262 2560 4262 
C 2560 4262 2541 4262 2509 4243 
C 2381 4186 2067 4058 1638 4058 
C 1382 4058 1088 4102 787 4237 
C 736 4256 710 4256 710 4256 
C 646 4256 646 4205 646 4102 
L 646 2208 
C 646 2093 646 2042 736 2042 
C 781 2042 794 2061 819 2099 
C 890 2202 1126 2547 1645 2547 
C 1978 2547 2138 2253 2189 2138 
C 2291 1901 2304 1651 2304 1331 
C 2304 1107 2304 723 2150 454 
C 1997 205 1760 38 1466 38 
C 998 38 634 378 525 755 
C 544 749 563 742 634 742 
C 845 742 954 902 954 1056 
C 954 1210 845 1370 634 1370 
C 544 1370 320 1325 320 1030 
C 320 480 762 -141 1478 -141 
C 2221 -141 2874 474 2874 1286 
z
" transform="scale(0.015625)"/>
       </defs>
       <use xlink:href="#LMRoman10-Regular-30"/>
       <use xlink:href="#LMRoman10-Regular-2e" x="49.999985"/>
       <use xlink:href="#LMRoman10-Regular-35" x="77.799973"/>
      </g>
     </g>
    </g>
    <g id="xtick_3">
     <g id="line2d_3">
      <g>
       <use xlink:href="#m0f1e18fa6c" x="263.261136" y="123.8875" style="stroke: #000000; stroke-width: 0.8"/>
      </g>
     </g>
     <g id="text_3">
      <!-- 1.0 -->
      <g transform="translate(254.315355 140.604375) scale(0.14 -0.14)">
       <defs>
        <path id="LMRoman10-Regular-31" d="M 2682 0 
L 2682 198 
L 2477 198 
C 1901 198 1882 269 1882 506 
L 1882 4096 
C 1882 4250 1882 4262 1734 4262 
C 1338 3853 774 3853 570 3853 
L 570 3654 
C 698 3654 1075 3654 1408 3821 
L 1408 506 
C 1408 275 1389 198 813 198 
L 608 198 
L 608 0 
C 832 19 1389 19 1645 19 
C 1901 19 2458 19 2682 0 
z
" transform="scale(0.015625)"/>
       </defs>
       <use xlink:href="#LMRoman10-Regular-31"/>
       <use xlink:href="#LMRoman10-Regular-2e" x="49.999985"/>
       <use xlink:href="#LMRoman10-Regular-30" x="77.799973"/>
      </g>
     </g>
    </g>
    <g id="text_4">
     <!-- $c$ [$mg/L$] -->
     <g transform="translate(139.4225 157.82125) scale(0.14 -0.14)">
      <defs>
       <path id="DejaVuSans-Oblique-63" d="M 3431 3366 
L 3316 2797 
Q 3109 2947 2876 3022 
Q 2644 3097 2394 3097 
Q 2119 3097 1870 3000 
Q 1622 2903 1453 2725 
Q 1184 2453 1037 2087 
Q 891 1722 891 1331 
Q 891 859 1127 628 
Q 1363 397 1844 397 
Q 2081 397 2348 469 
Q 2616 541 2906 684 
L 2797 116 
Q 2547 13 2283 -39 
Q 2019 -91 1741 -91 
Q 1044 -91 669 257 
Q 294 606 294 1253 
Q 294 1797 489 2255 
Q 684 2713 1069 3078 
Q 1331 3328 1684 3456 
Q 2038 3584 2456 3584 
Q 2700 3584 2940 3529 
Q 3181 3475 3431 3366 
z
" transform="scale(0.015625)"/>
       <path id="LMRoman10-Regular-20" transform="scale(0.015625)"/>
       <path id="LMRoman10-Regular-5b" d="M 1632 -1600 
L 1632 -1344 
L 1011 -1344 
L 1011 4544 
L 1632 4544 
L 1632 4800 
L 755 4800 
L 755 -1600 
L 1632 -1600 
z
" transform="scale(0.015625)"/>
       <path id="DejaVuSans-Oblique-6d" d="M 5747 2113 
L 5338 0 
L 4763 0 
L 5166 2094 
Q 5191 2228 5203 2325 
Q 5216 2422 5216 2491 
Q 5216 2772 5059 2928 
Q 4903 3084 4622 3084 
Q 4203 3084 3875 2770 
Q 3547 2456 3450 1953 
L 3066 0 
L 2491 0 
L 2900 2094 
Q 2925 2209 2937 2307 
Q 2950 2406 2950 2484 
Q 2950 2769 2794 2926 
Q 2638 3084 2363 3084 
Q 1938 3084 1609 2770 
Q 1281 2456 1184 1953 
L 800 0 
L 225 0 
L 909 3500 
L 1484 3500 
L 1375 2956 
Q 1609 3263 1923 3423 
Q 2238 3584 2597 3584 
Q 2978 3584 3223 3384 
Q 3469 3184 3519 2828 
Q 3781 3197 4126 3390 
Q 4472 3584 4856 3584 
Q 5306 3584 5551 3325 
Q 5797 3066 5797 2591 
Q 5797 2488 5784 2364 
Q 5772 2241 5747 2113 
z
" transform="scale(0.015625)"/>
       <path id="DejaVuSans-Oblique-67" d="M 3816 3500 
L 3219 434 
Q 3047 -456 2561 -893 
Q 2075 -1331 1253 -1331 
Q 950 -1331 690 -1286 
Q 431 -1241 206 -1147 
L 313 -588 
Q 525 -725 762 -790 
Q 1000 -856 1269 -856 
Q 1816 -856 2167 -557 
Q 2519 -259 2631 300 
L 2681 563 
Q 2441 288 2122 144 
Q 1803 0 1434 0 
Q 903 0 598 351 
Q 294 703 294 1319 
Q 294 1803 478 2267 
Q 663 2731 997 3091 
Q 1219 3328 1514 3456 
Q 1809 3584 2131 3584 
Q 2484 3584 2746 3420 
Q 3009 3256 3138 2956 
L 3238 3500 
L 3816 3500 
z
M 2950 2216 
Q 2950 2641 2750 2872 
Q 2550 3103 2181 3103 
Q 1953 3103 1747 3012 
Q 1541 2922 1394 2759 
Q 1156 2491 1023 2127 
Q 891 1763 891 1375 
Q 891 944 1092 712 
Q 1294 481 1672 481 
Q 2219 481 2584 976 
Q 2950 1472 2950 2216 
z
" transform="scale(0.015625)"/>
       <path id="DejaVuSans-2f" d="M 1625 4666 
L 2156 4666 
L 531 -594 
L 0 -594 
L 1625 4666 
z
" transform="scale(0.015625)"/>
       <path id="DejaVuSans-Oblique-4c" d="M 1075 4666 
L 1709 4666 
L 909 525 
L 3181 525 
L 3078 0 
L 172 0 
L 1075 4666 
z
" transform="scale(0.015625)"/>
       <path id="LMRoman10-Regular-5d" d="M 1018 -1600 
L 1018 4800 
L 141 4800 
L 141 4544 
L 762 4544 
L 762 -1344 
L 141 -1344 
L 141 -1600 
L 1018 -1600 
z
" transform="scale(0.015625)"/>
      </defs>
      <use xlink:href="#DejaVuSans-Oblique-63"/>
      <use xlink:href="#LMRoman10-Regular-20" transform="translate(54.980469 0)"/>
      <use xlink:href="#LMRoman10-Regular-5b" transform="translate(88.280457 0)"/>
      <use xlink:href="#DejaVuSans-Oblique-6d" transform="translate(116.080444 0)"/>
      <use xlink:href="#DejaVuSans-Oblique-67" transform="translate(213.492554 0)"/>
      <use xlink:href="#DejaVuSans-2f" transform="translate(276.969116 0)"/>
      <use xlink:href="#DejaVuSans-Oblique-4c" transform="translate(310.660522 0)"/>
      <use xlink:href="#LMRoman10-Regular-5d" transform="translate(366.373413 0)"/>
     </g>
    </g>
   </g>
   <g id="matplotlib.axis_2">
    <g id="ytick_1">
     <g id="line2d_4">
      <defs>
       <path id="mabf8066f31" d="M 0 0 
L -3.5 0 
" style="stroke: #000000; stroke-width: 0.8"/>
      </defs>
      <g>
       <use xlink:href="#mabf8066f31" x="61.265" y="88.330579" style="stroke: #000000; stroke-width: 0.8"/>
      </g>
     </g>
     <g id="text_5">
      <!-- 3.0 -->
      <g transform="translate(36.373438 93.189016) scale(0.14 -0.14)">
       <defs>
        <path id="LMRoman10-Regular-33" d="M 2925 1094 
C 2925 1619 2522 2118 1856 2253 
C 2381 2426 2752 2874 2752 3379 
C 2752 3904 2189 4262 1574 4262 
C 928 4262 442 3878 442 3392 
C 442 3181 582 3059 768 3059 
C 966 3059 1094 3200 1094 3386 
C 1094 3706 794 3706 698 3706 
C 896 4019 1318 4102 1549 4102 
C 1811 4102 2163 3962 2163 3386 
C 2163 3309 2150 2938 1984 2656 
C 1792 2349 1574 2330 1414 2323 
C 1363 2317 1210 2304 1165 2304 
C 1114 2298 1069 2291 1069 2227 
C 1069 2157 1114 2157 1222 2157 
L 1504 2157 
C 2029 2157 2266 1722 2266 1094 
C 2266 224 1824 38 1542 38 
C 1267 38 787 147 563 525 
C 787 493 986 634 986 877 
C 986 1107 813 1235 627 1235 
C 474 1235 269 1146 269 864 
C 269 282 864 -141 1562 -141 
C 2342 -141 2925 442 2925 1094 
z
" transform="scale(0.015625)"/>
       </defs>
       <use xlink:href="#LMRoman10-Regular-33"/>
       <use xlink:href="#LMRoman10-Regular-2e" x="49.999985"/>
       <use xlink:href="#LMRoman10-Regular-30" x="77.799973"/>
      </g>
     </g>
    </g>
    <g id="ytick_2">
     <g id="line2d_5">
      <g>
       <use xlink:href="#mabf8066f31" x="61.265" y="40.650988" style="stroke: #000000; stroke-width: 0.8"/>
      </g>
     </g>
     <g id="text_6">
      <!-- 4.5 -->
      <g transform="translate(36.373438 45.509426) scale(0.14 -0.14)">
       <defs>
        <path id="LMRoman10-Regular-34" d="M 3014 1056 
L 3014 1254 
L 2374 1254 
L 2374 4166 
C 2374 4294 2374 4333 2272 4333 
C 2214 4333 2195 4333 2144 4256 
L 179 1254 
L 179 1056 
L 1882 1056 
L 1882 499 
C 1882 269 1869 198 1395 198 
L 1261 198 
L 1261 0 
C 1523 19 1856 19 2125 19 
C 2394 19 2733 19 2995 0 
L 2995 198 
L 2861 198 
C 2387 198 2374 269 2374 499 
L 2374 1056 
L 3014 1056 
z
M 1920 1254 
L 358 1254 
L 1920 3642 
L 1920 1254 
z
" transform="scale(0.015625)"/>
       </defs>
       <use xlink:href="#LMRoman10-Regular-34"/>
       <use xlink:href="#LMRoman10-Regular-2e" x="49.999985"/>
       <use xlink:href="#LMRoman10-Regular-35" x="77.799973"/>
      </g>
     </g>
    </g>
    <g id="text_7">
     <!-- $R$ [-] -->
     <g transform="translate(28.873438 82.94375) rotate(-90) scale(0.14 -0.14)">
      <defs>
       <path id="DejaVuSans-Oblique-52" d="M 1613 4147 
L 1294 2491 
L 2106 2491 
Q 2584 2491 2879 2755 
Q 3175 3019 3175 3444 
Q 3175 3784 2976 3965 
Q 2778 4147 2406 4147 
L 1613 4147 
z
M 2772 2241 
Q 2972 2194 3105 2009 
Q 3238 1825 3413 1275 
L 3809 0 
L 3144 0 
L 2778 1197 
Q 2638 1659 2453 1815 
Q 2269 1972 1888 1972 
L 1191 1972 
L 806 0 
L 172 0 
L 1081 4666 
L 2503 4666 
Q 3150 4666 3495 4373 
Q 3841 4081 3841 3531 
Q 3841 3044 3547 2687 
Q 3253 2331 2772 2241 
z
" transform="scale(0.015625)"/>
       <path id="LMRoman10-Regular-2d" d="M 1766 1197 
L 1766 1568 
L 70 1568 
L 70 1197 
L 1766 1197 
z
" transform="scale(0.015625)"/>
      </defs>
      <use xlink:href="#DejaVuSans-Oblique-52"/>
      <use xlink:href="#LMRoman10-Regular-20" transform="translate(69.482422 0)"/>
      <use xlink:href="#LMRoman10-Regular-5b" transform="translate(102.78241 0)"/>
      <use xlink:href="#LMRoman10-Regular-2d" transform="translate(130.582397 0)"/>
      <use xlink:href="#LMRoman10-Regular-5d" transform="translate(163.882385 0)"/>
     </g>
    </g>
   </g>
   <g id="line2d_6">
    <path d="M 70.883864 20.063977 
L 72.827068 22.687567 
L 74.770273 25.233659 
L 76.713478 27.705179 
L 78.656683 30.105097 
L 80.599887 32.436097 
L 82.543093 34.700831 
L 84.486297 36.901785 
L 86.429502 39.041292 
L 88.372707 41.121672 
L 90.315911 43.145016 
L 92.259116 45.113463 
L 94.202322 47.028935 
L 96.145526 48.893329 
L 98.088729 50.708463 
L 100.031936 52.476004 
L 101.97514 54.19768 
L 103.918344 55.874991 
L 105.861551 57.5095 
L 107.804755 59.1026 
L 109.747958 60.655716 
L 111.691165 62.170189 
L 113.634369 63.647247 
L 115.577573 65.088126 
L 117.52078 66.49403 
L 119.463981 67.866036 
L 121.407187 69.205272 
L 123.350394 70.512724 
L 125.293595 71.789416 
L 127.236802 73.036308 
L 129.180009 74.254312 
L 131.12321 75.444328 
L 133.066416 76.607176 
L 135.009623 77.743718 
L 136.952824 78.854699 
L 138.896031 79.940913 
L 140.839238 81.003073 
L 142.782439 82.041884 
L 144.725645 83.05805 
L 146.668852 84.052186 
L 148.612053 85.024943 
L 150.55526 85.976942 
L 152.498467 86.90876 
L 154.441668 87.82095 
L 156.384874 88.714064 
L 158.328081 89.588657 
L 160.271282 90.445198 
L 162.214489 91.284211 
L 164.157696 92.106156 
L 166.100897 92.911489 
L 168.044098 93.700673 
L 169.987304 94.474124 
L 171.930511 95.232266 
L 173.873718 95.975479 
L 175.816925 96.704178 
L 177.760131 97.418722 
L 179.703327 98.119472 
L 181.646533 98.806801 
L 183.58974 99.481042 
L 185.532947 100.142514 
L 187.476154 100.791549 
L 189.41936 101.428451 
L 191.362556 102.05353 
L 193.305762 102.667053 
L 195.248969 103.269328 
L 197.192176 103.860616 
L 199.135383 104.441187 
L 201.078589 105.0113 
L 203.021785 105.571197 
L 204.964991 106.121136 
L 206.908198 106.661329 
L 208.851405 107.192019 
L 210.794612 107.713432 
L 212.737807 108.225775 
L 214.681014 108.729258 
L 216.62422 109.224086 
L 218.567427 109.710464 
L 220.510634 110.18856 
L 222.453841 110.658576 
L 224.397036 111.120711 
L 226.340243 111.575101 
L 228.283449 112.02195 
L 230.226656 112.461418 
L 232.169863 112.893648 
L 234.11307 113.318823 
L 236.056265 113.737078 
L 237.999472 114.148574 
L 239.942678 114.553446 
L 241.885885 114.951838 
L 243.829092 115.343903 
L 245.772299 115.729753 
L 247.715494 116.109525 
L 249.658701 116.48334 
L 251.601907 116.851351 
L 253.545114 117.213632 
L 255.488321 117.570335 
L 257.431528 117.921566 
L 259.374723 118.267433 
L 261.31793 118.608054 
L 263.261136 118.943523 
" clip-path="url(#pe78b609f7a)" style="fill: none; stroke: #000000; stroke-width: 1.5; stroke-linecap: square"/>
   </g>
   <g id="patch_3">
    <path d="M 61.265 123.8875 
L 61.265 15.12 
" style="fill: none; stroke: #000000; stroke-width: 0.8; stroke-linejoin: miter; stroke-linecap: square"/>
   </g>
   <g id="patch_4">
    <path d="M 272.88 123.8875 
L 272.88 15.12 
" style="fill: none; stroke: #000000; stroke-width: 0.8; stroke-linejoin: miter; stroke-linecap: square"/>
   </g>
   <g id="patch_5">
    <path d="M 61.265 123.8875 
L 272.88 123.8875 
" style="fill: none; stroke: #000000; stroke-width: 0.8; stroke-linejoin: miter; stroke-linecap: square"/>
   </g>
   <g id="patch_6">
    <path d="M 61.265 15.12 
L 272.88 15.12 
" style="fill: none; stroke: #000000; stroke-width: 0.8; stroke-linejoin: miter; stroke-linecap: square"/>
   </g>
  </g>
 </g>
 <defs>
  <clipPath id="pe78b609f7a">
   <rect x="61.265" y="15.12" width="211.615" height="108.7675"/>
  </clipPath>
 </defs>
</svg>
