<?xml version="1.0" encoding="utf-8" standalone="no"?>
<!DOCTYPE svg PUBLIC "-//W3C//DTD SVG 1.1//EN"
  "http://www.w3.org/Graphics/SVG/1.1/DTD/svg11.dtd">
<svg xmlns:xlink="http://www.w3.org/1999/xlink" width="288pt" height="180pt" viewBox="0 0 288 180" xmlns="http://www.w3.org/2000/svg" version="1.1">
 <metadata>
  <rdf:RDF xmlns:dc="http://purl.org/dc/elements/1.1/" xmlns:cc="http://creativecommons.org/ns#" xmlns:rdf="http://www.w3.org/1999/02/22-rdf-syntax-ns#">
   <cc:Work>
    <dc:type rdf:resource="http://purl.org/dc/dcmitype/StillImage"/>
    <dc:date>2024-12-09T07:40:48.144280</dc:date>
    <dc:format>image/svg+xml</dc:format>
    <dc:creator>
     <cc:Agent>
      <dc:title>Matplotlib v3.8.4, https://matplotlib.org/</dc:title>
     </cc:Agent>
    </dc:creator>
   </cc:Work>
  </rdf:RDF>
 </metadata>
 <defs>
  <style type="text/css">*{stroke-linejoin: round; stroke-linecap: butt}</style>
 </defs>
 <g id="figure_1">
  <g id="patch_1">
   <path d="M 0 180 
L 288 180 
L 288 0 
L 0 0 
z
" style="fill: #ffffff"/>
  </g>
  <g id="axes_1">
   <g id="patch_2">
    <path d="M 61.265 123.8875 
L 272.88 123.8875 
L 272.88 15.12 
L 61.265 15.12 
z
" style="fill: #ffffff"/>
   </g>
   <g id="matplotlib.axis_1">
    <g id="xtick_1">
     <g id="line2d_1">
      <defs>
       <path id="mb6107fd799" d="M 0 0 
L 0 3.5 
" style="stroke: #000000; stroke-width: 0.8"/>
      </defs>
      <g>
       <use xlink:href="#mb6107fd799" x="70.883864" y="123.8875" style="stroke: #000000; stroke-width: 0.8"/>
      </g>
     </g>
     <g id="text_1">
      <!-- 0.0 -->
      <g transform="translate(61.938082 140.604375) scale(0.14 -0.14)">
       <defs>
        <path id="LMRoman10-Regular-30" d="M 2944 2048 
C 2944 2560 2912 3072 2688 3546 
C 2394 4160 1869 4262 1600 4262 
C 1216 4262 749 4096 486 3501 
C 282 3059 250 2560 250 2048 
C 250 1568 275 992 538 506 
C 813 -13 1280 -141 1594 -141 
C 1939 -141 2426 -6 2707 602 
C 2912 1043 2944 1542 2944 2048 
z
M 2413 2125 
C 2413 1645 2413 1210 2342 800 
C 2246 192 1882 0 1594 0 
C 1344 0 966 160 851 774 
C 781 1158 781 1747 781 2125 
C 781 2534 781 2957 832 3302 
C 954 4064 1434 4122 1594 4122 
C 1805 4122 2227 4006 2349 3373 
C 2413 3014 2413 2528 2413 2125 
z
" transform="scale(0.015625)"/>
        <path id="LMRoman10-Regular-2e" d="M 1229 339 
C 1229 525 1075 678 890 678 
C 704 678 550 525 550 339 
C 550 154 704 0 890 0 
C 1075 0 1229 154 1229 339 
z
" transform="scale(0.015625)"/>
       </defs>
       <use xlink:href="#LMRoman10-Regular-30"/>
       <use xlink:href="#LMRoman10-Regular-2e" x="49.999985"/>
       <use xlink:href="#LMRoman10-Regular-30" x="77.799973"/>
      </g>
     </g>
    </g>
    <g id="xtick_2">
     <g id="line2d_2">
      <g>
       <use xlink:href="#mb6107fd799" x="167.0725" y="123.8875" style="stroke: #000000; stroke-width: 0.8"/>
      </g>
     </g>
     <g id="text_2">
      <!-- 0.5 -->
      <g transform="translate(158.126719 140.604375) scale(0.14 -0.14)">
       <defs>
        <path id="LMRoman10-Regular-35" d="M 2874 1286 
C 2874 2048 2349 2688 1658 2688 
C 1350 2688 1075 2586 845 2362 
L 845 3610 
C 973 3571 1184 3526 1389 3526 
C 2176 3526 2624 4109 2624 4192 
C 2624 4230 2605 4262 2560 4262 
C 2560 4262 2541 4262 2509 4243 
C 2381 4186 2067 4058 1638 4058 
C 1382 4058 1088 4102 787 4237 
C 736 4256 710 4256 710 4256 
C 646 4256 646 4205 646 4102 
L 646 2208 
C 646 2093 646 2042 736 2042 
C 781 2042 794 2061 819 2099 
C 890 2202 1126 2547 1645 2547 
C 1978 2547 2138 2253 2189 2138 
C 2291 1901 2304 1651 2304 1331 
C 2304 1107 2304 723 2150 454 
C 1997 205 1760 38 1466 38 
C 998 38 634 378 525 755 
C 544 749 563 742 634 742 
C 845 742 954 902 954 1056 
C 954 1210 845 1370 634 1370 
C 544 1370 320 1325 320 1030 
C 320 480 762 -141 1478 -141 
C 2221 -141 2874 474 2874 1286 
z
" transform="scale(0.015625)"/>
       </defs>
       <use xlink:href="#LMRoman10-Regular-30"/>
       <use xlink:href="#LMRoman10-Regular-2e" x="49.999985"/>
       <use xlink:href="#LMRoman10-Regular-35" x="77.799973"/>
      </g>
     </g>
    </g>
    <g id="xtick_3">
     <g id="line2d_3">
      <g>
       <use xlink:href="#mb6107fd799" x="263.261136" y="123.8875" style="stroke: #000000; stroke-width: 0.8"/>
      </g>
     </g>
     <g id="text_3">
      <!-- 1.0 -->
      <g transform="translate(254.315355 140.604375) scale(0.14 -0.14)">
       <defs>
        <path id="LMRoman10-Regular-31" d="M 2682 0 
L 2682 198 
L 2477 198 
C 1901 198 1882 269 1882 506 
L 1882 4096 
C 1882 4250 1882 4262 1734 4262 
C 1338 3853 774 3853 570 3853 
L 570 3654 
C 698 3654 1075 3654 1408 3821 
L 1408 506 
C 1408 275 1389 198 813 198 
L 608 198 
L 608 0 
C 832 19 1389 19 1645 19 
C 1901 19 2458 19 2682 0 
z
" transform="scale(0.015625)"/>
       </defs>
       <use xlink:href="#LMRoman10-Regular-31"/>
       <use xlink:href="#LMRoman10-Regular-2e" x="49.999985"/>
       <use xlink:href="#LMRoman10-Regular-30" x="77.799973"/>
      </g>
     </g>
    </g>
    <g id="text_4">
     <!-- $c$ [$mg/L$] -->
     <g transform="translate(139.4225 157.82125) scale(0.14 -0.14)">
      <defs>
       <path id="DejaVuSans-Oblique-63" d="M 3431 3366 
L 3316 2797 
Q 3109 2947 2876 3022 
Q 2644 3097 2394 3097 
Q 2119 3097 1870 3000 
Q 1622 2903 1453 2725 
Q 1184 2453 1037 2087 
Q 891 1722 891 1331 
Q 891 859 1127 628 
Q 1363 397 1844 397 
Q 2081 397 2348 469 
Q 2616 541 2906 684 
L 2797 116 
Q 2547 13 2283 -39 
Q 2019 -91 1741 -91 
Q 1044 -91 669 257 
Q 294 606 294 1253 
Q 294 1797 489 2255 
Q 684 2713 1069 3078 
Q 1331 3328 1684 3456 
Q 2038 3584 2456 3584 
Q 2700 3584 2940 3529 
Q 3181 3475 3431 3366 
z
" transform="scale(0.015625)"/>
       <path id="LMRoman10-Regular-20" transform="scale(0.015625)"/>
       <path id="LMRoman10-Regular-5b" d="M 1632 -1600 
L 1632 -1344 
L 1011 -1344 
L 1011 4544 
L 1632 4544 
L 1632 4800 
L 755 4800 
L 755 -1600 
L 1632 -1600 
z
" transform="scale(0.015625)"/>
       <path id="DejaVuSans-Oblique-6d" d="M 5747 2113 
L 5338 0 
L 4763 0 
L 5166 2094 
Q 5191 2228 5203 2325 
Q 5216 2422 5216 2491 
Q 5216 2772 5059 2928 
Q 4903 3084 4622 3084 
Q 4203 3084 3875 2770 
Q 3547 2456 3450 1953 
L 3066 0 
L 2491 0 
L 2900 2094 
Q 2925 2209 2937 2307 
Q 2950 2406 2950 2484 
Q 2950 2769 2794 2926 
Q 2638 3084 2363 3084 
Q 1938 3084 1609 2770 
Q 1281 2456 1184 1953 
L 800 0 
L 225 0 
L 909 3500 
L 1484 3500 
L 1375 2956 
Q 1609 3263 1923 3423 
Q 2238 3584 2597 3584 
Q 2978 3584 3223 3384 
Q 3469 3184 3519 2828 
Q 3781 3197 4126 3390 
Q 4472 3584 4856 3584 
Q 5306 3584 5551 3325 
Q 5797 3066 5797 2591 
Q 5797 2488 5784 2364 
Q 5772 2241 5747 2113 
z
" transform="scale(0.015625)"/>
       <path id="DejaVuSans-Oblique-67" d="M 3816 3500 
L 3219 434 
Q 3047 -456 2561 -893 
Q 2075 -1331 1253 -1331 
Q 950 -1331 690 -1286 
Q 431 -1241 206 -1147 
L 313 -588 
Q 525 -725 762 -790 
Q 1000 -856 1269 -856 
Q 1816 -856 2167 -557 
Q 2519 -259 2631 300 
L 2681 563 
Q 2441 288 2122 144 
Q 1803 0 1434 0 
Q 903 0 598 351 
Q 294 703 294 1319 
Q 294 1803 478 2267 
Q 663 2731 997 3091 
Q 1219 3328 1514 3456 
Q 1809 3584 2131 3584 
Q 2484 3584 2746 3420 
Q 3009 3256 3138 2956 
L 3238 3500 
L 3816 3500 
z
M 2950 2216 
Q 2950 2641 2750 2872 
Q 2550 3103 2181 3103 
Q 1953 3103 1747 3012 
Q 1541 2922 1394 2759 
Q 1156 2491 1023 2127 
Q 891 1763 891 1375 
Q 891 944 1092 712 
Q 1294 481 1672 481 
Q 2219 481 2584 976 
Q 2950 1472 2950 2216 
z
" transform="scale(0.015625)"/>
       <path id="DejaVuSans-2f" d="M 1625 4666 
L 2156 4666 
L 531 -594 
L 0 -594 
L 1625 4666 
z
" transform="scale(0.015625)"/>
       <path id="DejaVuSans-Oblique-4c" d="M 1075 4666 
L 1709 4666 
L 909 525 
L 3181 525 
L 3078 0 
L 172 0 
L 1075 4666 
z
" transform="scale(0.015625)"/>
       <path id="LMRoman10-Regular-5d" d="M 1018 -1600 
L 1018 4800 
L 141 4800 
L 141 4544 
L 762 4544 
L 762 -1344 
L 141 -1344 
L 141 -1600 
L 1018 -1600 
z
" transform="scale(0.015625)"/>
      </defs>
      <use xlink:href="#DejaVuSans-Oblique-63"/>
      <use xlink:href="#LMRoman10-Regular-20" transform="translate(54.980469 0)"/>
      <use xlink:href="#LMRoman10-Regular-5b" transform="translate(88.280457 0)"/>
      <use xlink:href="#DejaVuSans-Oblique-6d" transform="translate(116.080444 0)"/>
      <use xlink:href="#DejaVuSans-Oblique-67" transform="translate(213.492554 0)"/>
      <use xlink:href="#DejaVuSans-2f" transform="translate(276.969116 0)"/>
      <use xlink:href="#DejaVuSans-Oblique-4c" transform="translate(310.660522 0)"/>
      <use xlink:href="#LMRoman10-Regular-5d" transform="translate(366.373413 0)"/>
     </g>
    </g>
   </g>
   <g id="matplotlib.axis_2">
    <g id="ytick_1">
     <g id="line2d_4">
      <defs>
       <path id="m191e2bb8b3" d="M 0 0 
L -3.5 0 
" style="stroke: #000000; stroke-width: 0.8"/>
      </defs>
      <g>
       <use xlink:href="#m191e2bb8b3" x="61.265" y="88.330579" style="stroke: #000000; stroke-width: 0.8"/>
      </g>
     </g>
     <g id="text_5">
      <!-- 3.0 -->
      <g transform="translate(36.373438 93.189016) scale(0.14 -0.14)">
       <defs>
        <path id="LMRoman10-Regular-33" d="M 2925 1094 
C 2925 1619 2522 2118 1856 2253 
C 2381 2426 2752 2874 2752 3379 
C 2752 3904 2189 4262 1574 4262 
C 928 4262 442 3878 442 3392 
C 442 3181 582 3059 768 3059 
C 966 3059 1094 3200 1094 3386 
C 1094 3706 794 3706 698 3706 
C 896 4019 1318 4102 1549 4102 
C 1811 4102 2163 3962 2163 3386 
C 2163 3309 2150 2938 1984 2656 
C 1792 2349 1574 2330 1414 2323 
C 1363 2317 1210 2304 1165 2304 
C 1114 2298 1069 2291 1069 2227 
C 1069 2157 1114 2157 1222 2157 
L 1504 2157 
C 2029 2157 2266 1722 2266 1094 
C 2266 224 1824 38 1542 38 
C 1267 38 787 147 563 525 
C 787 493 986 634 986 877 
C 986 1107 813 1235 627 1235 
C 474 1235 269 1146 269 864 
C 269 282 864 -141 1562 -141 
C 2342 -141 2925 442 2925 1094 
z
" transform="scale(0.015625)"/>
       </defs>
       <use xlink:href="#LMRoman10-Regular-33"/>
       <use xlink:href="#LMRoman10-Regular-2e" x="49.999985"/>
       <use xlink:href="#LMRoman10-Regular-30" x="77.799973"/>
      </g>
     </g>
    </g>
    <g id="ytick_2">
     <g id="line2d_5">
      <g>
       <use xlink:href="#m191e2bb8b3" x="61.265" y="40.650988" style="stroke: #000000; stroke-width: 0.8"/>
      </g>
     </g>
     <g id="text_6">
      <!-- 4.5 -->
      <g transform="translate(36.373438 45.509426) scale(0.14 -0.14)">
       <defs>
        <path id="LMRoman10-Regular-34" d="M 3014 1056 
L 3014 1254 
L 2374 1254 
L 2374 4166 
C 2374 4294 2374 4333 2272 4333 
C 2214 4333 2195 4333 2144 4256 
L 179 1254 
L 179 1056 
L 1882 1056 
L 1882 499 
C 1882 269 1869 198 1395 198 
L 1261 198 
L 1261 0 
C 1523 19 1856 19 2125 19 
C 2394 19 2733 19 2995 0 
L 2995 198 
L 2861 198 
C 2387 198 2374 269 2374 499 
L 2374 1056 
L 3014 1056 
z
M 1920 1254 
L 358 1254 
L 1920 3642 
L 1920 1254 
z
" transform="scale(0.015625)"/>
       </defs>
       <use xlink:href="#LMRoman10-Regular-34"/>
       <use xlink:href="#LMRoman10-Regular-2e" x="49.999985"/>
       <use xlink:href="#LMRoman10-Regular-35" x="77.799973"/>
      </g>
     </g>
    </g>
    <g id="text_7">
     <!-- $R$ [-] -->
     <g transform="translate(28.873438 82.94375) rotate(-90) scale(0.14 -0.14)">
      <defs>
       <path id="DejaVuSans-Oblique-52" d="M 1613 4147 
L 1294 2491 
L 2106 2491 
Q 2584 2491 2879 2755 
Q 3175 3019 3175 3444 
Q 3175 3784 2976 3965 
Q 2778 4147 2406 4147 
L 1613 4147 
z
M 2772 2241 
Q 2972 2194 3105 2009 
Q 3238 1825 3413 1275 
L 3809 0 
L 3144 0 
L 2778 1197 
Q 2638 1659 2453 1815 
Q 2269 1972 1888 1972 
L 1191 1972 
L 806 0 
L 172 0 
L 1081 4666 
L 2503 4666 
Q 3150 4666 3495 4373 
Q 3841 4081 3841 3531 
Q 3841 3044 3547 2687 
Q 3253 2331 2772 2241 
z
" transform="scale(0.015625)"/>
       <path id="LMRoman10-Regular-2d" d="M 1766 1197 
L 1766 1568 
L 70 1568 
L 70 1197 
L 1766 1197 
z
" transform="scale(0.015625)"/>
      </defs>
      <use xlink:href="#DejaVuSans-Oblique-52"/>
      <use xlink:href="#LMRoman10-Regular-20" transform="translate(69.482422 0)"/>
      <use xlink:href="#LMRoman10-Regular-5b" transform="translate(102.78241 0)"/>
      <use xlink:href="#LMRoman10-Regular-2d" transform="translate(130.582397 0)"/>
      <use xlink:href="#LMRoman10-Regular-5d" transform="translate(163.882385 0)"/>
     </g>
    </g>
   </g>
   <g id="line2d_6">
    <path d="M 70.883864 20.063977 
L 72.827068 22.687567 
L 74.770273 25.233659 
L 76.713478 27.705179 
L 78.656683 30.105097 
L 80.599887 32.436097 
L 82.543093 34.700831 
L 84.486297 36.901785 
L 86.429502 39.041292 
L 88.372707 41.121672 
L 90.315911 43.145016 
L 92.259116 45.113463 
L 94.202322 47.028935 
L 96.145526 48.893329 
L 98.088729 50.708463 
L 100.031936 52.476004 
L 101.97514 54.19768 
L 103.918344 55.874991 
L 105.861551 57.5095 
L 107.804755 59.1026 
L 109.747958 60.655716 
L 111.691165 62.170189 
L 113.634369 63.647247 
L 115.577573 65.088126 
L 117.52078 66.49403 
L 119.463981 67.866036 
L 121.407187 69.205272 
L 123.350394 70.512724 
L 125.293595 71.789416 
L 127.236802 73.036308 
L 129.180009 74.254312 
L 131.12321 75.444328 
L 133.066416 76.607176 
L 135.009623 77.743718 
L 136.952824 78.854699 
L 138.896031 79.940913 
L 140.839238 81.003073 
L 142.782439 82.041884 
L 144.725645 83.05805 
L 146.668852 84.052186 
L 148.612053 85.024943 
L 150.55526 85.976942 
L 152.498467 86.90876 
L 154.441668 87.82095 
L 156.384874 88.714064 
L 158.328081 89.588657 
L 160.271282 90.445198 
L 162.214489 91.284211 
L 164.157696 92.106156 
L 166.100897 92.911489 
L 168.044098 93.700673 
L 169.987304 94.474124 
L 171.930511 95.232266 
L 173.873718 95.975479 
L 175.816925 96.704178 
L 177.760131 97.418722 
L 179.703327 98.119472 
L 181.646533 98.806801 
L 183.58974 99.481042 
L 185.532947 100.142514 
L 187.476154 100.791549 
L 189.41936 101.428451 
L 191.362556 102.05353 
L 193.305762 102.667053 
L 195.248969 103.269328 
L 197.192176 103.860616 
L 199.135383 104.441187 
L 201.078589 105.0113 
L 203.021785 105.571197 
L 204.964991 106.121136 
L 206.908198 106.661329 
L 208.851405 107.192019 
L 210.794612 107.713432 
L 212.737807 108.225775 
L 214.681014 108.729258 
L 216.62422 109.224086 
L 218.567427 109.710464 
L 220.510634 110.18856 
L 222.453841 110.658576 
L 224.397036 111.120711 
L 226.340243 111.575101 
L 228.283449 112.02195 
L 230.226656 112.461418 
L 232.169863 112.893648 
L 234.11307 113.318823 
L 236.056265 113.737078 
L 237.999472 114.148574 
L 239.942678 114.553446 
L 241.885885 114.951838 
L 243.829092 115.343903 
L 245.772299 115.729753 
L 247.715494 116.109525 
L 249.658701 116.48334 
L 251.601907 116.851351 
L 253.545114 117.213632 
L 255.488321 117.570335 
L 257.431528 117.921566 
L 259.374723 118.267433 
L 261.31793 118.608054 
L 263.261136 118.943523 
" clip-path="url(#paf4c7ad7ba)" style="fill: none; stroke-dasharray: 5.55,2.4; stroke-dashoffset: 0; stroke: #000000; stroke-width: 1.5"/>
   </g>
   <g id="line2d_7">
    <path d="M 70.883864 20.301653 
L 72.827068 22.87092 
L 74.770273 25.370147 
L 76.713478 27.80138 
L 78.656683 30.166953 
L 80.599887 32.468912 
L 82.543093 34.709304 
L 84.486297 36.890174 
L 86.429502 39.013418 
L 88.372707 41.080778 
L 90.315911 43.094119 
L 92.259116 45.055108 
L 94.202322 46.965443 
L 96.145526 48.826669 
L 98.088729 50.640347 
L 100.031936 52.407949 
L 101.97514 54.130929 
L 103.918344 55.810665 
L 105.861551 57.448463 
L 107.804755 59.045655 
L 109.747958 60.603455 
L 111.691165 62.123081 
L 113.634369 63.605679 
L 115.577573 65.052371 
L 117.52078 66.464262 
L 119.463981 67.842361 
L 121.407187 69.187698 
L 123.350394 70.501258 
L 125.293595 71.783959 
L 127.236802 73.03671 
L 129.180009 74.26042 
L 131.12321 75.455908 
L 133.066416 76.624015 
L 135.009623 77.765507 
L 136.952824 78.881171 
L 138.896031 79.971757 
L 140.839238 81.037942 
L 142.782439 82.080458 
L 144.725645 83.099944 
L 146.668852 84.09705 
L 148.612053 85.072414 
L 150.55526 86.026642 
L 152.498467 86.960309 
L 154.441668 87.873969 
L 156.384874 88.76819 
L 158.328081 89.643465 
L 160.271282 90.500339 
L 162.214489 91.339291 
L 164.157696 92.160819 
L 166.100897 92.965357 
L 168.044098 93.753366 
L 169.987304 94.525286 
L 171.930511 95.281503 
L 173.873718 96.022488 
L 175.816925 96.748558 
L 177.760131 97.460138 
L 179.703327 98.157577 
L 181.646533 98.841245 
L 183.58974 99.5115 
L 185.532947 100.168644 
L 187.476154 100.813011 
L 189.41936 101.444919 
L 191.362556 102.064671 
L 193.305762 102.672577 
L 195.248969 103.268874 
L 197.192176 103.853878 
L 199.135383 104.427879 
L 201.078589 104.991073 
L 203.021785 105.54377 
L 204.964991 106.086176 
L 206.908198 106.618556 
L 208.851405 107.141099 
L 210.794612 107.65407 
L 212.737807 108.157674 
L 214.681014 108.652109 
L 216.62422 109.137578 
L 218.567427 109.614316 
L 220.510634 110.082476 
L 222.453841 110.542247 
L 224.397036 110.99381 
L 226.340243 111.43737 
L 228.283449 111.873078 
L 230.226656 112.301088 
L 232.169863 112.721586 
L 234.11307 113.134689 
L 236.056265 113.540606 
L 237.999472 113.939446 
L 239.942678 114.331366 
L 241.885885 114.716496 
L 243.829092 115.094995 
L 245.772299 115.466984 
L 247.715494 115.832577 
L 249.658701 116.191941 
L 251.601907 116.54515 
L 253.545114 116.892373 
L 255.488321 117.233661 
L 257.431528 117.569206 
L 259.374723 117.899066 
L 261.31793 118.223364 
L 263.261136 118.542213 
" clip-path="url(#paf4c7ad7ba)" style="fill: none; stroke: #1f77b4; stroke-width: 1.5; stroke-linecap: square"/>
   </g>
   <g id="patch_3">
    <path d="M 61.265 123.8875 
L 61.265 15.12 
" style="fill: none; stroke: #000000; stroke-width: 0.8; stroke-linejoin: miter; stroke-linecap: square"/>
   </g>
   <g id="patch_4">
    <path d="M 272.88 123.8875 
L 272.88 15.12 
" style="fill: none; stroke: #000000; stroke-width: 0.8; stroke-linejoin: miter; stroke-linecap: square"/>
   </g>
   <g id="patch_5">
    <path d="M 61.265 123.8875 
L 272.88 123.8875 
" style="fill: none; stroke: #000000; stroke-width: 0.8; stroke-linejoin: miter; stroke-linecap: square"/>
   </g>
   <g id="patch_6">
    <path d="M 61.265 15.12 
L 272.88 15.12 
" style="fill: none; stroke: #000000; stroke-width: 0.8; stroke-linejoin: miter; stroke-linecap: square"/>
   </g>
   <g id="legend_1">
    <g id="patch_7">
     <path d="M 115.172187 65.52 
L 263.08 65.52 
Q 265.88 65.52 265.88 62.72 
L 265.88 24.92 
Q 265.88 22.12 263.08 22.12 
L 115.172187 22.12 
Q 112.372187 22.12 112.372187 24.92 
L 112.372187 62.72 
Q 112.372187 65.52 115.172187 65.52 
z
" style="fill: #ffffff; opacity: 0.8; stroke: #cccccc; stroke-linejoin: miter"/>
    </g>
    <g id="line2d_8">
     <path d="M 117.972187 32.62 
L 131.972187 32.62 
L 145.972187 32.62 
" style="fill: none; stroke-dasharray: 5.55,2.4; stroke-dashoffset: 0; stroke: #000000; stroke-width: 1.5"/>
    </g>
    <g id="text_8">
     <!-- Langmuir -->
     <g transform="translate(157.172188 37.52) scale(0.14 -0.14)">
      <defs>
       <path id="LMRoman10-Regular-4c" d="M 3725 1651 
L 3565 1651 
C 3494 998 3405 198 2278 198 
L 1754 198 
C 1453 198 1440 243 1440 454 
L 1440 3866 
C 1440 4083 1440 4173 2048 4173 
L 2259 4173 
L 2259 4371 
C 2029 4352 1446 4352 1184 4352 
C 934 4352 435 4352 211 4371 
L 211 4173 
L 365 4173 
C 858 4173 870 4102 870 3872 
L 870 499 
C 870 269 858 198 365 198 
L 211 198 
L 211 0 
L 3546 0 
L 3725 1651 
z
" transform="scale(0.015625)"/>
       <path id="LMRoman10-Regular-61" d="M 3091 570 
L 3091 928 
L 2931 928 
L 2931 570 
C 2931 198 2771 160 2701 160 
C 2490 160 2464 448 2464 480 
L 2464 1760 
C 2464 2029 2464 2278 2234 2515 
C 1984 2765 1664 2867 1357 2867 
C 832 2867 390 2566 390 2144 
C 390 1952 518 1843 685 1843 
C 864 1843 979 1971 979 2138 
C 979 2214 947 2426 653 2432 
C 826 2656 1139 2726 1344 2726 
C 1658 2726 2022 2477 2022 1907 
L 2022 1670 
C 1696 1651 1248 1632 845 1440 
C 365 1222 205 890 205 608 
C 205 90 826 -70 1229 -70 
C 1651 -70 1946 186 2067 486 
C 2093 230 2266 -38 2566 -38 
C 2701 -38 3091 51 3091 570 
z
M 2022 896 
C 2022 288 1562 70 1274 70 
C 960 70 698 294 698 614 
C 698 966 966 1498 2022 1536 
L 2022 896 
z
" transform="scale(0.015625)"/>
       <path id="LMRoman10-Regular-6e" d="M 3424 0 
L 3424 198 
C 3091 198 2931 198 2925 390 
L 2925 1613 
C 2925 2163 2925 2362 2726 2592 
C 2637 2701 2426 2829 2054 2829 
C 1587 2829 1286 2554 1107 2157 
L 1107 2829 
L 205 2758 
L 205 2560 
C 653 2560 704 2515 704 2202 
L 704 486 
C 704 198 634 198 205 198 
L 205 0 
L 928 19 
L 1645 0 
L 1645 198 
C 1216 198 1146 198 1146 486 
L 1146 1664 
C 1146 2330 1600 2688 2010 2688 
C 2413 2688 2483 2342 2483 1978 
L 2483 486 
C 2483 198 2413 198 1984 198 
L 1984 0 
L 2707 19 
L 3424 0 
z
" transform="scale(0.015625)"/>
       <path id="LMRoman10-Regular-67" d="M 3104 2586 
C 3104 2694 3027 2899 2778 2899 
C 2650 2899 2368 2861 2099 2598 
C 1830 2810 1562 2829 1421 2829 
C 826 2829 384 2387 384 1894 
C 384 1613 525 1370 685 1235 
C 602 1139 486 928 486 704 
C 486 506 570 262 768 134 
C 384 26 179 -250 179 -506 
C 179 -966 813 -1318 1594 -1318 
C 2349 -1318 3014 -992 3014 -493 
C 3014 -269 2925 58 2598 237 
C 2259 416 1888 416 1498 416 
C 1338 416 1062 416 1018 422 
C 813 448 678 646 678 851 
C 678 877 678 1024 787 1152 
C 1037 973 1299 954 1421 954 
C 2016 954 2458 1395 2458 1888 
C 2458 2125 2355 2362 2195 2509 
C 2426 2726 2656 2758 2771 2758 
C 2771 2758 2816 2758 2835 2752 
C 2765 2726 2733 2656 2733 2579 
C 2733 2470 2816 2394 2918 2394 
C 2982 2394 3104 2438 3104 2586 
z
M 1978 1894 
C 1978 1722 1971 1517 1875 1357 
C 1824 1280 1677 1101 1421 1101 
C 864 1101 864 1741 864 1888 
C 864 2061 870 2266 966 2426 
C 1018 2502 1165 2682 1421 2682 
C 1978 2682 1978 2042 1978 1894 
z
M 2682 -506 
C 2682 -851 2227 -1171 1600 -1171 
C 954 -1171 512 -845 512 -506 
C 512 -211 755 26 1037 45 
L 1414 45 
C 1965 45 2682 45 2682 -506 
z
" transform="scale(0.015625)"/>
       <path id="LMRoman10-Regular-6d" d="M 5203 0 
L 5203 198 
C 4870 198 4710 198 4704 390 
L 4704 1613 
C 4704 2163 4704 2362 4506 2592 
C 4416 2701 4205 2829 3834 2829 
C 3296 2829 3014 2445 2906 2202 
C 2816 2758 2342 2829 2054 2829 
C 1587 2829 1286 2554 1107 2157 
L 1107 2829 
L 205 2758 
L 205 2560 
C 653 2560 704 2515 704 2202 
L 704 486 
C 704 198 634 198 205 198 
L 205 0 
L 928 19 
L 1645 0 
L 1645 198 
C 1216 198 1146 198 1146 486 
L 1146 1664 
C 1146 2330 1600 2688 2010 2688 
C 2413 2688 2483 2342 2483 1978 
L 2483 486 
C 2483 198 2413 198 1984 198 
L 1984 0 
L 2707 19 
L 3424 0 
L 3424 198 
C 2995 198 2925 198 2925 486 
L 2925 1664 
C 2925 2330 3379 2688 3789 2688 
C 4192 2688 4262 2342 4262 1978 
L 4262 486 
C 4262 198 4192 198 3763 198 
L 3763 0 
L 4486 19 
L 5203 0 
z
" transform="scale(0.015625)"/>
       <path id="LMRoman10-Regular-75" d="M 3424 0 
L 3424 198 
C 2976 198 2925 243 2925 557 
L 2925 2829 
L 1984 2758 
L 1984 2560 
C 2432 2560 2483 2515 2483 2202 
L 2483 1062 
C 2483 506 2176 70 1709 70 
C 1171 70 1146 371 1146 704 
L 1146 2829 
L 205 2758 
L 205 2560 
C 704 2560 704 2541 704 1971 
L 704 1011 
C 704 512 704 -70 1677 -70 
C 2035 -70 2317 109 2502 506 
L 2502 -70 
L 3424 0 
z
" transform="scale(0.015625)"/>
       <path id="LMRoman10-Regular-69" d="M 1581 0 
L 1581 198 
C 1158 198 1133 230 1133 480 
L 1133 2829 
L 237 2758 
L 237 2560 
C 653 2560 710 2522 710 2208 
L 710 486 
C 710 198 640 198 211 198 
L 211 0 
L 915 19 
C 1139 19 1363 6 1581 0 
z
M 1229 3866 
C 1229 4038 1082 4205 890 4205 
C 672 4205 544 4026 544 3866 
C 544 3693 691 3526 883 3526 
C 1101 3526 1229 3706 1229 3866 
z
" transform="scale(0.015625)"/>
       <path id="LMRoman10-Regular-72" d="M 2330 2438 
C 2330 2643 2131 2829 1856 2829 
C 1389 2829 1158 2400 1069 2125 
L 1069 2829 
L 179 2758 
L 179 2560 
C 627 2560 678 2515 678 2202 
L 678 486 
C 678 198 608 198 179 198 
L 179 0 
L 909 19 
C 1165 19 1466 19 1722 0 
L 1722 198 
L 1587 198 
C 1114 198 1101 269 1101 499 
L 1101 1485 
C 1101 2118 1370 2688 1856 2688 
C 1901 2688 1914 2688 1926 2682 
C 1907 2675 1779 2598 1779 2432 
C 1779 2253 1914 2157 2054 2157 
C 2170 2157 2330 2234 2330 2438 
z
" transform="scale(0.015625)"/>
      </defs>
      <use xlink:href="#LMRoman10-Regular-4c"/>
      <use xlink:href="#LMRoman10-Regular-61" x="62.499985"/>
      <use xlink:href="#LMRoman10-Regular-6e" x="112.499969"/>
      <use xlink:href="#LMRoman10-Regular-67" x="168.09996"/>
      <use xlink:href="#LMRoman10-Regular-6d" x="218.099945"/>
      <use xlink:href="#LMRoman10-Regular-75" x="301.399933"/>
      <use xlink:href="#LMRoman10-Regular-69" x="356.999924"/>
      <use xlink:href="#LMRoman10-Regular-72" x="384.799911"/>
     </g>
    </g>
    <g id="line2d_9">
     <path d="M 117.972187 52.303125 
L 131.972187 52.303125 
L 145.972187 52.303125 
" style="fill: none; stroke: #1f77b4; stroke-width: 1.5; stroke-linecap: square"/>
    </g>
    <g id="text_9">
     <!-- FINN Prediction -->
     <g transform="translate(157.172188 57.203125) scale(0.14 -0.14)">
      <defs>
       <path id="LMRoman10-Regular-46" d="M 3904 2912 
L 3725 4352 
L 211 4352 
L 211 4154 
L 365 4154 
C 858 4154 870 4083 870 3853 
L 870 499 
C 870 269 858 198 365 198 
L 211 198 
L 211 0 
C 435 19 934 19 1184 19 
C 1446 19 2029 19 2259 0 
L 2259 198 
L 2048 198 
C 1440 198 1440 282 1440 506 
L 1440 2080 
L 1990 2080 
C 2605 2080 2669 1875 2669 1331 
L 2829 1331 
L 2829 3027 
L 2669 3027 
C 2669 2490 2605 2278 1990 2278 
L 1440 2278 
L 1440 3898 
C 1440 4109 1453 4154 1754 4154 
L 2522 4154 
C 3482 4154 3642 3795 3744 2912 
L 3904 2912 
z
" transform="scale(0.015625)"/>
       <path id="LMRoman10-Regular-49" d="M 2131 0 
L 2131 198 
L 1965 198 
C 1459 198 1440 269 1440 499 
L 1440 3872 
C 1440 4102 1459 4173 1965 4173 
L 2131 4173 
L 2131 4371 
C 1907 4352 1402 4352 1158 4352 
C 909 4352 403 4352 179 4371 
L 179 4173 
L 346 4173 
C 851 4173 870 4102 870 3872 
L 870 499 
C 870 269 851 198 346 198 
L 179 198 
L 179 0 
C 403 19 909 19 1152 19 
C 1402 19 1907 19 2131 0 
z
" transform="scale(0.015625)"/>
       <path id="LMRoman10-Regular-4e" d="M 4582 4173 
L 4582 4371 
L 3834 4352 
L 3085 4371 
L 3085 4173 
C 3744 4173 3744 3872 3744 3699 
L 3744 966 
L 1485 4288 
C 1427 4365 1421 4371 1299 4371 
L 211 4371 
L 211 4173 
L 397 4173 
C 493 4173 621 4166 717 4160 
C 864 4141 870 4134 870 4013 
L 870 672 
C 870 499 870 198 211 198 
L 211 0 
L 960 19 
L 1709 0 
L 1709 198 
C 1050 198 1050 499 1050 672 
L 1050 4000 
C 1082 3968 1088 3962 1114 3923 
L 3725 83 
C 3782 6 3789 0 3834 0 
C 3923 0 3923 45 3923 166 
L 3923 3699 
C 3923 3872 3923 4173 4582 4173 
z
" transform="scale(0.015625)"/>
       <path id="LMRoman10-Regular-50" d="M 3994 3181 
C 3994 3808 3360 4371 2483 4371 
L 224 4371 
L 224 4173 
L 378 4173 
C 870 4173 883 4102 883 3872 
L 883 499 
C 883 269 870 198 378 198 
L 224 198 
L 224 0 
C 448 19 922 19 1165 19 
C 1408 19 1888 19 2112 0 
L 2112 198 
L 1958 198 
C 1466 198 1453 269 1453 499 
L 1453 2022 
L 2534 2022 
C 3302 2022 3994 2541 3994 3181 
z
M 3334 3181 
C 3334 2880 3334 2189 2317 2189 
L 1434 2189 
L 1434 3917 
C 1434 4128 1446 4173 1747 4173 
L 2317 4173 
C 3334 4173 3334 3494 3334 3181 
z
" transform="scale(0.015625)"/>
       <path id="LMRoman10-Regular-65" d="M 2656 762 
C 2656 826 2605 838 2573 838 
C 2515 838 2502 800 2490 749 
C 2266 90 1690 90 1626 90 
C 1306 90 1050 282 902 518 
C 710 826 710 1248 710 1478 
L 2496 1478 
C 2637 1478 2656 1478 2656 1613 
C 2656 2246 2310 2867 1510 2867 
C 768 2867 179 2208 179 1408 
C 179 550 851 -70 1587 -70 
C 2368 -70 2656 640 2656 762 
z
M 2234 1613 
L 717 1613 
C 755 2566 1293 2726 1510 2726 
C 2170 2726 2234 1862 2234 1613 
z
" transform="scale(0.015625)"/>
       <path id="LMRoman10-Regular-64" d="M 3373 0 
L 3373 198 
C 2925 198 2874 243 2874 557 
L 2874 4442 
L 1952 4371 
L 1952 4173 
C 2400 4173 2451 4128 2451 3814 
L 2451 2432 
C 2266 2662 1990 2829 1645 2829 
C 890 2829 218 2202 218 1376 
C 218 563 845 -70 1574 -70 
C 1984 -70 2272 147 2432 352 
L 2432 -70 
L 3373 0 
z
M 2432 755 
C 2432 640 2432 627 2362 518 
C 2170 211 1882 70 1606 70 
C 1318 70 1088 237 934 480 
C 768 742 749 1107 749 1370 
C 749 1606 762 1990 947 2278 
C 1082 2477 1325 2688 1670 2688 
C 1894 2688 2163 2592 2362 2304 
C 2432 2195 2432 2182 2432 2067 
L 2432 755 
z
" transform="scale(0.015625)"/>
       <path id="LMRoman10-Regular-63" d="M 2656 762 
C 2656 826 2592 826 2573 826 
C 2515 826 2502 800 2490 762 
C 2304 166 1888 90 1651 90 
C 1312 90 749 365 749 1395 
C 749 2438 1274 2707 1613 2707 
C 1670 2707 2074 2701 2298 2470 
C 2035 2451 1997 2259 1997 2176 
C 1997 2010 2112 1882 2291 1882 
C 2458 1882 2586 1990 2586 2182 
C 2586 2618 2099 2867 1606 2867 
C 806 2867 218 2176 218 1382 
C 218 563 851 -70 1594 -70 
C 2451 -70 2656 698 2656 762 
z
" transform="scale(0.015625)"/>
       <path id="LMRoman10-Regular-74" d="M 2125 794 
L 2125 1158 
L 1965 1158 
L 1965 806 
C 1965 333 1773 90 1536 90 
C 1107 90 1107 672 1107 781 
L 1107 2560 
L 2022 2560 
L 2022 2758 
L 1107 2758 
L 1107 3936 
L 947 3936 
C 941 3411 749 2726 122 2701 
L 122 2560 
L 666 2560 
L 666 794 
C 666 6 1261 -70 1491 -70 
C 1946 -70 2125 384 2125 794 
z
" transform="scale(0.015625)"/>
       <path id="LMRoman10-Regular-6f" d="M 3014 1370 
C 3014 2189 2374 2867 1600 2867 
C 800 2867 179 2170 179 1370 
C 179 544 845 -70 1594 -70 
C 2368 -70 3014 557 3014 1370 
z
M 2483 1421 
C 2483 1190 2483 845 2342 563 
C 2202 275 1920 90 1600 90 
C 1325 90 1043 224 870 518 
C 710 800 710 1190 710 1421 
C 710 1670 710 2016 864 2298 
C 1037 2592 1338 2726 1594 2726 
C 1875 2726 2150 2586 2317 2310 
C 2483 2035 2483 1664 2483 1421 
z
" transform="scale(0.015625)"/>
      </defs>
      <use xlink:href="#LMRoman10-Regular-46"/>
      <use xlink:href="#LMRoman10-Regular-49" x="65.299988"/>
      <use xlink:href="#LMRoman10-Regular-4e" x="101.399979"/>
      <use xlink:href="#LMRoman10-Regular-4e" x="176.399963"/>
      <use xlink:href="#LMRoman10-Regular-20" x="251.399948"/>
      <use xlink:href="#LMRoman10-Regular-50" x="284.699936"/>
      <use xlink:href="#LMRoman10-Regular-72" x="352.799927"/>
      <use xlink:href="#LMRoman10-Regular-65" x="391.999924"/>
      <use xlink:href="#LMRoman10-Regular-64" x="436.399918"/>
      <use xlink:href="#LMRoman10-Regular-69" x="491.999908"/>
      <use xlink:href="#LMRoman10-Regular-63" x="519.799896"/>
      <use xlink:href="#LMRoman10-Regular-74" x="564.19989"/>
      <use xlink:href="#LMRoman10-Regular-69" x="603.099884"/>
      <use xlink:href="#LMRoman10-Regular-6f" x="630.899872"/>
      <use xlink:href="#LMRoman10-Regular-6e" x="680.899857"/>
     </g>
    </g>
   </g>
  </g>
 </g>
 <defs>
  <clipPath id="paf4c7ad7ba">
   <rect x="61.265" y="15.12" width="211.615" height="108.7675"/>
  </clipPath>
 </defs>
</svg>
