<?xml version="1.0" encoding="utf-8" standalone="no"?>
<!DOCTYPE svg PUBLIC "-//W3C//DTD SVG 1.1//EN"
  "http://www.w3.org/Graphics/SVG/1.1/DTD/svg11.dtd">
<svg xmlns:xlink="http://www.w3.org/1999/xlink" width="432pt" height="270pt" viewBox="0 0 432 270" xmlns="http://www.w3.org/2000/svg" version="1.1">
 <metadata>
  <rdf:RDF xmlns:dc="http://purl.org/dc/elements/1.1/" xmlns:cc="http://creativecommons.org/ns#" xmlns:rdf="http://www.w3.org/1999/02/22-rdf-syntax-ns#">
   <cc:Work>
    <dc:type rdf:resource="http://purl.org/dc/dcmitype/StillImage"/>
    <dc:date>2024-12-09T08:22:36.603060</dc:date>
    <dc:format>image/svg+xml</dc:format>
    <dc:creator>
     <cc:Agent>
      <dc:title>Matplotlib v3.8.4, https://matplotlib.org/</dc:title>
     </cc:Agent>
    </dc:creator>
   </cc:Work>
  </rdf:RDF>
 </metadata>
 <defs>
  <style type="text/css">*{stroke-linejoin: round; stroke-linecap: butt}</style>
 </defs>
 <g id="figure_1">
  <g id="patch_1">
   <path d="M 0 270 
L 432 270 
L 432 0 
L 0 0 
z
" style="fill: #ffffff"/>
  </g>
  <g id="axes_1">
   <g id="patch_2">
    <path d="M 59.06 99.82125 
L 187.171932 99.82125 
L 187.171932 14.04 
L 59.06 14.04 
z
" style="fill: #ffffff"/>
   </g>
   <g id="matplotlib.axis_1">
    <g id="xtick_1">
     <g id="line2d_1">
      <defs>
       <path id="m81498c0ef8" d="M 0 0 
L 0 3.5 
" style="stroke: #000000; stroke-width: 0.8"/>
      </defs>
      <g>
       <use xlink:href="#m81498c0ef8" x="64.88327" y="99.82125" style="stroke: #000000; stroke-width: 0.8"/>
      </g>
     </g>
     <g id="text_1">
      <!-- 0.0 -->
      <g transform="translate(56.576473 115.844063) scale(0.13 -0.13)">
       <defs>
        <path id="LMRoman10-Regular-30" d="M 2944 2048 
C 2944 2560 2912 3072 2688 3546 
C 2394 4160 1869 4262 1600 4262 
C 1216 4262 749 4096 486 3501 
C 282 3059 250 2560 250 2048 
C 250 1568 275 992 538 506 
C 813 -13 1280 -141 1594 -141 
C 1939 -141 2426 -6 2707 602 
C 2912 1043 2944 1542 2944 2048 
z
M 2413 2125 
C 2413 1645 2413 1210 2342 800 
C 2246 192 1882 0 1594 0 
C 1344 0 966 160 851 774 
C 781 1158 781 1747 781 2125 
C 781 2534 781 2957 832 3302 
C 954 4064 1434 4122 1594 4122 
C 1805 4122 2227 4006 2349 3373 
C 2413 3014 2413 2528 2413 2125 
z
" transform="scale(0.015625)"/>
        <path id="LMRoman10-Regular-2e" d="M 1229 339 
C 1229 525 1075 678 890 678 
C 704 678 550 525 550 339 
C 550 154 704 0 890 0 
C 1075 0 1229 154 1229 339 
z
" transform="scale(0.015625)"/>
       </defs>
       <use xlink:href="#LMRoman10-Regular-30"/>
       <use xlink:href="#LMRoman10-Regular-2e" x="49.999985"/>
       <use xlink:href="#LMRoman10-Regular-30" x="77.799973"/>
      </g>
     </g>
    </g>
    <g id="xtick_2">
     <g id="line2d_2">
      <g>
       <use xlink:href="#m81498c0ef8" x="93.999618" y="99.82125" style="stroke: #000000; stroke-width: 0.8"/>
      </g>
     </g>
     <g id="text_2">
      <!-- 0.5 -->
      <g transform="translate(85.692821 115.844063) scale(0.13 -0.13)">
       <defs>
        <path id="LMRoman10-Regular-35" d="M 2874 1286 
C 2874 2048 2349 2688 1658 2688 
C 1350 2688 1075 2586 845 2362 
L 845 3610 
C 973 3571 1184 3526 1389 3526 
C 2176 3526 2624 4109 2624 4192 
C 2624 4230 2605 4262 2560 4262 
C 2560 4262 2541 4262 2509 4243 
C 2381 4186 2067 4058 1638 4058 
C 1382 4058 1088 4102 787 4237 
C 736 4256 710 4256 710 4256 
C 646 4256 646 4205 646 4102 
L 646 2208 
C 646 2093 646 2042 736 2042 
C 781 2042 794 2061 819 2099 
C 890 2202 1126 2547 1645 2547 
C 1978 2547 2138 2253 2189 2138 
C 2291 1901 2304 1651 2304 1331 
C 2304 1107 2304 723 2150 454 
C 1997 205 1760 38 1466 38 
C 998 38 634 378 525 755 
C 544 749 563 742 634 742 
C 845 742 954 902 954 1056 
C 954 1210 845 1370 634 1370 
C 544 1370 320 1325 320 1030 
C 320 480 762 -141 1478 -141 
C 2221 -141 2874 474 2874 1286 
z
" transform="scale(0.015625)"/>
       </defs>
       <use xlink:href="#LMRoman10-Regular-30"/>
       <use xlink:href="#LMRoman10-Regular-2e" x="49.999985"/>
       <use xlink:href="#LMRoman10-Regular-35" x="77.799973"/>
      </g>
     </g>
    </g>
    <g id="xtick_3">
     <g id="line2d_3">
      <g>
       <use xlink:href="#m81498c0ef8" x="123.115966" y="99.82125" style="stroke: #000000; stroke-width: 0.8"/>
      </g>
     </g>
     <g id="text_3">
      <!-- 1.0 -->
      <g transform="translate(114.809169 115.844063) scale(0.13 -0.13)">
       <defs>
        <path id="LMRoman10-Regular-31" d="M 2682 0 
L 2682 198 
L 2477 198 
C 1901 198 1882 269 1882 506 
L 1882 4096 
C 1882 4250 1882 4262 1734 4262 
C 1338 3853 774 3853 570 3853 
L 570 3654 
C 698 3654 1075 3654 1408 3821 
L 1408 506 
C 1408 275 1389 198 813 198 
L 608 198 
L 608 0 
C 832 19 1389 19 1645 19 
C 1901 19 2458 19 2682 0 
z
" transform="scale(0.015625)"/>
       </defs>
       <use xlink:href="#LMRoman10-Regular-31"/>
       <use xlink:href="#LMRoman10-Regular-2e" x="49.999985"/>
       <use xlink:href="#LMRoman10-Regular-30" x="77.799973"/>
      </g>
     </g>
    </g>
    <g id="xtick_4">
     <g id="line2d_4">
      <g>
       <use xlink:href="#m81498c0ef8" x="152.232314" y="99.82125" style="stroke: #000000; stroke-width: 0.8"/>
      </g>
     </g>
     <g id="text_4">
      <!-- 1.5 -->
      <g transform="translate(143.925517 115.844063) scale(0.13 -0.13)">
       <use xlink:href="#LMRoman10-Regular-31"/>
       <use xlink:href="#LMRoman10-Regular-2e" x="49.999985"/>
       <use xlink:href="#LMRoman10-Regular-35" x="77.799973"/>
      </g>
     </g>
    </g>
    <g id="text_5">
     <!-- $c$ [$mg/L$] -->
     <g transform="translate(97.440966 132.116875) scale(0.13 -0.13)">
      <defs>
       <path id="DejaVuSans-Oblique-63" d="M 3431 3366 
L 3316 2797 
Q 3109 2947 2876 3022 
Q 2644 3097 2394 3097 
Q 2119 3097 1870 3000 
Q 1622 2903 1453 2725 
Q 1184 2453 1037 2087 
Q 891 1722 891 1331 
Q 891 859 1127 628 
Q 1363 397 1844 397 
Q 2081 397 2348 469 
Q 2616 541 2906 684 
L 2797 116 
Q 2547 13 2283 -39 
Q 2019 -91 1741 -91 
Q 1044 -91 669 257 
Q 294 606 294 1253 
Q 294 1797 489 2255 
Q 684 2713 1069 3078 
Q 1331 3328 1684 3456 
Q 2038 3584 2456 3584 
Q 2700 3584 2940 3529 
Q 3181 3475 3431 3366 
z
" transform="scale(0.015625)"/>
       <path id="LMRoman10-Regular-20" transform="scale(0.015625)"/>
       <path id="LMRoman10-Regular-5b" d="M 1632 -1600 
L 1632 -1344 
L 1011 -1344 
L 1011 4544 
L 1632 4544 
L 1632 4800 
L 755 4800 
L 755 -1600 
L 1632 -1600 
z
" transform="scale(0.015625)"/>
       <path id="DejaVuSans-Oblique-6d" d="M 5747 2113 
L 5338 0 
L 4763 0 
L 5166 2094 
Q 5191 2228 5203 2325 
Q 5216 2422 5216 2491 
Q 5216 2772 5059 2928 
Q 4903 3084 4622 3084 
Q 4203 3084 3875 2770 
Q 3547 2456 3450 1953 
L 3066 0 
L 2491 0 
L 2900 2094 
Q 2925 2209 2937 2307 
Q 2950 2406 2950 2484 
Q 2950 2769 2794 2926 
Q 2638 3084 2363 3084 
Q 1938 3084 1609 2770 
Q 1281 2456 1184 1953 
L 800 0 
L 225 0 
L 909 3500 
L 1484 3500 
L 1375 2956 
Q 1609 3263 1923 3423 
Q 2238 3584 2597 3584 
Q 2978 3584 3223 3384 
Q 3469 3184 3519 2828 
Q 3781 3197 4126 3390 
Q 4472 3584 4856 3584 
Q 5306 3584 5551 3325 
Q 5797 3066 5797 2591 
Q 5797 2488 5784 2364 
Q 5772 2241 5747 2113 
z
" transform="scale(0.015625)"/>
       <path id="DejaVuSans-Oblique-67" d="M 3816 3500 
L 3219 434 
Q 3047 -456 2561 -893 
Q 2075 -1331 1253 -1331 
Q 950 -1331 690 -1286 
Q 431 -1241 206 -1147 
L 313 -588 
Q 525 -725 762 -790 
Q 1000 -856 1269 -856 
Q 1816 -856 2167 -557 
Q 2519 -259 2631 300 
L 2681 563 
Q 2441 288 2122 144 
Q 1803 0 1434 0 
Q 903 0 598 351 
Q 294 703 294 1319 
Q 294 1803 478 2267 
Q 663 2731 997 3091 
Q 1219 3328 1514 3456 
Q 1809 3584 2131 3584 
Q 2484 3584 2746 3420 
Q 3009 3256 3138 2956 
L 3238 3500 
L 3816 3500 
z
M 2950 2216 
Q 2950 2641 2750 2872 
Q 2550 3103 2181 3103 
Q 1953 3103 1747 3012 
Q 1541 2922 1394 2759 
Q 1156 2491 1023 2127 
Q 891 1763 891 1375 
Q 891 944 1092 712 
Q 1294 481 1672 481 
Q 2219 481 2584 976 
Q 2950 1472 2950 2216 
z
" transform="scale(0.015625)"/>
       <path id="DejaVuSans-2f" d="M 1625 4666 
L 2156 4666 
L 531 -594 
L 0 -594 
L 1625 4666 
z
" transform="scale(0.015625)"/>
       <path id="DejaVuSans-Oblique-4c" d="M 1075 4666 
L 1709 4666 
L 909 525 
L 3181 525 
L 3078 0 
L 172 0 
L 1075 4666 
z
" transform="scale(0.015625)"/>
       <path id="LMRoman10-Regular-5d" d="M 1018 -1600 
L 1018 4800 
L 141 4800 
L 141 4544 
L 762 4544 
L 762 -1344 
L 141 -1344 
L 141 -1600 
L 1018 -1600 
z
" transform="scale(0.015625)"/>
      </defs>
      <use xlink:href="#DejaVuSans-Oblique-63"/>
      <use xlink:href="#LMRoman10-Regular-20" transform="translate(54.980469 0)"/>
      <use xlink:href="#LMRoman10-Regular-5b" transform="translate(88.280457 0)"/>
      <use xlink:href="#DejaVuSans-Oblique-6d" transform="translate(116.080444 0)"/>
      <use xlink:href="#DejaVuSans-Oblique-67" transform="translate(213.492554 0)"/>
      <use xlink:href="#DejaVuSans-2f" transform="translate(276.969116 0)"/>
      <use xlink:href="#DejaVuSans-Oblique-4c" transform="translate(310.660522 0)"/>
      <use xlink:href="#LMRoman10-Regular-5d" transform="translate(366.373413 0)"/>
     </g>
    </g>
   </g>
   <g id="matplotlib.axis_2">
    <g id="ytick_1">
     <g id="line2d_5">
      <defs>
       <path id="m582ab086bb" d="M 0 0 
L -3.5 0 
" style="stroke: #000000; stroke-width: 0.8"/>
      </defs>
      <g>
       <use xlink:href="#m582ab086bb" x="59.06" y="80.517254" style="stroke: #000000; stroke-width: 0.8"/>
      </g>
     </g>
     <g id="text_6">
      <!-- 2.4 -->
      <g transform="translate(35.446406 85.02866) scale(0.13 -0.13)">
       <defs>
        <path id="LMRoman10-Regular-32" d="M 2874 1114 
L 2714 1114 
C 2682 922 2637 640 2573 544 
C 2528 493 2106 493 1965 493 
L 813 493 
L 1491 1152 
C 2490 2035 2874 2381 2874 3021 
C 2874 3750 2298 4262 1517 4262 
C 794 4262 320 3674 320 3104 
C 320 2746 640 2746 659 2746 
C 768 2746 992 2822 992 3085 
C 992 3251 877 3418 653 3418 
C 602 3418 589 3418 570 3411 
C 717 3827 1062 4064 1434 4064 
C 2016 4064 2291 3546 2291 3021 
C 2291 2509 1971 2003 1619 1606 
L 390 237 
C 320 166 320 154 320 0 
L 2694 0 
L 2874 1114 
z
" transform="scale(0.015625)"/>
        <path id="LMRoman10-Regular-34" d="M 3014 1056 
L 3014 1254 
L 2374 1254 
L 2374 4166 
C 2374 4294 2374 4333 2272 4333 
C 2214 4333 2195 4333 2144 4256 
L 179 1254 
L 179 1056 
L 1882 1056 
L 1882 499 
C 1882 269 1869 198 1395 198 
L 1261 198 
L 1261 0 
C 1523 19 1856 19 2125 19 
C 2394 19 2733 19 2995 0 
L 2995 198 
L 2861 198 
C 2387 198 2374 269 2374 499 
L 2374 1056 
L 3014 1056 
z
M 1920 1254 
L 358 1254 
L 1920 3642 
L 1920 1254 
z
" transform="scale(0.015625)"/>
       </defs>
       <use xlink:href="#LMRoman10-Regular-32"/>
       <use xlink:href="#LMRoman10-Regular-2e" x="49.999985"/>
       <use xlink:href="#LMRoman10-Regular-34" x="77.799973"/>
      </g>
     </g>
    </g>
    <g id="ytick_2">
     <g id="line2d_6">
      <g>
       <use xlink:href="#m582ab086bb" x="59.06" y="49.707557" style="stroke: #000000; stroke-width: 0.8"/>
      </g>
     </g>
     <g id="text_7">
      <!-- 3.2 -->
      <g transform="translate(35.446406 54.218963) scale(0.13 -0.13)">
       <defs>
        <path id="LMRoman10-Regular-33" d="M 2925 1094 
C 2925 1619 2522 2118 1856 2253 
C 2381 2426 2752 2874 2752 3379 
C 2752 3904 2189 4262 1574 4262 
C 928 4262 442 3878 442 3392 
C 442 3181 582 3059 768 3059 
C 966 3059 1094 3200 1094 3386 
C 1094 3706 794 3706 698 3706 
C 896 4019 1318 4102 1549 4102 
C 1811 4102 2163 3962 2163 3386 
C 2163 3309 2150 2938 1984 2656 
C 1792 2349 1574 2330 1414 2323 
C 1363 2317 1210 2304 1165 2304 
C 1114 2298 1069 2291 1069 2227 
C 1069 2157 1114 2157 1222 2157 
L 1504 2157 
C 2029 2157 2266 1722 2266 1094 
C 2266 224 1824 38 1542 38 
C 1267 38 787 147 563 525 
C 787 493 986 634 986 877 
C 986 1107 813 1235 627 1235 
C 474 1235 269 1146 269 864 
C 269 282 864 -141 1562 -141 
C 2342 -141 2925 442 2925 1094 
z
" transform="scale(0.015625)"/>
       </defs>
       <use xlink:href="#LMRoman10-Regular-33"/>
       <use xlink:href="#LMRoman10-Regular-2e" x="49.999985"/>
       <use xlink:href="#LMRoman10-Regular-32" x="77.799973"/>
      </g>
     </g>
    </g>
    <g id="ytick_3">
     <g id="line2d_7">
      <g>
       <use xlink:href="#m582ab086bb" x="59.06" y="18.89786" style="stroke: #000000; stroke-width: 0.8"/>
      </g>
     </g>
     <g id="text_8">
      <!-- 4.0 -->
      <g transform="translate(35.446406 23.409267) scale(0.13 -0.13)">
       <use xlink:href="#LMRoman10-Regular-34"/>
       <use xlink:href="#LMRoman10-Regular-2e" x="49.999985"/>
       <use xlink:href="#LMRoman10-Regular-30" x="77.799973"/>
      </g>
     </g>
    </g>
    <g id="text_9">
     <!-- $R$ [-] -->
     <g transform="translate(28.196406 69.410625) rotate(-90) scale(0.13 -0.13)">
      <defs>
       <path id="DejaVuSans-Oblique-52" d="M 1613 4147 
L 1294 2491 
L 2106 2491 
Q 2584 2491 2879 2755 
Q 3175 3019 3175 3444 
Q 3175 3784 2976 3965 
Q 2778 4147 2406 4147 
L 1613 4147 
z
M 2772 2241 
Q 2972 2194 3105 2009 
Q 3238 1825 3413 1275 
L 3809 0 
L 3144 0 
L 2778 1197 
Q 2638 1659 2453 1815 
Q 2269 1972 1888 1972 
L 1191 1972 
L 806 0 
L 172 0 
L 1081 4666 
L 2503 4666 
Q 3150 4666 3495 4373 
Q 3841 4081 3841 3531 
Q 3841 3044 3547 2687 
Q 3253 2331 2772 2241 
z
" transform="scale(0.015625)"/>
       <path id="LMRoman10-Regular-2d" d="M 1766 1197 
L 1766 1568 
L 70 1568 
L 70 1197 
L 1766 1197 
z
" transform="scale(0.015625)"/>
      </defs>
      <use xlink:href="#DejaVuSans-Oblique-52"/>
      <use xlink:href="#LMRoman10-Regular-20" transform="translate(69.482422 0)"/>
      <use xlink:href="#LMRoman10-Regular-5b" transform="translate(102.78241 0)"/>
      <use xlink:href="#LMRoman10-Regular-2d" transform="translate(130.582397 0)"/>
      <use xlink:href="#LMRoman10-Regular-5d" transform="translate(163.882385 0)"/>
     </g>
    </g>
   </g>
   <g id="line2d_8">
    <path d="M 64.88327 17.939148 
L 64.88327 17.939148 
L 73.618174 95.922102 
L 82.353079 17.939148 
L 181.348662 17.939148 
" clip-path="url(#p63165df977)" style="fill: none; stroke: #1f77b4; stroke-width: 1.5; stroke-linecap: square"/>
   </g>
   <g id="line2d_9">
    <path d="M 64.88327 17.939148 
L 82.353079 17.939148 
L 91.087983 95.922102 
L 99.822887 17.939148 
L 181.348662 17.939148 
" clip-path="url(#p63165df977)" style="fill: none; stroke: #ff7f0e; stroke-width: 1.5; stroke-linecap: square"/>
   </g>
   <g id="line2d_10">
    <path d="M 64.88327 17.939148 
L 99.822887 17.939148 
L 108.557792 95.922102 
L 117.292696 17.939148 
L 181.348662 17.939148 
" clip-path="url(#p63165df977)" style="fill: none; stroke: #2ca02c; stroke-width: 1.5; stroke-linecap: square"/>
   </g>
   <g id="line2d_11">
    <path d="M 64.88327 17.939148 
L 117.292696 17.939148 
L 126.027601 95.922102 
L 134.762505 17.939148 
L 181.348662 17.939148 
" clip-path="url(#p63165df977)" style="fill: none; stroke: #d62728; stroke-width: 1.5; stroke-linecap: square"/>
   </g>
   <g id="line2d_12">
    <path d="M 64.88327 17.939148 
L 134.762505 17.939148 
L 143.49741 95.922102 
L 152.232314 17.939148 
L 181.348662 17.939148 
" clip-path="url(#p63165df977)" style="fill: none; stroke: #9467bd; stroke-width: 1.5; stroke-linecap: square"/>
   </g>
   <g id="line2d_13">
    <path d="M 64.88327 17.939148 
L 152.232314 17.939148 
L 160.967218 95.922102 
L 169.702123 17.939148 
L 181.348662 17.939148 
" clip-path="url(#p63165df977)" style="fill: none; stroke: #8c564b; stroke-width: 1.5; stroke-linecap: square"/>
   </g>
   <g id="patch_3">
    <path d="M 59.06 99.82125 
L 59.06 14.04 
" style="fill: none; stroke: #000000; stroke-width: 0.8; stroke-linejoin: miter; stroke-linecap: square"/>
   </g>
   <g id="patch_4">
    <path d="M 187.171932 99.82125 
L 187.171932 14.04 
" style="fill: none; stroke: #000000; stroke-width: 0.8; stroke-linejoin: miter; stroke-linecap: square"/>
   </g>
   <g id="patch_5">
    <path d="M 59.06 99.82125 
L 187.171932 99.82125 
" style="fill: none; stroke: #000000; stroke-width: 0.8; stroke-linejoin: miter; stroke-linecap: square"/>
   </g>
   <g id="patch_6">
    <path d="M 59.06 14.04 
L 187.171932 14.04 
" style="fill: none; stroke: #000000; stroke-width: 0.8; stroke-linejoin: miter; stroke-linecap: square"/>
   </g>
  </g>
  <g id="axes_2">
   <g id="patch_7">
    <path d="M 289.161932 99.82125 
L 417.273864 99.82125 
L 417.273864 14.04 
L 289.161932 14.04 
z
" style="fill: #ffffff"/>
   </g>
   <g id="matplotlib.axis_3">
    <g id="xtick_5">
     <g id="line2d_14">
      <g>
       <use xlink:href="#m81498c0ef8" x="294.985201" y="99.82125" style="stroke: #000000; stroke-width: 0.8"/>
      </g>
     </g>
     <g id="text_10">
      <!-- 0 -->
      <g transform="translate(291.735201 115.844063) scale(0.13 -0.13)">
       <use xlink:href="#LMRoman10-Regular-30"/>
      </g>
     </g>
    </g>
    <g id="xtick_6">
     <g id="line2d_15">
      <g>
       <use xlink:href="#m81498c0ef8" x="353.217898" y="99.82125" style="stroke: #000000; stroke-width: 0.8"/>
      </g>
     </g>
     <g id="text_11">
      <!-- 20 -->
      <g transform="translate(346.717898 115.844063) scale(0.13 -0.13)">
       <use xlink:href="#LMRoman10-Regular-32"/>
       <use xlink:href="#LMRoman10-Regular-30" x="49.999985"/>
      </g>
     </g>
    </g>
    <g id="xtick_7">
     <g id="line2d_16">
      <g>
       <use xlink:href="#m81498c0ef8" x="411.450594" y="99.82125" style="stroke: #000000; stroke-width: 0.8"/>
      </g>
     </g>
     <g id="text_12">
      <!-- 40 -->
      <g transform="translate(404.950594 115.844063) scale(0.13 -0.13)">
       <use xlink:href="#LMRoman10-Regular-34"/>
       <use xlink:href="#LMRoman10-Regular-30" x="49.999985"/>
      </g>
     </g>
    </g>
    <g id="text_13">
     <!-- $t$ [$\text{days}$] -->
     <g transform="translate(329.492898 132.246875) scale(0.13 -0.13)">
      <defs>
       <path id="DejaVuSans-Oblique-74" d="M 2706 3500 
L 2619 3053 
L 1472 3053 
L 1100 1153 
Q 1081 1047 1072 975 
Q 1063 903 1063 863 
Q 1063 663 1183 572 
Q 1303 481 1569 481 
L 2150 481 
L 2053 0 
L 1503 0 
Q 991 0 739 200 
Q 488 400 488 806 
Q 488 878 497 964 
Q 506 1050 525 1153 
L 897 3053 
L 409 3053 
L 500 3500 
L 978 3500 
L 1172 4494 
L 1747 4494 
L 1556 3500 
L 2706 3500 
z
" transform="scale(0.015625)"/>
       <path id="DejaVuSans-64" d="M 2906 2969 
L 2906 4863 
L 3481 4863 
L 3481 0 
L 2906 0 
L 2906 525 
Q 2725 213 2448 61 
Q 2172 -91 1784 -91 
Q 1150 -91 751 415 
Q 353 922 353 1747 
Q 353 2572 751 3078 
Q 1150 3584 1784 3584 
Q 2172 3584 2448 3432 
Q 2725 3281 2906 2969 
z
M 947 1747 
Q 947 1113 1208 752 
Q 1469 391 1925 391 
Q 2381 391 2643 752 
Q 2906 1113 2906 1747 
Q 2906 2381 2643 2742 
Q 2381 3103 1925 3103 
Q 1469 3103 1208 2742 
Q 947 2381 947 1747 
z
" transform="scale(0.015625)"/>
       <path id="DejaVuSans-61" d="M 2194 1759 
Q 1497 1759 1228 1600 
Q 959 1441 959 1056 
Q 959 750 1161 570 
Q 1363 391 1709 391 
Q 2188 391 2477 730 
Q 2766 1069 2766 1631 
L 2766 1759 
L 2194 1759 
z
M 3341 1997 
L 3341 0 
L 2766 0 
L 2766 531 
Q 2569 213 2275 61 
Q 1981 -91 1556 -91 
Q 1019 -91 701 211 
Q 384 513 384 1019 
Q 384 1609 779 1909 
Q 1175 2209 1959 2209 
L 2766 2209 
L 2766 2266 
Q 2766 2663 2505 2880 
Q 2244 3097 1772 3097 
Q 1472 3097 1187 3025 
Q 903 2953 641 2809 
L 641 3341 
Q 956 3463 1253 3523 
Q 1550 3584 1831 3584 
Q 2591 3584 2966 3190 
Q 3341 2797 3341 1997 
z
" transform="scale(0.015625)"/>
       <path id="DejaVuSans-79" d="M 2059 -325 
Q 1816 -950 1584 -1140 
Q 1353 -1331 966 -1331 
L 506 -1331 
L 506 -850 
L 844 -850 
Q 1081 -850 1212 -737 
Q 1344 -625 1503 -206 
L 1606 56 
L 191 3500 
L 800 3500 
L 1894 763 
L 2988 3500 
L 3597 3500 
L 2059 -325 
z
" transform="scale(0.015625)"/>
       <path id="DejaVuSans-73" d="M 2834 3397 
L 2834 2853 
Q 2591 2978 2328 3040 
Q 2066 3103 1784 3103 
Q 1356 3103 1142 2972 
Q 928 2841 928 2578 
Q 928 2378 1081 2264 
Q 1234 2150 1697 2047 
L 1894 2003 
Q 2506 1872 2764 1633 
Q 3022 1394 3022 966 
Q 3022 478 2636 193 
Q 2250 -91 1575 -91 
Q 1294 -91 989 -36 
Q 684 19 347 128 
L 347 722 
Q 666 556 975 473 
Q 1284 391 1588 391 
Q 1994 391 2212 530 
Q 2431 669 2431 922 
Q 2431 1156 2273 1281 
Q 2116 1406 1581 1522 
L 1381 1569 
Q 847 1681 609 1914 
Q 372 2147 372 2553 
Q 372 3047 722 3315 
Q 1072 3584 1716 3584 
Q 2034 3584 2315 3537 
Q 2597 3491 2834 3397 
z
" transform="scale(0.015625)"/>
      </defs>
      <use xlink:href="#DejaVuSans-Oblique-74" transform="translate(0 0.015625)"/>
      <use xlink:href="#LMRoman10-Regular-20" transform="translate(39.208984 0.015625)"/>
      <use xlink:href="#LMRoman10-Regular-5b" transform="translate(72.508972 0.015625)"/>
      <use xlink:href="#DejaVuSans-64" transform="translate(100.30896 0.015625)"/>
      <use xlink:href="#DejaVuSans-61" transform="translate(163.785522 0.015625)"/>
      <use xlink:href="#DejaVuSans-79" transform="translate(225.064819 0.015625)"/>
      <use xlink:href="#DejaVuSans-73" transform="translate(284.244507 0.015625)"/>
      <use xlink:href="#LMRoman10-Regular-5d" transform="translate(336.344116 0.015625)"/>
     </g>
    </g>
   </g>
   <g id="matplotlib.axis_4">
    <g id="ytick_4">
     <g id="line2d_17">
      <g>
       <use xlink:href="#m582ab086bb" x="289.161932" y="95.922102" style="stroke: #000000; stroke-width: 0.8"/>
      </g>
     </g>
     <g id="text_14">
      <!-- 0.0000 -->
      <g transform="translate(246.048338 100.433509) scale(0.13 -0.13)">
       <use xlink:href="#LMRoman10-Regular-30"/>
       <use xlink:href="#LMRoman10-Regular-2e" x="49.999985"/>
       <use xlink:href="#LMRoman10-Regular-30" x="77.799973"/>
       <use xlink:href="#LMRoman10-Regular-30" x="127.799957"/>
       <use xlink:href="#LMRoman10-Regular-30" x="177.799942"/>
       <use xlink:href="#LMRoman10-Regular-30" x="227.799927"/>
      </g>
     </g>
    </g>
    <g id="ytick_5">
     <g id="line2d_18">
      <g>
       <use xlink:href="#m582ab086bb" x="289.161932" y="60.143893" style="stroke: #000000; stroke-width: 0.8"/>
      </g>
     </g>
     <g id="text_15">
      <!-- 0.0025 -->
      <g transform="translate(246.048338 64.655299) scale(0.13 -0.13)">
       <use xlink:href="#LMRoman10-Regular-30"/>
       <use xlink:href="#LMRoman10-Regular-2e" x="49.999985"/>
       <use xlink:href="#LMRoman10-Regular-30" x="77.799973"/>
       <use xlink:href="#LMRoman10-Regular-30" x="127.799957"/>
       <use xlink:href="#LMRoman10-Regular-32" x="177.799942"/>
       <use xlink:href="#LMRoman10-Regular-35" x="227.799927"/>
      </g>
     </g>
    </g>
    <g id="ytick_6">
     <g id="line2d_19">
      <g>
       <use xlink:href="#m582ab086bb" x="289.161932" y="24.365683" style="stroke: #000000; stroke-width: 0.8"/>
      </g>
     </g>
     <g id="text_16">
      <!-- 0.0050 -->
      <g transform="translate(246.048338 28.87709) scale(0.13 -0.13)">
       <use xlink:href="#LMRoman10-Regular-30"/>
       <use xlink:href="#LMRoman10-Regular-2e" x="49.999985"/>
       <use xlink:href="#LMRoman10-Regular-30" x="77.799973"/>
       <use xlink:href="#LMRoman10-Regular-30" x="127.799957"/>
       <use xlink:href="#LMRoman10-Regular-35" x="177.799942"/>
       <use xlink:href="#LMRoman10-Regular-30" x="227.799927"/>
      </g>
     </g>
    </g>
    <g id="text_17">
     <!-- $c$ [$mg/L$] -->
     <g transform="translate(238.798338 82.605625) rotate(-90) scale(0.13 -0.13)">
      <use xlink:href="#DejaVuSans-Oblique-63"/>
      <use xlink:href="#LMRoman10-Regular-20" transform="translate(54.980469 0)"/>
      <use xlink:href="#LMRoman10-Regular-5b" transform="translate(88.280457 0)"/>
      <use xlink:href="#DejaVuSans-Oblique-6d" transform="translate(116.080444 0)"/>
      <use xlink:href="#DejaVuSans-Oblique-67" transform="translate(213.492554 0)"/>
      <use xlink:href="#DejaVuSans-2f" transform="translate(276.969116 0)"/>
      <use xlink:href="#DejaVuSans-Oblique-4c" transform="translate(310.660522 0)"/>
      <use xlink:href="#LMRoman10-Regular-5d" transform="translate(366.373413 0)"/>
     </g>
    </g>
   </g>
   <g id="line2d_20">
    <path d="M 294.985201 95.922102 
L 302.00824 95.837691 
L 303.178747 95.645853 
L 304.349253 95.240552 
L 305.51976 94.538938 
L 306.690266 93.483127 
L 307.860772 92.049945 
L 309.031279 90.249809 
L 310.201785 88.118521 
L 311.957545 84.419426 
L 314.298558 78.89305 
L 318.980584 67.625263 
L 321.321597 62.560524 
L 323.66261 58.049679 
L 326.003623 54.102762 
L 328.344635 50.654008 
L 330.685648 47.615053 
L 333.026661 44.916593 
L 335.952927 41.925782 
L 338.879194 39.29601 
L 341.80546 36.946114 
L 345.316979 34.451186 
L 348.828499 32.266623 
L 352.340018 30.358056 
L 355.851537 28.683732 
L 359.94831 26.992148 
L 364.045082 25.534081 
L 368.727108 24.115416 
L 373.409134 22.91706 
L 378.676413 21.794991 
L 384.528945 20.788363 
L 390.966731 19.899429 
L 398.575023 19.092727 
L 406.768568 18.436324 
L 411.450594 18.135997 
L 411.450594 18.135997 
" clip-path="url(#p2cc66830f4)" style="fill: none; stroke: #1f77b4; stroke-width: 1.5; stroke-linecap: square"/>
   </g>
   <g id="line2d_21">
    <path d="M 294.985201 95.922102 
L 302.593493 95.827097 
L 304.349253 95.520165 
L 305.51976 95.108519 
L 306.690266 94.48777 
L 307.860772 93.640175 
L 309.031279 92.567798 
L 310.787039 90.560683 
L 312.542798 88.146011 
L 314.883811 84.450818 
L 317.810077 79.362485 
L 326.588876 63.76427 
L 330.100395 58.083319 
L 333.026661 53.725339 
L 335.952927 49.723429 
L 338.879194 46.071326 
L 341.80546 42.766734 
L 344.731726 39.787065 
L 347.657992 37.122116 
L 350.584258 34.741659 
L 353.510524 32.626476 
L 356.43679 30.748732 
L 359.94831 28.779829 
L 363.459829 27.08434 
L 366.971349 25.621965 
L 371.068121 24.181562 
L 375.750147 22.809181 
L 380.432173 21.695957 
L 385.699452 20.669577 
L 391.551984 19.771144 
L 398.575023 18.941557 
L 406.183315 18.278315 
L 411.450594 17.939148 
L 411.450594 17.939148 
" clip-path="url(#p2cc66830f4)" style="fill: none; stroke: #ff7f0e; stroke-width: 1.5; stroke-linecap: square"/>
   </g>
   <g id="line2d_22">
    <path d="M 294.985201 95.922102 
L 302.593493 95.832023 
L 304.349253 95.539079 
L 305.51976 95.146546 
L 306.690266 94.555289 
L 307.860772 93.748294 
L 309.031279 92.725487 
L 310.787039 90.817575 
L 312.542798 88.527114 
L 314.883811 85.020109 
L 317.810077 80.185202 
L 327.174129 64.426375 
L 330.685648 59.10235 
L 334.197168 54.241497 
L 337.123434 50.544605 
L 340.0497 47.163731 
L 342.975966 44.081886 
L 345.902232 41.292764 
L 348.828499 38.765168 
L 352.340018 36.055664 
L 355.851537 33.669083 
L 359.363057 31.576226 
L 362.874576 29.738823 
L 366.971349 27.876648 
L 371.068121 26.276344 
L 375.750147 24.723486 
L 380.432173 23.403593 
L 385.699452 22.170329 
L 391.551984 21.048052 
L 397.98977 20.056069 
L 405.012808 19.222765 
L 411.450594 18.637484 
L 411.450594 18.637484 
" clip-path="url(#p2cc66830f4)" style="fill: none; stroke: #2ca02c; stroke-width: 1.5; stroke-linecap: square"/>
   </g>
   <g id="line2d_23">
    <path d="M 294.985201 95.922102 
L 302.593493 95.832829 
L 304.349253 95.541486 
L 305.51976 95.152151 
L 306.690266 94.566088 
L 307.860772 93.766784 
L 309.031279 92.752845 
L 310.787039 90.858279 
L 312.542798 88.583801 
L 314.883811 85.1109 
L 317.810077 80.322211 
L 326.588876 65.625506 
L 330.100395 60.290655 
L 333.026661 56.190295 
L 336.538181 51.691097 
L 339.464447 48.288687 
L 342.390713 45.179664 
L 345.316979 42.358329 
L 348.243245 39.805371 
L 351.754765 37.065878 
L 355.266284 34.644865 
L 358.777803 32.515006 
L 362.289323 30.641558 
L 366.386095 28.735607 
L 370.482868 27.085946 
L 375.164894 25.482152 
L 379.84692 24.107875 
L 385.114199 22.814746 
L 390.966731 21.631195 
L 397.404517 20.569707 
L 403.842302 19.732602 
L 411.450594 18.973378 
L 411.450594 18.973378 
" clip-path="url(#p2cc66830f4)" style="fill: none; stroke: #d62728; stroke-width: 1.5; stroke-linecap: square"/>
   </g>
   <g id="line2d_24">
    <path d="M 294.985201 95.922102 
L 302.593493 95.832829 
L 304.349253 95.541486 
L 305.51976 95.152151 
L 306.690266 94.566088 
L 307.860772 93.766784 
L 309.031279 92.752845 
L 310.787039 90.858279 
L 312.542798 88.5838 
L 314.883811 85.110902 
L 317.810077 80.322235 
L 326.588876 65.625914 
L 330.100395 60.291358 
L 333.026661 56.191267 
L 336.538181 51.692366 
L 339.464447 48.290167 
L 342.390713 45.181345 
L 345.316979 42.360186 
L 348.243245 39.807387 
L 351.754765 37.068029 
L 355.266284 34.64713 
L 358.777803 32.517359 
L 362.289323 30.643958 
L 366.386095 28.738032 
L 370.482868 27.088401 
L 375.164894 25.484595 
L 379.84692 24.110317 
L 385.114199 22.817177 
L 390.966731 21.633572 
L 397.404517 20.572003 
L 403.842302 19.734775 
L 411.450594 18.975295 
L 411.450594 18.975295 
" clip-path="url(#p2cc66830f4)" style="fill: none; stroke: #9467bd; stroke-width: 1.5; stroke-linecap: square"/>
   </g>
   <g id="line2d_25">
    <path d="M 294.985201 95.922102 
L 302.593493 95.832829 
L 304.349253 95.541486 
L 305.51976 95.152151 
L 306.690266 94.566088 
L 307.860772 93.766784 
L 309.031279 92.752845 
L 310.787039 90.858279 
L 312.542798 88.5838 
L 314.883811 85.110902 
L 317.810077 80.322235 
L 326.588876 65.625914 
L 330.100395 60.291358 
L 333.026661 56.191267 
L 336.538181 51.692366 
L 339.464447 48.290167 
L 342.390713 45.181345 
L 345.316979 42.360186 
L 348.243245 39.807387 
L 351.754765 37.068029 
L 355.266284 34.64713 
L 358.777803 32.517359 
L 362.289323 30.643958 
L 366.386095 28.738032 
L 370.482868 27.088401 
L 375.164894 25.484595 
L 379.84692 24.110317 
L 385.114199 22.817177 
L 390.966731 21.633572 
L 397.404517 20.572003 
L 403.842302 19.734775 
L 411.450594 18.975295 
L 411.450594 18.975295 
" clip-path="url(#p2cc66830f4)" style="fill: none; stroke: #8c564b; stroke-width: 1.5; stroke-linecap: square"/>
   </g>
   <g id="patch_8">
    <path d="M 289.161932 99.82125 
L 289.161932 14.04 
" style="fill: none; stroke: #000000; stroke-width: 0.8; stroke-linejoin: miter; stroke-linecap: square"/>
   </g>
   <g id="patch_9">
    <path d="M 417.273864 99.82125 
L 417.273864 14.04 
" style="fill: none; stroke: #000000; stroke-width: 0.8; stroke-linejoin: miter; stroke-linecap: square"/>
   </g>
   <g id="patch_10">
    <path d="M 289.161932 99.82125 
L 417.273864 99.82125 
" style="fill: none; stroke: #000000; stroke-width: 0.8; stroke-linejoin: miter; stroke-linecap: square"/>
   </g>
   <g id="patch_11">
    <path d="M 289.161932 14.04 
L 417.273864 14.04 
" style="fill: none; stroke: #000000; stroke-width: 0.8; stroke-linejoin: miter; stroke-linecap: square"/>
   </g>
  </g>
  <g id="axes_3">
   <g id="patch_12">
    <path d="M 59.06 237.98 
L 187.171932 237.98 
L 187.171932 152.19875 
L 59.06 152.19875 
z
" style="fill: #ffffff"/>
   </g>
   <g id="matplotlib.axis_5">
    <g id="xtick_8">
     <g id="line2d_26">
      <g>
       <use xlink:href="#m81498c0ef8" x="64.88327" y="237.98" style="stroke: #000000; stroke-width: 0.8"/>
      </g>
     </g>
     <g id="text_18">
      <!-- 0 -->
      <g transform="translate(61.63327 254.002813) scale(0.13 -0.13)">
       <use xlink:href="#LMRoman10-Regular-30"/>
      </g>
     </g>
    </g>
    <g id="xtick_9">
     <g id="line2d_27">
      <g>
       <use xlink:href="#m81498c0ef8" x="111.469427" y="237.98" style="stroke: #000000; stroke-width: 0.8"/>
      </g>
     </g>
     <g id="text_19">
      <!-- 2 -->
      <g transform="translate(108.219427 254.002813) scale(0.13 -0.13)">
       <use xlink:href="#LMRoman10-Regular-32"/>
      </g>
     </g>
    </g>
    <g id="xtick_10">
     <g id="line2d_28">
      <g>
       <use xlink:href="#m81498c0ef8" x="158.055584" y="237.98" style="stroke: #000000; stroke-width: 0.8"/>
      </g>
     </g>
     <g id="text_20">
      <!-- 4 -->
      <g transform="translate(154.805584 254.002813) scale(0.13 -0.13)">
       <use xlink:href="#LMRoman10-Regular-34"/>
      </g>
     </g>
    </g>
   </g>
   <g id="matplotlib.axis_6">
    <g id="ytick_7">
     <g id="line2d_29">
      <g>
       <use xlink:href="#m582ab086bb" x="59.06" y="234.080852" style="stroke: #000000; stroke-width: 0.8"/>
      </g>
     </g>
     <g id="text_21">
      <!-- 0.00 -->
      <g transform="translate(28.946406 238.592259) scale(0.13 -0.13)">
       <use xlink:href="#LMRoman10-Regular-30"/>
       <use xlink:href="#LMRoman10-Regular-2e" x="49.999985"/>
       <use xlink:href="#LMRoman10-Regular-30" x="77.799973"/>
       <use xlink:href="#LMRoman10-Regular-30" x="127.799957"/>
      </g>
     </g>
    </g>
    <g id="ytick_8">
     <g id="line2d_30">
      <g>
       <use xlink:href="#m582ab086bb" x="59.06" y="202.341778" style="stroke: #000000; stroke-width: 0.8"/>
      </g>
     </g>
     <g id="text_22">
      <!-- 0.02 -->
      <g transform="translate(28.946406 206.853184) scale(0.13 -0.13)">
       <use xlink:href="#LMRoman10-Regular-30"/>
       <use xlink:href="#LMRoman10-Regular-2e" x="49.999985"/>
       <use xlink:href="#LMRoman10-Regular-30" x="77.799973"/>
       <use xlink:href="#LMRoman10-Regular-32" x="127.799957"/>
      </g>
     </g>
    </g>
    <g id="ytick_9">
     <g id="line2d_31">
      <g>
       <use xlink:href="#m582ab086bb" x="59.06" y="170.602704" style="stroke: #000000; stroke-width: 0.8"/>
      </g>
     </g>
     <g id="text_23">
      <!-- 0.04 -->
      <g transform="translate(28.946406 175.11411) scale(0.13 -0.13)">
       <use xlink:href="#LMRoman10-Regular-30"/>
       <use xlink:href="#LMRoman10-Regular-2e" x="49.999985"/>
       <use xlink:href="#LMRoman10-Regular-30" x="77.799973"/>
       <use xlink:href="#LMRoman10-Regular-34" x="127.799957"/>
      </g>
     </g>
    </g>
    <g id="text_24">
     <!-- Max. Abs. Err. -->
     <g transform="translate(22.423594 238.053359) rotate(-90) scale(0.13 -0.13)">
      <defs>
       <path id="LMRoman10-Regular-4d" d="M 5626 0 
L 5626 198 
L 5472 198 
C 4979 198 4966 269 4966 499 
L 4966 3872 
C 4966 4102 4979 4173 5472 4173 
L 5626 4173 
L 5626 4371 
L 4544 4371 
C 4378 4371 4378 4365 4333 4250 
L 2931 646 
L 1542 4230 
C 1485 4371 1466 4371 1318 4371 
L 237 4371 
L 237 4173 
L 390 4173 
C 883 4173 896 4102 896 3872 
L 896 672 
C 896 499 896 198 237 198 
L 237 0 
L 986 19 
L 1734 0 
L 1734 198 
C 1075 198 1075 499 1075 672 
L 1075 4122 
L 1082 4122 
L 2624 141 
C 2656 58 2688 0 2752 0 
C 2822 0 2842 51 2867 122 
L 4442 4173 
L 4448 4173 
L 4448 499 
C 4448 269 4435 198 3942 198 
L 3789 198 
L 3789 0 
C 4026 19 4461 19 4710 19 
C 4960 19 5389 19 5626 0 
z
" transform="scale(0.015625)"/>
       <path id="LMRoman10-Regular-61" d="M 3091 570 
L 3091 928 
L 2931 928 
L 2931 570 
C 2931 198 2771 160 2701 160 
C 2490 160 2464 448 2464 480 
L 2464 1760 
C 2464 2029 2464 2278 2234 2515 
C 1984 2765 1664 2867 1357 2867 
C 832 2867 390 2566 390 2144 
C 390 1952 518 1843 685 1843 
C 864 1843 979 1971 979 2138 
C 979 2214 947 2426 653 2432 
C 826 2656 1139 2726 1344 2726 
C 1658 2726 2022 2477 2022 1907 
L 2022 1670 
C 1696 1651 1248 1632 845 1440 
C 365 1222 205 890 205 608 
C 205 90 826 -70 1229 -70 
C 1651 -70 1946 186 2067 486 
C 2093 230 2266 -38 2566 -38 
C 2701 -38 3091 51 3091 570 
z
M 2022 896 
C 2022 288 1562 70 1274 70 
C 960 70 698 294 698 614 
C 698 966 966 1498 2022 1536 
L 2022 896 
z
" transform="scale(0.015625)"/>
       <path id="LMRoman10-Regular-78" d="M 3302 0 
L 3302 198 
C 2957 198 2842 211 2694 397 
L 1837 1504 
C 2029 1747 2272 2061 2426 2227 
C 2624 2458 2886 2554 3187 2560 
L 3187 2758 
C 3021 2746 2829 2739 2662 2739 
C 2470 2739 2131 2752 2048 2758 
L 2048 2560 
C 2182 2547 2234 2464 2234 2362 
C 2234 2259 2170 2176 2138 2138 
L 1741 1638 
L 1242 2285 
C 1184 2349 1184 2362 1184 2400 
C 1184 2496 1280 2554 1408 2560 
L 1408 2758 
L 717 2739 
C 582 2739 282 2746 109 2758 
L 109 2560 
C 557 2560 563 2554 864 2170 
L 1498 1344 
C 1197 960 1197 947 896 582 
C 589 211 211 198 77 198 
L 77 0 
C 243 13 442 19 608 19 
L 1216 0 
L 1216 198 
C 1075 218 1030 301 1030 397 
C 1030 538 1216 749 1606 1210 
L 2093 570 
C 2144 499 2227 397 2227 358 
C 2227 301 2170 205 1997 198 
L 1997 0 
L 2688 19 
C 2861 19 3110 13 3302 0 
z
" transform="scale(0.015625)"/>
       <path id="LMRoman10-Regular-41" d="M 4589 0 
L 4589 198 
L 4474 198 
C 4090 198 4000 243 3930 454 
L 2547 4454 
C 2515 4538 2502 4582 2400 4582 
C 2298 4582 2278 4544 2246 4454 
L 922 627 
C 806 301 550 205 205 198 
L 205 0 
L 858 19 
L 1594 0 
L 1594 198 
C 1274 198 1114 358 1114 525 
C 1114 544 1120 608 1126 621 
L 1421 1459 
L 3002 1459 
L 3341 480 
C 3347 454 3360 416 3360 390 
C 3360 198 3002 198 2829 198 
L 2829 0 
C 3059 19 3507 19 3750 19 
L 4589 0 
z
M 2931 1658 
L 1491 1658 
L 2208 3738 
L 2931 1658 
z
" transform="scale(0.015625)"/>
       <path id="LMRoman10-Regular-62" d="M 3334 1382 
C 3334 2195 2707 2829 1978 2829 
C 1478 2829 1203 2528 1101 2413 
L 1101 4442 
L 179 4371 
L 179 4173 
C 627 4173 678 4128 678 3814 
L 678 0 
L 838 0 
L 1069 397 
C 1165 250 1434 -70 1907 -70 
C 2669 -70 3334 557 3334 1382 
z
M 2803 1389 
C 2803 1152 2790 768 2605 480 
C 2470 282 2227 70 1882 70 
C 1594 70 1363 224 1210 461 
C 1120 595 1120 614 1120 730 
L 1120 2048 
C 1120 2170 1120 2176 1190 2278 
C 1440 2637 1792 2688 1946 2688 
C 2234 2688 2464 2522 2618 2278 
C 2784 2016 2803 1651 2803 1389 
z
" transform="scale(0.015625)"/>
       <path id="LMRoman10-Regular-73" d="M 2304 819 
C 2304 1158 2112 1350 2035 1427 
C 1824 1632 1574 1683 1306 1734 
C 947 1805 518 1888 518 2259 
C 518 2483 685 2746 1235 2746 
C 1939 2746 1971 2170 1984 1971 
C 1990 1914 2061 1914 2061 1914 
C 2144 1914 2144 1946 2144 2067 
L 2144 2714 
C 2144 2822 2144 2867 2074 2867 
C 2042 2867 2029 2867 1946 2790 
C 1926 2765 1862 2707 1837 2688 
C 1594 2867 1331 2867 1235 2867 
C 454 2867 211 2438 211 2080 
C 211 1856 314 1677 486 1536 
C 691 1370 870 1331 1331 1242 
C 1472 1216 1997 1114 1997 653 
C 1997 326 1773 70 1274 70 
C 736 70 506 435 384 979 
C 365 1062 358 1088 294 1088 
C 211 1088 211 1043 211 928 
L 211 83 
C 211 -26 211 -70 282 -70 
C 314 -70 320 -64 442 58 
C 454 70 454 83 570 205 
C 851 -64 1139 -70 1274 -70 
C 2010 -70 2304 358 2304 819 
z
" transform="scale(0.015625)"/>
       <path id="LMRoman10-Regular-45" d="M 4173 1651 
L 4013 1651 
C 3853 666 3706 198 2605 198 
L 1754 198 
C 1453 198 1440 243 1440 454 
L 1440 2163 
L 2016 2163 
C 2637 2163 2707 1958 2707 1414 
L 2867 1414 
L 2867 3110 
L 2707 3110 
C 2707 2560 2637 2362 2016 2362 
L 1440 2362 
L 1440 3898 
C 1440 4109 1453 4154 1754 4154 
L 2579 4154 
C 3558 4154 3731 3802 3834 2912 
L 3994 2912 
L 3814 4352 
L 211 4352 
L 211 4154 
L 365 4154 
C 858 4154 870 4083 870 3853 
L 870 499 
C 870 269 858 198 365 198 
L 211 198 
L 211 0 
L 3904 0 
L 4173 1651 
z
" transform="scale(0.015625)"/>
       <path id="LMRoman10-Regular-72" d="M 2330 2438 
C 2330 2643 2131 2829 1856 2829 
C 1389 2829 1158 2400 1069 2125 
L 1069 2829 
L 179 2758 
L 179 2560 
C 627 2560 678 2515 678 2202 
L 678 486 
C 678 198 608 198 179 198 
L 179 0 
L 909 19 
C 1165 19 1466 19 1722 0 
L 1722 198 
L 1587 198 
C 1114 198 1101 269 1101 499 
L 1101 1485 
C 1101 2118 1370 2688 1856 2688 
C 1901 2688 1914 2688 1926 2682 
C 1907 2675 1779 2598 1779 2432 
C 1779 2253 1914 2157 2054 2157 
C 2170 2157 2330 2234 2330 2438 
z
" transform="scale(0.015625)"/>
      </defs>
      <use xlink:href="#LMRoman10-Regular-4d"/>
      <use xlink:href="#LMRoman10-Regular-61" x="91.699982"/>
      <use xlink:href="#LMRoman10-Regular-78" x="141.699966"/>
      <use xlink:href="#LMRoman10-Regular-2e" x="194.499954"/>
      <use xlink:href="#LMRoman10-Regular-20" x="222.299942"/>
      <use xlink:href="#LMRoman10-Regular-41" x="255.59993"/>
      <use xlink:href="#LMRoman10-Regular-62" x="330.599915"/>
      <use xlink:href="#LMRoman10-Regular-73" x="386.199905"/>
      <use xlink:href="#LMRoman10-Regular-2e" x="425.599899"/>
      <use xlink:href="#LMRoman10-Regular-20" x="453.399887"/>
      <use xlink:href="#LMRoman10-Regular-45" x="486.699875"/>
      <use xlink:href="#LMRoman10-Regular-72" x="554.799866"/>
      <use xlink:href="#LMRoman10-Regular-72" x="593.999863"/>
      <use xlink:href="#LMRoman10-Regular-2e" x="633.19986"/>
     </g>
    </g>
   </g>
   <g id="line2d_32">
    <path d="M 64.88327 224.407887 
L 88.176348 231.594069 
L 111.469427 233.603162 
L 134.762505 234.078946 
L 158.055584 234.080852 
L 181.348662 234.080852 
" clip-path="url(#paeff70c027)" style="fill: none; stroke-dasharray: 5.55,2.4; stroke-dashoffset: 0; stroke: #000000; stroke-width: 1.5"/>
   </g>
   <g id="line2d_33">
    <path d="M 64.88327 156.097898 
L 88.176348 190.88894 
L 111.469427 218.715612 
L 134.762505 234.003669 
L 158.055584 234.080852 
L 181.348662 234.080852 
" clip-path="url(#paeff70c027)" style="fill: none; stroke: #000000; stroke-width: 1.5; stroke-linecap: square"/>
   </g>
   <g id="patch_13">
    <path d="M 59.06 237.98 
L 59.06 152.19875 
" style="fill: none; stroke: #000000; stroke-width: 0.8; stroke-linejoin: miter; stroke-linecap: square"/>
   </g>
   <g id="patch_14">
    <path d="M 187.171932 237.98 
L 187.171932 152.19875 
" style="fill: none; stroke: #000000; stroke-width: 0.8; stroke-linejoin: miter; stroke-linecap: square"/>
   </g>
   <g id="patch_15">
    <path d="M 59.06 237.98 
L 187.171932 237.98 
" style="fill: none; stroke: #000000; stroke-width: 0.8; stroke-linejoin: miter; stroke-linecap: square"/>
   </g>
   <g id="patch_16">
    <path d="M 59.06 152.19875 
L 187.171932 152.19875 
" style="fill: none; stroke: #000000; stroke-width: 0.8; stroke-linejoin: miter; stroke-linecap: square"/>
   </g>
   <g id="legend_1">
    <g id="patch_17">
     <path d="M 196.271932 198.844375 
L 272.360526 198.844375 
Q 274.960526 198.844375 274.960526 196.244375 
L 274.960526 161.29875 
Q 274.960526 158.69875 272.360526 158.69875 
L 196.271932 158.69875 
Q 193.671932 158.69875 193.671932 161.29875 
L 193.671932 196.244375 
Q 193.671932 198.844375 196.271932 198.844375 
z
" style="fill: #ffffff; opacity: 0.8; stroke: #cccccc; stroke-linejoin: miter"/>
    </g>
    <g id="line2d_34">
     <path d="M 198.871932 168.44875 
L 211.871932 168.44875 
L 224.871932 168.44875 
" style="fill: none; stroke-dasharray: 5.55,2.4; stroke-dashoffset: 0; stroke: #000000; stroke-width: 1.5"/>
    </g>
    <g id="text_25">
     <!-- BTC -->
     <g transform="translate(235.271932 172.99875) scale(0.13 -0.13)">
      <defs>
       <path id="LMRoman10-Regular-42" d="M 4166 1171 
C 4166 1728 3642 2208 2931 2285 
C 3552 2406 3994 2816 3994 3290 
C 3994 3846 3405 4371 2573 4371 
L 230 4371 
L 230 4173 
L 384 4173 
C 877 4173 890 4102 890 3872 
L 890 499 
C 890 269 877 198 384 198 
L 230 198 
L 230 0 
L 2739 0 
C 3590 0 4166 570 4166 1171 
z
M 3373 3290 
C 3373 2880 3059 2342 2349 2342 
L 1421 2342 
L 1421 3917 
C 1421 4128 1434 4173 1734 4173 
L 2528 4173 
C 3149 4173 3373 3629 3373 3290 
z
M 3526 1178 
C 3526 723 3194 198 2534 198 
L 1734 198 
C 1434 198 1421 243 1421 454 
L 1421 2202 
L 2624 2202 
C 3258 2202 3526 1606 3526 1178 
z
" transform="scale(0.015625)"/>
       <path id="LMRoman10-Regular-54" d="M 4384 2893 
L 4262 4333 
L 352 4333 
L 230 2893 
L 390 2893 
C 480 3923 576 4134 1542 4134 
C 1658 4134 1824 4134 1888 4122 
C 2022 4096 2022 4026 2022 3878 
L 2022 506 
C 2022 288 2022 198 1350 198 
L 1094 198 
L 1094 0 
C 1357 19 2010 19 2304 19 
C 2598 19 3258 19 3520 0 
L 3520 198 
L 3264 198 
C 2592 198 2592 288 2592 506 
L 2592 3878 
C 2592 4006 2592 4096 2707 4122 
C 2778 4134 2950 4134 3072 4134 
C 4038 4134 4134 3923 4224 2893 
L 4384 2893 
z
" transform="scale(0.015625)"/>
       <path id="LMRoman10-Regular-43" d="M 4256 1491 
C 4256 1555 4256 1600 4173 1600 
C 4102 1600 4102 1562 4096 1498 
C 4045 582 3360 58 2662 58 
C 2272 58 1018 275 1018 2182 
C 1018 4096 2266 4314 2656 4314 
C 3354 4314 3923 3731 4051 2797 
C 4064 2707 4064 2688 4154 2688 
C 4256 2688 4256 2707 4256 2842 
L 4256 4358 
C 4256 4467 4256 4512 4186 4512 
C 4160 4512 4134 4512 4083 4435 
L 3763 3962 
C 3526 4192 3200 4512 2586 4512 
C 1389 4512 358 3494 358 2189 
C 358 864 1395 -141 2586 -141 
C 3629 -141 4256 749 4256 1491 
z
" transform="scale(0.015625)"/>
      </defs>
      <use xlink:href="#LMRoman10-Regular-42"/>
      <use xlink:href="#LMRoman10-Regular-54" x="70.799988"/>
      <use xlink:href="#LMRoman10-Regular-43" x="142.999969"/>
     </g>
    </g>
    <g id="line2d_35">
     <path d="M 198.871932 186.571562 
L 211.871932 186.571562 
L 224.871932 186.571562 
" style="fill: none; stroke: #000000; stroke-width: 1.5; stroke-linecap: square"/>
    </g>
    <g id="text_26">
     <!-- FULL -->
     <g transform="translate(235.271932 191.121563) scale(0.13 -0.13)">
      <defs>
       <path id="LMRoman10-Regular-46" d="M 3904 2912 
L 3725 4352 
L 211 4352 
L 211 4154 
L 365 4154 
C 858 4154 870 4083 870 3853 
L 870 499 
C 870 269 858 198 365 198 
L 211 198 
L 211 0 
C 435 19 934 19 1184 19 
C 1446 19 2029 19 2259 0 
L 2259 198 
L 2048 198 
C 1440 198 1440 282 1440 506 
L 1440 2080 
L 1990 2080 
C 2605 2080 2669 1875 2669 1331 
L 2829 1331 
L 2829 3027 
L 2669 3027 
C 2669 2490 2605 2278 1990 2278 
L 1440 2278 
L 1440 3898 
C 1440 4109 1453 4154 1754 4154 
L 2522 4154 
C 3482 4154 3642 3795 3744 2912 
L 3904 2912 
z
" transform="scale(0.015625)"/>
       <path id="LMRoman10-Regular-55" d="M 4582 4173 
L 4582 4371 
L 3827 4352 
L 3066 4371 
L 3066 4173 
C 3725 4173 3725 3872 3725 3699 
L 3725 1478 
C 3725 570 3104 58 2496 58 
C 2195 58 1440 218 1440 1434 
L 1440 3872 
C 1440 4102 1453 4173 1946 4173 
L 2099 4173 
L 2099 4371 
C 1875 4352 1402 4352 1158 4352 
C 915 4352 435 4352 211 4371 
L 211 4173 
L 365 4173 
C 858 4173 870 4102 870 3872 
L 870 1459 
C 870 557 1613 -141 2483 -141 
C 3219 -141 3795 454 3904 1184 
C 3923 1312 3923 1370 3923 1626 
L 3923 3674 
C 3923 3885 3923 4173 4582 4173 
z
" transform="scale(0.015625)"/>
       <path id="LMRoman10-Regular-4c" d="M 3725 1651 
L 3565 1651 
C 3494 998 3405 198 2278 198 
L 1754 198 
C 1453 198 1440 243 1440 454 
L 1440 3866 
C 1440 4083 1440 4173 2048 4173 
L 2259 4173 
L 2259 4371 
C 2029 4352 1446 4352 1184 4352 
C 934 4352 435 4352 211 4371 
L 211 4173 
L 365 4173 
C 858 4173 870 4102 870 3872 
L 870 499 
C 870 269 858 198 365 198 
L 211 198 
L 211 0 
L 3546 0 
L 3725 1651 
z
" transform="scale(0.015625)"/>
      </defs>
      <use xlink:href="#LMRoman10-Regular-46"/>
      <use xlink:href="#LMRoman10-Regular-55" x="65.299988"/>
      <use xlink:href="#LMRoman10-Regular-4c" x="140.299973"/>
      <use xlink:href="#LMRoman10-Regular-4c" x="202.799957"/>
     </g>
    </g>
   </g>
   <g id="PathCollection_1">
    <defs>
     <path id="C0_0_37d045245c" d="M 0 3 
C 0.795609 3 1.55874 2.683901 2.12132 2.12132 
C 2.683901 1.55874 3 0.795609 3 -0 
C 3 -0.795609 2.683901 -1.55874 2.12132 -2.12132 
C 1.55874 -2.683901 0.795609 -3 0 -3 
C -0.795609 -3 -1.55874 -2.683901 -2.12132 -2.12132 
C -2.683901 -1.55874 -3 -0.795609 -3 0 
C -3 0.795609 -2.683901 1.55874 -2.12132 2.12132 
C -1.55874 2.683901 -0.795609 3 0 3 
z
"/>
    </defs>
    <g clip-path="url(#paeff70c027)">
     <use xlink:href="#C0_0_37d045245c" x="64.88327" y="224.407887" style="fill: #1f77b4; stroke: #1f77b4"/>
    </g>
    <g clip-path="url(#paeff70c027)">
     <use xlink:href="#C0_0_37d045245c" x="88.176348" y="231.594069" style="fill: #ff7f0e; stroke: #ff7f0e"/>
    </g>
    <g clip-path="url(#paeff70c027)">
     <use xlink:href="#C0_0_37d045245c" x="111.469427" y="233.603162" style="fill: #2ca02c; stroke: #2ca02c"/>
    </g>
    <g clip-path="url(#paeff70c027)">
     <use xlink:href="#C0_0_37d045245c" x="134.762505" y="234.078946" style="fill: #d62728; stroke: #d62728"/>
    </g>
    <g clip-path="url(#paeff70c027)">
     <use xlink:href="#C0_0_37d045245c" x="158.055584" y="234.080852" style="fill: #9467bd; stroke: #9467bd"/>
    </g>
    <g clip-path="url(#paeff70c027)">
     <use xlink:href="#C0_0_37d045245c" x="181.348662" y="234.080852" style="fill: #8c564b; stroke: #8c564b"/>
    </g>
   </g>
   <g id="PathCollection_2">
    <defs>
     <path id="C1_0_50a27030e2" d="M 0 3 
C 0.795609 3 1.55874 2.683901 2.12132 2.12132 
C 2.683901 1.55874 3 0.795609 3 -0 
C 3 -0.795609 2.683901 -1.55874 2.12132 -2.12132 
C 1.55874 -2.683901 0.795609 -3 0 -3 
C -0.795609 -3 -1.55874 -2.683901 -2.12132 -2.12132 
C -2.683901 -1.55874 -3 -0.795609 -3 0 
C -3 0.795609 -2.683901 1.55874 -2.12132 2.12132 
C -1.55874 2.683901 -0.795609 3 0 3 
z
"/>
    </defs>
    <g clip-path="url(#paeff70c027)">
     <use xlink:href="#C1_0_50a27030e2" x="64.88327" y="156.097898" style="fill: #1f77b4; stroke: #1f77b4"/>
    </g>
    <g clip-path="url(#paeff70c027)">
     <use xlink:href="#C1_0_50a27030e2" x="88.176348" y="190.88894" style="fill: #ff7f0e; stroke: #ff7f0e"/>
    </g>
    <g clip-path="url(#paeff70c027)">
     <use xlink:href="#C1_0_50a27030e2" x="111.469427" y="218.715612" style="fill: #2ca02c; stroke: #2ca02c"/>
    </g>
    <g clip-path="url(#paeff70c027)">
     <use xlink:href="#C1_0_50a27030e2" x="134.762505" y="234.003669" style="fill: #d62728; stroke: #d62728"/>
    </g>
    <g clip-path="url(#paeff70c027)">
     <use xlink:href="#C1_0_50a27030e2" x="158.055584" y="234.080852" style="fill: #9467bd; stroke: #9467bd"/>
    </g>
    <g clip-path="url(#paeff70c027)">
     <use xlink:href="#C1_0_50a27030e2" x="181.348662" y="234.080852" style="fill: #8c564b; stroke: #8c564b"/>
    </g>
   </g>
  </g>
  <g id="axes_4"/>
 </g>
 <defs>
  <clipPath id="p63165df977">
   <rect x="59.06" y="14.04" width="128.111932" height="85.78125"/>
  </clipPath>
  <clipPath id="p2cc66830f4">
   <rect x="289.161932" y="14.04" width="128.111932" height="85.78125"/>
  </clipPath>
  <clipPath id="paeff70c027">
   <rect x="59.06" y="152.19875" width="128.111932" height="85.78125"/>
  </clipPath>
 </defs>
</svg>
